<svg id="address" xmlns="http://www.w3.org/2000/svg" width="20" height="17.778" viewBox="0 0 20 17.778">
  <path id="Path_1497" data-name="Path 1497" d="M10,60a4.375,4.375,0,0,0-4.375,4.375c0,1.953,2.859,5.514,3.955,6.806a.548.548,0,0,0,.84,0c1.1-1.292,3.955-4.853,3.955-6.806A4.375,4.375,0,0,0,10,60Zm0,5.833a1.458,1.458,0,1,1,1.458-1.458A1.458,1.458,0,0,1,10,65.833ZM.7,67.5A1.111,1.111,0,0,0,0,68.53v8.692a.556.556,0,0,0,.762.516l4.794-2.182V67.463a10.516,10.516,0,0,1-.738-1.612Zm9.3,4.99A1.659,1.659,0,0,1,8.732,71.9c-.683-.806-1.409-1.723-2.066-2.664v6.319l6.667,2.222V69.236c-.657.941-1.383,1.858-2.066,2.664A1.66,1.66,0,0,1,10,72.489ZM19.238,65.6l-4.794,2.182v10L19.3,75.835A1.111,1.111,0,0,0,20,74.8V66.112a.556.556,0,0,0-.762-.516Z" transform="translate(0 -60)" fill="#fff"/>
</svg>
