<svg id="allowance" xmlns="http://www.w3.org/2000/svg" xmlns:xlink="http://www.w3.org/1999/xlink" width="60" height="68.469" viewBox="0 0 60 68.469">
  <defs>
    <clipPath id="clip-path">
      <rect id="Rectangle_1798" data-name="Rectangle 1798" width="60" height="68" transform="translate(0 0.469)" fill="none"/>
    </clipPath>
  </defs>
  <path id="Path_1752" data-name="Path 1752" d="M187.518,530.638l9.843-4.649a4.551,4.551,0,0,1,6.014,1.824l-20.007,12.942a13.751,13.751,0,0,1-8.584.971l-13.8-3.873a5.11,5.11,0,0,0-3.791.415l-2.886,1.544.388-14.073.115,0a13.5,13.5,0,0,1,14.031-.981l.826.427a9.637,9.637,0,0,0,4.171,1.077l8.111.224a6.033,6.033,0,0,1,5.568,4.149Zm0,0" transform="translate(-144.044 -474.752)" fill="#f7caa5"/>
  <path id="Path_1753" data-name="Path 1753" d="M224.629,307.355a15.145,15.145,0,1,1-15.145-15.145,15.145,15.145,0,0,1,15.145,15.145Zm0,0" transform="translate(-178.454 -276.157)" fill="#fedb41"/>
  <path id="Path_1754" data-name="Path 1754" d="M99.6,529.936l-.043,1.584-8.894-.244.536-19.52,8.9.244-.106,3.862Zm0,0" transform="translate(-89.336 -464.875)" fill="#5ec3b7"/>
  <path id="Path_1755" data-name="Path 1755" d="M272.961,341.385a1.08,1.08,0,0,0-.382-.014,2.533,2.533,0,0,1-2.257-2.528,1.122,1.122,0,1,0-2.243,0,4.769,4.769,0,0,0,3.527,4.621v1.121a1.122,1.122,0,0,0,2.243,0v-1.054a4.791,4.791,0,0,0-.981-9.479,2.546,2.546,0,1,1,2.546-2.546,1.122,1.122,0,0,0,2.243,0,4.8,4.8,0,0,0-3.808-4.688V325.8a1.122,1.122,0,0,0-2.243,0v1.09a4.789,4.789,0,0,0,1.262,9.409,2.546,2.546,0,0,1,.093,5.09Zm0,0" transform="translate(-241.837 -304.063)" fill="#083863"/>
  <g id="Group_1053" data-name="Group 1053">
    <g id="Group_1052" data-name="Group 1052" transform="translate(0 0)" clip-path="url(#clip-path)">
      <path id="Path_1756" data-name="Path 1756" d="M186.352,300.488a16.266,16.266,0,1,0,16.266-16.266,16.266,16.266,0,0,0-16.266,16.266Zm16.266-14.023A14.023,14.023,0,1,1,188.6,300.488a14.023,14.023,0,0,1,14.023-14.023Zm0,0" transform="translate(-171.588 -269.291)" fill="#083863"/>
      <path id="Path_1757" data-name="Path 1757" d="M135.3,508.234l-8.784,4.15a7.175,7.175,0,0,0-6.1-3.762L112.3,508.4a8.569,8.569,0,0,1-3.686-.952l-.826-.427a14.557,14.557,0,0,0-13.485.014l.052-1.871a1.121,1.121,0,0,0-1.09-1.152l-8.9-.244a1.12,1.12,0,0,0-1.152,1.091l-.536,19.519a1.121,1.121,0,0,0,1.09,1.152l8.894.244h.031a1.122,1.122,0,0,0,1.121-1.091l.026-.933,2.311-1.237a3.97,3.97,0,0,1,2.959-.324l13.8,3.873c.024.007.048.013.072.018a14.953,14.953,0,0,0,9.284-1.051,1.189,1.189,0,0,0,.139-.077l20.007-12.942a1.121,1.121,0,0,0,.368-1.494,5.667,5.667,0,0,0-7.482-2.28Zm-43.668,14.8-.02.463-6.654-.183.473-17.276,6.658.182Zm29.626-.013a12.709,12.709,0,0,1-7.777.867l-13.762-3.863a6.2,6.2,0,0,0-4.623.506l-1.182.632.317-11.488a12.328,12.328,0,0,1,12.525-.668l.826.427a10.815,10.815,0,0,0,4.656,1.2l8.112.224a4.921,4.921,0,0,1,4.533,3.379,4.985,4.985,0,0,1,.144.54l-12.084-.334a1.122,1.122,0,1,0-.061,2.243l13.333.367h.031a1.122,1.122,0,0,0,1.122-1.091,7.194,7.194,0,0,0-.109-1.455l9.013-4.258.026-.013a3.426,3.426,0,0,1,3.875.542Zm0,0" transform="translate(-82.471 -458.006)" fill="#083863"/>
    </g>
  </g>
  <path id="Path_1758" data-name="Path 1758" d="M296.446,189.668V179.012a1.122,1.122,0,0,0-2.243,0v10.656a1.122,1.122,0,0,0,2.243,0Zm0,0" transform="translate(-264.294 -177.89)" fill="#083863"/>
  <path id="Path_1759" data-name="Path 1759" d="M356.356,224v-5.047a1.122,1.122,0,1,0-2.243,0V224a1.122,1.122,0,0,0,2.243,0Zm0,0" transform="translate(-315.792 -212.222)" fill="#083863"/>
  <path id="Path_1760" data-name="Path 1760" d="M236.532,224v-5.047a1.122,1.122,0,1,0-2.243,0V224a1.122,1.122,0,0,0,2.243,0Zm0,0" transform="translate(-212.793 -212.222)" fill="#083863"/>
</svg>
