<svg id="approverBag" xmlns="http://www.w3.org/2000/svg" width="33.86" height="33.86" viewBox="0 0 33.86 33.86">
  <path id="Path_1594" data-name="Path 1594" d="M-846.1,223.925h5.643v1.129a1.129,1.129,0,0,1-1.128,1.129h-3.386a1.129,1.129,0,0,1-1.129-1.129Zm0,0" transform="translate(849.491 -192.887)" fill="#825a2c"/>
  <path id="Path_1595" data-name="Path 1595" d="M-597.258,223.925v1.129a1.133,1.133,0,0,1-1.129,1.129h-3.386a1.132,1.132,0,0,1-1.128-1.129v-1.129Zm0,0" transform="translate(627.732 -192.887)" fill="#825a2c"/>
  <path id="Path_1596" data-name="Path 1596" d="M-758.017-116.034v-2.822a.564.564,0,0,0-.564-.564h-7.9a.564.564,0,0,0-.564.564v2.822H-769.3v-3.386a2.258,2.258,0,0,1,2.258-2.258h9.029a2.258,2.258,0,0,1,2.258,2.258v3.386Zm0,0" transform="translate(779.462 122.241)" fill="#91562d"/>
  <path id="Path_1597" data-name="Path 1597" d="M-875.847-57.677h28.217a2.253,2.253,0,0,1,2.258,2.258V-35.1a2.253,2.253,0,0,1-2.258,2.258h-28.217A2.253,2.253,0,0,1-878.1-35.1V-55.419a2.253,2.253,0,0,1,2.258-2.258Zm0,0" transform="translate(878.669 63.884)" fill="#825a2c"/>
  <path id="Path_1598" data-name="Path 1598" d="M-817.117,12.726V31.349H-820.5V12.726l.79,1.054a1.132,1.132,0,0,0,.9.448,1.132,1.132,0,0,0,.9-.448Zm0,0" transform="translate(826.146 -0.311)" fill="#ffdc00"/>
  <path id="Path_1599" data-name="Path 1599" d="M-609.3-55.126v-2.551h3.386v2.393Zm0,0" transform="translate(633.57 63.884)" fill="#ffeb3a"/>
  <path id="Path_1600" data-name="Path 1600" d="M-609.3,100.206v7.822h3.386V96.82Zm0,0" transform="translate(633.57 -76.989)" fill="#ffdc00"/>
  <path id="Path_1601" data-name="Path 1601" d="M-728.305-31.919a.57.57,0,0,0-.429-.164c-8.287.455-7.766.37-7.912.525l-9.424,9.424a3.386,3.386,0,0,0,0,4.786l3.194,3.194a3.386,3.386,0,0,0,4.786,0l9.424-9.424c.216-.2.073.266.514-7.731a.7.7,0,0,0-.152-.61Zm-2.2,3.8a1.129,1.129,0,0,1-1.6,0,1.129,1.129,0,0,1,0-1.6,1.128,1.128,0,0,1,1.6,0,1.13,1.13,0,0,1,.331.8,1.13,1.13,0,0,1-.331.8Zm0,0" transform="translate(759.18 40.547)" fill="#00bfa2"/>
  <path id="Path_1602" data-name="Path 1602" d="M-817.117-51.469l-.79,1.054a1.129,1.129,0,0,1-.9.452,1.129,1.129,0,0,1-.9-.452l-.79-1.054v-6.208h3.386Zm0,0" transform="translate(826.146 63.884)" fill="#ffeb3a"/>
  <path id="Path_1603" data-name="Path 1603" d="M-853.03-122.388a3.9,3.9,0,0,0-4.007-2.505,5.072,5.072,0,0,0-3.2,2.023v-2.384a2.825,2.825,0,0,0-2.822-2.822h-9.029a2.825,2.825,0,0,0-2.822,2.822v2.822h-6.772a2.825,2.825,0,0,0-2.822,2.822v20.316a2.825,2.825,0,0,0,2.822,2.822v.565a1.693,1.693,0,0,0,1.693,1.693h3.386a1.693,1.693,0,0,0,1.693-1.693v-.565h14.672v.565a1.693,1.693,0,0,0,1.693,1.693h3.386a1.693,1.693,0,0,0,1.693-1.693v-.565a2.825,2.825,0,0,0,2.822-2.822V-119.61a2.818,2.818,0,0,0-2.387-2.778ZM-881.681-97.6a1.693,1.693,0,0,1-1.693-1.693V-119.61a1.693,1.693,0,0,1,1.693-1.693h2.258v23.7Zm5.643,1.693a.564.564,0,0,1-.564.564h-3.386a.564.564,0,0,1-.564-.564v-.565h4.515Zm0-1.693H-878.3v-16.428a1.67,1.67,0,0,0,2.258,0Zm0-18.247-.677.9a.582.582,0,0,1-.452.215.582.582,0,0,1-.452-.215l-.677-.9V-121.3h2.258Zm21.938-4.326-2.186.106V-121.3h2.339a2.383,2.383,0,0,1-.153,1.129Zm-.211-2.257h-4.83c1.674-1.9,3.745-1.723,4.83,0Zm-5.361,1.129h2.257v1.288l-2.257.108Zm-14.108-3.95a1.693,1.693,0,0,1,1.693-1.693h9.029a1.693,1.693,0,0,1,1.693,1.693v2.822h-1.128v-2.258a1.129,1.129,0,0,0-1.129-1.128h-7.9a1.129,1.129,0,0,0-1.129,1.128v2.258h-1.128Zm10.158.564v2.258h-7.9v-2.258ZM-860.8-97.6h-14.108v-23.7H-860.8v1.45c-.79.038-1.185-.016-1.568.369l-9.424,9.424a3.957,3.957,0,0,0,0,5.587l3.193,3.193a3.95,3.95,0,0,0,2.793,1.157,3.95,3.95,0,0,0,2.793-1.157l2.212-2.214Zm-3.01-4.48a2.822,2.822,0,0,1-3.99,0l-3.193-3.192a2.826,2.826,0,0,1,0-3.991l9.424-9.424,6.875-.328a6.079,6.079,0,0,1-1.04,1.138,1.741,1.741,0,0,0-2.088.232,1.693,1.693,0,0,0,0,2.395,1.693,1.693,0,0,0,2.395,0,1.692,1.692,0,0,0,.4-1.743,7.632,7.632,0,0,0,.952-.97l-.308,6.458Zm7.581-13.967a.578.578,0,0,1-.8,0,.564.564,0,0,1,0-.8.564.564,0,0,1,.8,0,.564.564,0,0,1,0,.8Zm-3.442,11.424,2.257-2.257v9.28h-2.257Zm5.079,8.716a.564.564,0,0,1-.564.564h-3.386a.564.564,0,0,1-.564-.564v-.565h4.515Zm2.822-3.386a1.693,1.693,0,0,1-1.693,1.693h-2.822V-108.01l2.695-2.7a1.119,1.119,0,0,0,.331-.745l.361-7.539a1.131,1.131,0,0,0-.181-.669,3.993,3.993,0,0,0,.282-1.507,1.692,1.692,0,0,1,1.028,1.555Zm0,0" transform="translate(884.503 128.075)"/>
  <path id="Path_1604" data-name="Path 1604" d="M-681.918,38.244l.289-.289a.383.383,0,0,0,.1-.372.383.383,0,0,0-.274-.273.383.383,0,0,0-.372.1l-.289.29a2.447,2.447,0,0,0-3.23-.019,2.446,2.446,0,0,0,.019,3.23l-2.163,2.163a1.677,1.677,0,0,1-.021-2.144.383.383,0,0,0,.1-.372.383.383,0,0,0-.273-.273.383.383,0,0,0-.372.1,2.436,2.436,0,0,0,.018,3.231l-.289.289a.384.384,0,0,0-.083.417.383.383,0,0,0,.354.236c.191,0,.246-.088.56-.4a2.445,2.445,0,0,0,3.23.019,2.448,2.448,0,0,0-.019-3.23l2.163-2.163a1.676,1.676,0,0,1,.021,2.144.383.383,0,0,0-.1.37.383.383,0,0,0,.271.271.383.383,0,0,0,.37-.1,2.438,2.438,0,0,0-.018-3.231Zm-3.23,5.4a1.666,1.666,0,0,1-2.144-.022l2.122-2.122a1.666,1.666,0,0,1,.022,2.144Zm.022-3.271a1.665,1.665,0,0,1-.022-2.144A1.665,1.665,0,0,1-683,38.25Zm0,0" transform="translate(706.239 -22.523)"/>
</svg>
