<svg id="Approved" xmlns="http://www.w3.org/2000/svg" xmlns:xlink="http://www.w3.org/1999/xlink" width="51" height="59" viewBox="0 0 51 59">
  <defs>
    <clipPath id="clip-path">
      <rect id="Rectangle_1783" data-name="Rectangle 1783" width="51" height="59" fill="none"/>
    </clipPath>
  </defs>
  <g id="Group_1038" data-name="Group 1038">
    <g id="Group_1037" data-name="Group 1037" transform="translate(0 0)" clip-path="url(#clip-path)">
      <path id="Path_1663" data-name="Path 1663" d="M631.14,364.081v5.942H620.727v-5.942a5.2,5.2,0,0,1,5.19-5.206h.018a5.2,5.2,0,0,1,5.206,5.188Zm0,0" transform="translate(-582.536 -358.008)" fill="#c7c7c7"/>
      <path id="Path_1664" data-name="Path 1664" d="M549.67,578.762a11.592,11.592,0,0,1,9.47-5.027h.093a11.61,11.61,0,1,1-9.564,5.028Zm0,0" transform="translate(-520.95 -539.018)" fill="#00bfa2"/>
    </g>
  </g>
  <path id="Path_1665" data-name="Path 1665" d="M410.968,397.752a11.619,11.619,0,0,0-.8,11.818c-11.089,0-27.183,0-27.183,0l.248-45.8a4.92,4.92,0,0,1,4.958-4.9h37.438a5.2,5.2,0,0,0-5.19,5.206v28.644a11.592,11.592,0,0,0-9.47,5.027Zm-.948-23.627a8.418,8.418,0,1,0-2.465,5.954,8.42,8.42,0,0,0,2.465-5.954Zm0,0" transform="translate(-382.247 -358.008)" fill="#e5e5e5"/>
  <path id="Path_1666" data-name="Path 1666" d="M456.138,402.238a8.42,8.42,0,1,1-8.419,8.419,8.42,8.42,0,0,1,8.419-8.419Zm0,0" transform="translate(-436.784 -394.54)" fill="#fedb41"/>
  <path id="Path_1667" data-name="Path 1667" d="M452.346,416a9.128,9.128,0,1,0-9.128-9.129A9.127,9.127,0,0,0,452.346,416Zm0-16.839a7.71,7.71,0,1,1-7.71,7.71,7.711,7.711,0,0,1,7.71-7.71Zm0,0" transform="translate(-432.993 -390.749)" fill="#083863"/>
  <path id="Path_1668" data-name="Path 1668" d="M485.705,427.656a1.473,1.473,0,0,1-1.471-1.471.709.709,0,1,0-1.418,0A2.893,2.893,0,0,0,485.051,429v.686a.709.709,0,0,0,1.418,0v-.713a2.889,2.889,0,0,0-.763-5.676,1.471,1.471,0,1,1,1.471-1.471.709.709,0,0,0,1.418,0,2.893,2.893,0,0,0-2.362-2.84v-.525a.709.709,0,1,0-1.418,0v.617a2.889,2.889,0,0,0,.891,5.637,1.471,1.471,0,0,1,0,2.943Zm0,0" transform="translate(-466.352 -407.608)" fill="#083863"/>
  <g id="Group_1040" data-name="Group 1040">
    <g id="Group_1039" data-name="Group 1039" transform="translate(0 0)" clip-path="url(#clip-path)">
      <path id="Path_1669" data-name="Path 1669" d="M409.193,542.918h28a.709.709,0,1,0,0-1.418h-28a.709.709,0,1,0,0,1.418Zm0,0" transform="translate(-403.73 -511.862)" fill="#083863"/>
      <path id="Path_1670" data-name="Path 1670" d="M417.36,388.555V367.274h9.7a.715.715,0,0,0,.7-.727v-5.961a5.849,5.849,0,0,0-5.893-5.837H384.4a5.617,5.617,0,0,0-5.667,5.572l-.248,45.781a.7.7,0,0,0,.206.5.705.705,0,0,0,.5.206h26.756a12.321,12.321,0,1,0,11.411-18.25Zm4.5-32.388h.007a4.43,4.43,0,0,1,4.476,4.42v5.268h-8.98V360.6a4.44,4.44,0,0,1,4.477-4.437Zm-41.706,4.158a4.2,4.2,0,0,1,4.249-4.158h33.613a5.739,5.739,0,0,0-2.07,4.438v27.962a12.18,12.18,0,0,0-3.368.73.688.688,0,0,0-.653-.4h-28a.709.709,0,1,0,0,1.418h26.551a11.423,11.423,0,0,0-3.659,3.308H383.919a.709.709,0,1,0,0,1.418h21.992a10.834,10.834,0,0,0-1.22,3.308H383.919a.709.709,0,1,0,0,1.418h20.557c-.036.354-.055.734-.055,1.119a12.12,12.12,0,0,0,.858,4.513c-9.6,0-22.263.006-25.375.005Zm36.591,51.435a10.9,10.9,0,0,1-9.009-17.036.783.783,0,0,0,.059-.086,10.912,10.912,0,0,1,8.862-4.68.137.137,0,0,0,.023,0h.065a10.9,10.9,0,1,1,0,21.8Zm0,0" transform="translate(-378.456 -354.532)" fill="#083863"/>
    </g>
  </g>
  <path id="Path_1671" data-name="Path 1671" d="M599.4,626.678l-4.681,4.681-2.4-2.427a.709.709,0,0,0-1.007,1l2.906,2.923a.7.7,0,0,0,.5.2h0a.7.7,0,0,0,.5-.2l5.185-5.18a.707.707,0,0,0-1-1Zm0,0" transform="translate(-557.567 -583.445)" fill="#083863"/>
</svg>
