<svg id="approvalPanel" xmlns="http://www.w3.org/2000/svg" width="53" height="54.927" viewBox="0 0 53 54.927">
  <rect id="Rectangle_1789" data-name="Rectangle 1789" width="14.455" height="14.455" transform="translate(0.964 0.964)" fill="#00bfa2"/>
  <path id="Path_1690" data-name="Path 1690" d="M177.551,175.1H163.1a.964.964,0,0,1-.964-.964V159.684a.964.964,0,0,1,.964-.964h14.454a.964.964,0,0,1,.964.964v14.455A.964.964,0,0,1,177.551,175.1Zm-13.491-1.927h12.527V160.647H164.06Z" transform="translate(-162.133 -158.72)"/>
  <path id="Path_1691" data-name="Path 1691" d="M182.091,181.042a.963.963,0,0,1-.681-.282l-1.927-1.927a.964.964,0,1,1,1.363-1.363l.921.92,2.331-5.436a.963.963,0,1,1,1.771.758l-2.891,6.745a.965.965,0,0,1-.7.568A1.018,1.018,0,0,1,182.091,181.042Z" transform="translate(-174.382 -168.515)"/>
  <rect id="Rectangle_1790" data-name="Rectangle 1790" width="14.455" height="14.455" transform="translate(0.964 20.236)" fill="#00bfa2"/>
  <path id="Path_1692" data-name="Path 1692" d="M177.551,243.369H163.1a.964.964,0,0,1-.964-.964V227.951a.964.964,0,0,1,.964-.964h14.454a.964.964,0,0,1,.964.964v14.455A.964.964,0,0,1,177.551,243.369Zm-13.491-1.927h12.527V228.914H164.06Z" transform="translate(-162.133 -207.714)"/>
  <path id="Path_1693" data-name="Path 1693" d="M182.091,249.308a.963.963,0,0,1-.681-.282l-1.927-1.927a.963.963,0,1,1,1.363-1.362l.921.92,2.331-5.437a.963.963,0,1,1,1.771.758l-2.891,6.746a.964.964,0,0,1-.7.567A.994.994,0,0,1,182.091,249.308Z" transform="translate(-174.382 -217.508)"/>
  <rect id="Rectangle_1791" data-name="Rectangle 1791" width="14.455" height="14.455" transform="translate(0.964 39.509)" fill="#ddd"/>
  <path id="Path_1694" data-name="Path 1694" d="M177.551,311.635H163.1a.964.964,0,0,1-.964-.964V296.217a.964.964,0,0,1,.964-.964h14.454a.964.964,0,0,1,.964.964v14.454A.964.964,0,0,1,177.551,311.635Zm-13.491-1.927h12.527V297.18H164.06Z" transform="translate(-162.133 -256.708)"/>
  <path id="Path_1695" data-name="Path 1695" d="M263.686,164.06H234.777a.964.964,0,1,1,0-1.927h28.909a.964.964,0,0,1,0,1.927Z" transform="translate(-213.577 -161.169)"/>
  <path id="Path_1696" data-name="Path 1696" d="M254.049,187.954H234.777a.964.964,0,1,1,0-1.927h19.273a.964.964,0,1,1,0,1.927Z" transform="translate(-213.577 -178.318)"/>
  <path id="Path_1697" data-name="Path 1697" d="M253.086,232.327H234.777a.964.964,0,1,1,0-1.927h18.309a.964.964,0,0,1,0,1.927Z" transform="translate(-213.577 -210.164)"/>
  <path id="Path_1698" data-name="Path 1698" d="M265.613,256.22H234.777a.964.964,0,1,1,0-1.927h30.836a.964.964,0,1,1,0,1.927Z" transform="translate(-213.577 -227.311)"/>
  <path id="Path_1699" data-name="Path 1699" d="M261.758,300.594H257.9a.964.964,0,1,1,0-1.927h3.854a.964.964,0,0,1,0,1.927Zm-7.709,0h-3.854a.964.964,0,0,1,0-1.927h3.854a.964.964,0,1,1,0,1.927Zm-7.709,0h-3.855a.964.964,0,0,1,0-1.927h3.855a.964.964,0,0,1,0,1.927Zm-7.709,0h-3.854a.964.964,0,1,1,0-1.927h3.854a.964.964,0,0,1,0,1.927Z" transform="translate(-213.577 -259.158)"/>
  <path id="Path_1700" data-name="Path 1700" d="M252.122,324.487h-1.927a.964.964,0,0,1,0-1.927h1.927a.964.964,0,0,1,0,1.927Zm-5.782,0h-3.855a.964.964,0,0,1,0-1.927h3.855a.964.964,0,0,1,0,1.927Zm-7.709,0h-3.854a.964.964,0,1,1,0-1.927h3.854a.964.964,0,0,1,0,1.927Z" transform="translate(-213.577 -276.306)"/>
</svg>
