<svg id="bullhorn" xmlns="http://www.w3.org/2000/svg" width="18.699" height="16.622" viewBox="0 0 18.699 16.622">
  <path id="bullhorn-2" data-name="bullhorn" d="M18.7,7.791A2.068,2.068,0,0,0,17.661,6V1.039A1.049,1.049,0,0,0,16.622,0a1.036,1.036,0,0,0-.649.228l-2.76,2.209a7.88,7.88,0,0,1-4.9,1.719H2.078A2.078,2.078,0,0,0,0,6.233V9.35a2.078,2.078,0,0,0,2.078,2.078H3.172A7.889,7.889,0,0,0,3.1,12.466a8.224,8.224,0,0,0,.83,3.6,1.019,1.019,0,0,0,.922.554H7.264a1.032,1.032,0,0,0,.841-1.641,4.134,4.134,0,0,1-.849-2.514A3.929,3.929,0,0,1,7.4,11.427h.912a7.878,7.878,0,0,1,4.9,1.719l2.76,2.209a1.038,1.038,0,0,0,1.687-.811V9.581A2.069,2.069,0,0,0,18.7,7.791Zm-3.117,4.591-1.073-.858a9.96,9.96,0,0,0-6.2-2.174V6.233a9.96,9.96,0,0,0,6.2-2.174L15.583,3.2Z" fill="#172b4d"/>
</svg>
