<svg xmlns="http://www.w3.org/2000/svg" width="21" height="21" viewBox="0 0 21 21">
  <defs>
    <style>
      .cls-1 {
        fill: #181818;
      }
    </style>
  </defs>
  <path id="iconmonstr-calendar-4" class="cls-1" d="M17.5,17.5H14V14h3.5ZM12.25,8.75H8.75v3.5h3.5Zm5.25,0H14v3.5h3.5ZM7,14H3.5v3.5H7Zm5.25,0H8.75v3.5h3.5ZM7,8.75H3.5v3.5H7Zm14-7V21H0V1.75H2.625v.875a1.75,1.75,0,1,0,3.5,0V1.75h8.75v.875a1.75,1.75,0,1,0,3.5,0V1.75ZM19.25,7H1.75V19.25h17.5ZM17.5.875a.875.875,0,0,0-1.75,0v1.75a.875.875,0,0,0,1.75,0ZM5.25,2.625a.875.875,0,1,1-1.75,0V.875a.875.875,0,1,1,1.75,0Z"/>
</svg>
