<svg id="contact" xmlns="http://www.w3.org/2000/svg" width="19.809" height="15.407" viewBox="0 0 19.809 15.407">
  <path id="Path_1499" data-name="Path 1499" d="M18.158,120H1.651A1.651,1.651,0,0,0,0,121.651v12.105a1.651,1.651,0,0,0,1.651,1.651H18.158a1.651,1.651,0,0,0,1.651-1.651V121.651A1.651,1.651,0,0,0,18.158,120Zm0,13.756H1.651V121.651H18.158Zm-11-6.053a2.2,2.2,0,1,0-2.2-2.2A2.2,2.2,0,0,0,7.153,127.7Zm-3.081,4.4h6.163a.721.721,0,0,0,.77-.66v-.66A2.166,2.166,0,0,0,8.694,128.8a8.3,8.3,0,0,1-1.541.275,8.182,8.182,0,0,1-1.541-.275A2.166,2.166,0,0,0,3.3,130.785v.66A.721.721,0,0,0,4.072,132.105Zm8.309-2.2h3.852a.276.276,0,0,0,.275-.275v-.55a.276.276,0,0,0-.275-.275H12.38a.276.276,0,0,0-.275.275v.55A.276.276,0,0,0,12.38,129.9Zm0-2.2h3.852a.276.276,0,0,0,.275-.275v-.55a.276.276,0,0,0-.275-.275H12.38a.276.276,0,0,0-.275.275v.55A.276.276,0,0,0,12.38,127.7Zm0-2.2h3.852a.276.276,0,0,0,.275-.275v-.55a.276.276,0,0,0-.275-.275H12.38a.276.276,0,0,0-.275.275v.55A.276.276,0,0,0,12.38,125.5Z" transform="translate(0 -120)" fill="#fff"/>
</svg>
