<svg id="daimler" xmlns="http://www.w3.org/2000/svg" width="268.436" height="34" viewBox="0 0 268.436 34">
  <path id="Path_1605" data-name="Path 1605" d="M11.352,109.465H9.033c-.338-2.075-.145-2.51,6.81-2.51h9.8c13.91,0,19.947,6.279,19.947,16.613,0,9.951-5.7,16.613-19.513,16.613H7.921a4.112,4.112,0,0,1,0-1.882c5.17-.29,6.085-.628,6.085-3.863v-22.8C14.007,109.757,13.523,109.465,11.352,109.465Zm27.77,15.022c0-9.272-4.829-14.683-14.1-14.683H20.044v24.3c0,2.945,1.063,3.425,5.554,3.425C33.857,137.524,39.121,134.872,39.121,124.487Z" transform="translate(-7.813 -106.955)" fill="#4a6480"/>
  <path id="Path_1606" data-name="Path 1606" d="M44.052,107.08a12.246,12.246,0,0,0,1.256,3.576l11.156,25.453c.534,1.259,1.063,1.691,3.525,1.691H61.1c.29,1.4,0,2.172-1.256,2.172H44.2a4.039,4.039,0,0,1,0-1.882c5.264-.148,5.8-.583,5.264-1.833l-3.044-7.293H33.958l-1.981,5.264c-1.109,2.848-1.109,3.573,1.546,3.573h4.153c.338,1.4,0,2.172-1.205,2.172H22.657a4.112,4.112,0,0,1,0-1.882c3.718-.483,4.153-.776,5.457-3.863l9.562-22.653c1.595-3.718,2.223-4.494,4.494-4.494Zm1.256,19.225-5.264-12.557-5.022,12.557Z" transform="translate(17.008 -106.744)" fill="#4a6480"/>
  <path id="Path_1607" data-name="Path 1607" d="M54.018,107.315a4.124,4.124,0,0,1,0,1.882c-4.2.29-4.832,1.208-4.832,3.237v22.941c0,1.691.486,2.029,2.513,2.029h2.607c.341,1.4.2,2.172-1.254,2.172H38.368a3.158,3.158,0,0,1,0-1.882c3.863-.628,4.781-1.111,4.781-3.092V111.516c0-1.739-.435-2.029-2.655-2.029H38.177c-.293-1.254,0-2.172,2.027-2.172Z" transform="translate(43.171 -106.349)" fill="#4a6480"/>
  <path id="Path_1608" data-name="Path 1608" d="M95.843,107.315a3.085,3.085,0,0,1,0,1.882c-4.488.29-4.781,1.063-4.633,2.464l2.317,23.569c.145,1.546.918,1.688,4.639,2.174.142,1.4,0,2.172-1.353,2.172H79.761a3.168,3.168,0,0,1,0-1.882l2.612-.148c4.056-.239,4.732-.77,4.488-3.135L84.69,113.352,73.1,137.694c-.87,1.739-1.256,2.027-2.368,2.027L57.4,113.352l-1.546,21.684c-.145,1.882-.145,2.368,4.977,2.368h2.607c.338,1.4.145,2.172-1.208,2.172H46.389a4.125,4.125,0,0,1,0-1.882c5.312-.29,5.747-1.256,5.892-3.283l1.978-22.7c.145-1.546-.142-2.078-4.926-2.223-.29-1.109,0-2.172,2.029-2.172h9.755l12.125,23.23L84.4,107.315Z" transform="translate(56.981 -106.349)" fill="#4a6480"/>
  <path id="Path_1609" data-name="Path 1609" d="M85.915,107.315a4.051,4.051,0,0,1,0,1.882c-5.071.29-6.034.725-6.034,3.863v21.351c0,1.589.821,2.027,2.174,2.027h3.09c3.576,0,4.056-.242,6.085-4.59l1.353-2.993c1.4-.046,2.123.532,1.592,2.029a68.155,68.155,0,0,0-2.51,8.692H68.094a4.985,4.985,0,0,1,0-1.882c4.687-.29,5.75-.918,5.75-4.059V111.516c0-1.739-.628-2.029-2.658-2.029H68.869c-.29-1.254,0-2.172,2.027-2.172Z" transform="translate(93.57 -106.349)" fill="#4a6480"/>
  <path id="Path_1610" data-name="Path 1610" d="M105.853,107.315c.142,2.172.429,4.443.77,6.52.242,1.5-.341,2.317-1.882,2.172l-.628-2.172c-.824-2.947-1.836-3.721-4.494-3.721H91.895V122.53h5.071c1.45,0,1.737-.486,1.884-1.742l.338-2.462h.577c.966,0,1.5.338,1.4,1.833-.148,3.044-.148,6.378,0,9.519a2.29,2.29,0,0,1-1.688,0c-.628-3.769-1.259-4.2-2.513-4.2H91.895v8.5c0,1.739.432,2.464,3.72,2.464h4.15c3.576,0,4.059-.242,6.088-4.59l1.35-2.993c1.4-.046,2.078.58,1.594,2.029a69.682,69.682,0,0,0-2.515,8.692H79.627a3.085,3.085,0,0,1,0-1.882c5.119-.29,6.037-.628,6.037-3.863V111.516c0-1.739-.437-2.029-2.609-2.029H80.739c-.2-1.254,0-2.172,2.126-2.172Z" transform="translate(112.901 -106.349)" fill="#4a6480"/>
  <path id="Path_1611" data-name="Path 1611" d="M95.381,109.7H93.064c-.341-1.254,0-2.172,1.976-2.317,2.322-.193,5.221-.193,11.98-.193,9.272,0,14.394,4.4,14.394,11.011,0,4.056-2.513,7.342-6.52,9.033,0,0,3.624,3.331,5.457,4.826,6.375,5.124,8.5,5.557,12.7,5.557.438,1.691-.773,2.945-5.892,2.945A14.871,14.871,0,0,1,116.15,136.5a22.14,22.14,0,0,1-4.588-5.557c-1.208-2.169-1.307-2.317-4.252-2.317h-3.235v7.1c0,1.4.435,1.884,2.945,1.884h2.464c.142,1.4,0,2.172-1.4,2.172H92.871a4.87,4.87,0,0,1,0-1.882c4.2-.29,5.17-.776,5.17-3.721V111.873C98.041,109.989,97.362,109.7,95.381,109.7Zm11.011,16.133c4.781,0,8.646-.773,8.646-7.293s-3.865-8.55-9.32-8.55h-1.643v15.843Z" transform="translate(135.3 -106.561)" fill="#4a6480"/>
</svg>
