<svg id="documents" xmlns="http://www.w3.org/2000/svg" width="14.64" height="19.52" viewBox="0 0 14.64 19.52">
  <path id="Path_1498" data-name="Path 1498" d="M143.54,5.185V0h-7.625A.913.913,0,0,0,135,.915V18.6a.913.913,0,0,0,.915.915h12.81a.913.913,0,0,0,.915-.915V6.1h-5.185A.918.918,0,0,1,143.54,5.185Zm2.44,9a.459.459,0,0,1-.458.457h-6.4a.459.459,0,0,1-.457-.457v-.3a.459.459,0,0,1,.457-.458h6.4a.459.459,0,0,1,.458.458Zm0-2.44a.459.459,0,0,1-.458.457h-6.4a.459.459,0,0,1-.457-.457v-.3a.459.459,0,0,1,.457-.458h6.4a.459.459,0,0,1,.458.458Zm0-2.745V9.3a.459.459,0,0,1-.458.457h-6.4a.459.459,0,0,1-.457-.457V9a.459.459,0,0,1,.457-.458h6.4A.459.459,0,0,1,145.98,9Zm3.66-4.35V4.88h-4.88V0h.233a.914.914,0,0,1,.648.267L149.373,4A.912.912,0,0,1,149.64,4.647Z" transform="translate(-135)" fill="#fff"/>
</svg>
