<svg id="Draft" xmlns="http://www.w3.org/2000/svg" xmlns:xlink="http://www.w3.org/1999/xlink" width="54.8" height="54.8" viewBox="0 0 54.8 54.8">
  <defs>
    <clipPath id="clip-path">
      <rect id="Rectangle_1778" data-name="Rectangle 1778" width="54.8" height="54.8" fill="none"/>
    </clipPath>
  </defs>
  <path id="Path_1648" data-name="Path 1648" d="M105.55,78.261v34.107a3.653,3.653,0,0,1-3.653,3.653H67.19a3.653,3.653,0,0,1-3.653-3.653V66.7a3.653,3.653,0,0,1,3.653-3.653H90.337a3.659,3.659,0,0,1,2.583,1.069l11.561,11.561a3.661,3.661,0,0,1,1.069,2.583Zm0,0" transform="translate(-62.624 -62.135)" fill="#e5e5e5"/>
  <path id="Path_1649" data-name="Path 1649" d="M152.444,77.3h-9.718a3.654,3.654,0,0,1-3.653-3.653V63.925a3.643,3.643,0,0,1,1.07.741L151.7,76.227a3.643,3.643,0,0,1,.741,1.07Zm0,0" transform="translate(-109.846 -62.683)" fill="#c7c7c7"/>
  <path id="Path_1650" data-name="Path 1650" d="M143.947,168.734v-8.22l6.393,3.653Zm0,0" transform="translate(-112.894 -123.067)" fill="#f5c99d"/>
  <path id="Path_1651" data-name="Path 1651" d="M166.78,83.757l-2.93,5.372L161.9,92.711,150.34,113.9l-2.31-1.321-1.587-.907-2.5-1.426L155.5,89.057l1.954-3.581,2.93-5.372Zm0,0" transform="translate(-112.894 -72.797)" fill="#f6bb00"/>
  <path id="Path_1652" data-name="Path 1652" d="M183.126,98.089l-1.953,3.581-6.393-3.653,1.954-3.581Zm0,0" transform="translate(-132.169 -81.757)" fill="#f57271"/>
  <path id="Path_1653" data-name="Path 1653" d="M189.314,83.757l-2.93,5.372-6.393-3.653,2.93-5.372Zm0,0" transform="translate(-135.427 -72.797)" fill="#f2f3f4"/>
  <rect id="Rectangle_1766" data-name="Rectangle 1766" width="9.133" height="1.827" transform="translate(15.527 8.22)" fill="#1e1e1e"/>
  <rect id="Rectangle_1767" data-name="Rectangle 1767" width="1.827" height="1.827" transform="translate(10.96 8.22)" fill="#1e1e1e"/>
  <rect id="Rectangle_1768" data-name="Rectangle 1768" width="10.047" height="1.827" transform="translate(14.613 13.7)" fill="#1e1e1e"/>
  <rect id="Rectangle_1769" data-name="Rectangle 1769" width="5.48" height="1.827" transform="translate(6.393 13.7)" fill="#1e1e1e"/>
  <rect id="Rectangle_1770" data-name="Rectangle 1770" width="13.7" height="1.827" transform="translate(21.92 19.18)" fill="#1e1e1e"/>
  <rect id="Rectangle_1771" data-name="Rectangle 1771" width="7.307" height="1.827" transform="translate(11.873 19.18)" fill="#1e1e1e"/>
  <rect id="Rectangle_1772" data-name="Rectangle 1772" width="3.653" height="1.827" transform="translate(6.393 19.18)" fill="#1e1e1e"/>
  <rect id="Rectangle_1773" data-name="Rectangle 1773" width="12.787" height="1.827" transform="translate(19.18 25.573)" fill="#1e1e1e"/>
  <rect id="Rectangle_1774" data-name="Rectangle 1774" width="10.047" height="1.827" transform="translate(6.393 25.573)" fill="#1e1e1e"/>
  <rect id="Rectangle_1775" data-name="Rectangle 1775" width="10.96" height="1.827" transform="translate(16.44 31.967)" fill="#1e1e1e"/>
  <rect id="Rectangle_1776" data-name="Rectangle 1776" width="7.307" height="1.827" transform="translate(6.393 31.967)" fill="#1e1e1e"/>
  <g id="Group_1029" data-name="Group 1029">
    <g id="Group_1028" data-name="Group 1028" transform="translate(0 0)" clip-path="url(#clip-path)">
      <rect id="Rectangle_1777" data-name="Rectangle 1777" width="4.567" height="1.827" transform="translate(6.393 38.36)" fill="#1e1e1e"/>
      <path id="Path_1654" data-name="Path 1654" d="M126.1,81.441l-6.393-3.653a.914.914,0,0,0-1.255.356l-16.44,30.14h0a.925.925,0,0,0-.112.437v7.307H78.157v1.827h24.66a.915.915,0,0,0,.531-.17l6.393-4.567a.911.911,0,0,0,.27-.307h0l16.44-30.14a.914.914,0,0,0-.349-1.231Zm-17.248,29.678-1.521-.869,10.6-19.628,1.6.914Zm-4.807-2.747,10.682-19.583,1.621.926-10.6,19.628ZM115.6,87.185l1.078-1.977,4.807,2.747-1.078,1.977ZM103.73,115.166v-4.871l3.789,2.165Zm18.634-28.815L117.557,83.6l2.055-3.767,4.807,2.747Zm0,0" transform="translate(-71.764 -71.274)" fill="#1e1e1e"/>
    </g>
  </g>
  <rect id="Rectangle_1779" data-name="Rectangle 1779" width="7.307" height="1.827" transform="translate(13.7 38.36)" fill="#1e1e1e"/>
  <g id="Group_1031" data-name="Group 1031">
    <g id="Group_1030" data-name="Group 1030" transform="translate(0 0)" clip-path="url(#clip-path)">
      <rect id="Rectangle_1780" data-name="Rectangle 1780" width="3.653" height="1.827" transform="translate(23.747 38.36)" fill="#1e1e1e"/>
      <path id="Path_1655" data-name="Path 1655" d="M103.113,110.844a2.743,2.743,0,0,1-2.74,2.74H65.667a2.743,2.743,0,0,1-2.74-2.74V65.178a2.743,2.743,0,0,1,2.74-2.74H88.813a2.739,2.739,0,0,1,.6.067v9.067a4.572,4.572,0,0,0,4.567,4.567h2.74V74.311H93.98a2.743,2.743,0,0,1-2.74-2.74V63.729l9.421,9.421,1.291-1.292-9.909-9.909a4.535,4.535,0,0,0-3.229-1.338H65.667A4.572,4.572,0,0,0,61.1,65.178v45.667a4.572,4.572,0,0,0,4.567,4.567h34.707a4.572,4.572,0,0,0,4.567-4.567V99.884h-1.827Zm0,0" transform="translate(-61.1 -60.611)" fill="#1e1e1e"/>
    </g>
  </g>
</svg>
