<svg id="edit" xmlns="http://www.w3.org/2000/svg" width="17.354" height="15.422" viewBox="0 0 17.354 15.422">
  <path id="edit-2" data-name="edit" d="M12.129,2.6l2.718,2.718a.3.3,0,0,1,0,.416l-6.58,6.58-2.8.31a.586.586,0,0,1-.648-.648l.31-2.8,6.58-6.58a.3.3,0,0,1,.416,0Zm4.881-.69L15.54.443a1.178,1.178,0,0,0-1.663,0L12.81,1.51a.3.3,0,0,0,0,.416l2.718,2.718a.3.3,0,0,0,.416,0L17.01,3.577a1.178,1.178,0,0,0,0-1.663Zm-5.441,8.614v3.067H1.928V3.953H8.852a.37.37,0,0,0,.256-.105l1.205-1.205a.362.362,0,0,0-.256-.618H1.446A1.447,1.447,0,0,0,0,3.471V14.076a1.447,1.447,0,0,0,1.446,1.446H12.051A1.447,1.447,0,0,0,13.5,14.076V9.322a.362.362,0,0,0-.618-.256l-1.205,1.205A.37.37,0,0,0,11.569,10.527Z" transform="translate(0 -0.1)" fill="#0670b4"/>
</svg>
