<svg id="Component_41_1" data-name="Component 41 – 1" xmlns="http://www.w3.org/2000/svg" width="15.221" height="20.294" viewBox="0 0 15.221 20.294">
  <path id="Path_1502" data-name="Path 1502" d="M143.879,5.391V0h-7.927A.949.949,0,0,0,135,.951V19.343a.949.949,0,0,0,.951.951h13.318a.949.949,0,0,0,.951-.951v-13H144.83A.954.954,0,0,1,143.879,5.391Z" transform="translate(-135)" fill="#fff"/>
  <path id="Path_1503" data-name="Path 1503" d="M680.073,4.832v.242H675V0h.242a.95.95,0,0,1,.674.277l3.88,3.884A.948.948,0,0,1,680.073,4.832Z" transform="translate(-664.853)" fill="#fff"/>
</svg>
