<svg id="ep-account" xmlns="http://www.w3.org/2000/svg" xmlns:xlink="http://www.w3.org/1999/xlink" width="63" height="63" viewBox="0 0 63 63">
  <defs>
    <clipPath id="clip-path">
      <rect id="Rectangle_1747" data-name="Rectangle 1747" width="63" height="63" fill="none"/>
    </clipPath>
  </defs>
  <path id="Path_1593" data-name="Path 1593" d="M456,533.176v-19.8A9.378,9.378,0,0,1,465.378,504H475.8a9.378,9.378,0,0,1,9.378,9.378v19.8Zm0,0" transform="translate(-439.155 -478.992)" fill="#f6bb00"/>
  <path id="Path_1594" data-name="Path 1594" d="M514.42,464.336l.923-2.308A16.237,16.237,0,0,0,516.5,456H504a16.237,16.237,0,0,0,1.161,6.028l.923,2.308Zm0,0" transform="translate(-478.819 -439.328)" fill="#eda600"/>
  <path id="Path_1595" data-name="Path 1595" d="M426.367,394.185A30.218,30.218,0,0,0,366,396.216h0a30.218,30.218,0,0,0,60.435,0q0-1.026-.068-2.033ZM396.218,418.1a21.882,21.882,0,1,1,21.775-24.046q.107,1.079.106,2.165A21.883,21.883,0,0,1,396.218,418.1Zm0,0" transform="translate(-364.784 -364.958)" fill="#f4dd45"/>
  <path id="Path_1596" data-name="Path 1596" d="M426.435,525.126a30.218,30.218,0,1,1-60.435,0h0L370.168,522l4.168,3.126a21.882,21.882,0,0,0,43.763,0q0-1.085-.106-2.165l4.274,3.207,4.1-3.075q.068,1.008.068,2.033Zm0,0" transform="translate(-364.784 -493.866)" fill="#0670b4"/>
  <g id="Group_1004" data-name="Group 1004">
    <g id="Group_1003" data-name="Group 1003" transform="translate(0 0)" clip-path="url(#clip-path)">
      <path id="Path_1597" data-name="Path 1597" d="M516.647,549.378h2.084a1.563,1.563,0,1,1,0,3.126h-5.21v2.084h3.126v1.661h2.084v-1.661a3.647,3.647,0,0,0,0-7.294h-2.084a1.563,1.563,0,0,1,0-3.126h4.168v-2.084h-2.084V540h-2.084v2.084a3.647,3.647,0,0,0,0,7.294Zm0,0" transform="translate(-486.256 -508.74)"/>
      <path id="Path_1598" data-name="Path 1598" d="M391.255,360a31.268,31.268,0,1,0,22.1,9.156,31.259,31.259,0,0,0-22.1-9.156Zm-20.63,10.63a29.176,29.176,0,0,1,49.7,18.107L417.305,391l-3.289-2.467a22.923,22.923,0,0,0-45.595.71l-2.59-1.943a1.045,1.045,0,0,0-1.251,0l-2.423,1.817a28.96,28.96,0,0,1,8.468-18.488Zm16.506,11.684a15.107,15.107,0,0,1-1.051-4.6H396.43a15.109,15.109,0,0,1-1.051,4.6l-.661,1.653h-6.925Zm9.334,3.737a8.346,8.346,0,0,1,8.336,8.336v12.7a20.8,20.8,0,0,1-27.092,0v-12.7a8.346,8.346,0,0,1,8.336-8.336Zm.492-2.072.357-.891a17.19,17.19,0,0,0,1.235-6.415,1.042,1.042,0,0,0-1.042-1.042H385a1.042,1.042,0,0,0-1.042,1.042,17.2,17.2,0,0,0,1.235,6.415l.357.891a10.433,10.433,0,0,0-9.928,10.408v10.642a20.84,20.84,0,1,1,31.26,0V394.385a10.433,10.433,0,0,0-9.928-10.408Zm14.928,27.912a29.174,29.174,0,0,1-49.8-20.114l3.12-2.34,3.133,2.349a22.923,22.923,0,0,0,45.841-.526l2.5,1.876a1.044,1.044,0,0,0,1.251,0l2.5-1.876a28.985,28.985,0,0,1-8.546,20.63Zm0,0" transform="translate(-359.822 -359.999)"/>
    </g>
  </g>
</svg>
