<svg id="ep-employment" xmlns="http://www.w3.org/2000/svg" width="57.708" height="53.668" viewBox="0 0 57.708 53.668">
  <g id="Group_1021" data-name="Group 1021" transform="translate(7 588.973)">
    <rect id="Rectangle_1748" data-name="Rectangle 1748" width="55.399" height="34.763" transform="translate(-5.846 -571.222)" fill="#825a2c"/>
    <path id="Path_1627" data-name="Path 1627" d="M49.554-420.472h-55.4A1.154,1.154,0,0,1-7-421.626v-34.763a1.154,1.154,0,0,1,1.154-1.155h55.4a1.154,1.154,0,0,1,1.154,1.155v34.763a1.154,1.154,0,0,1-1.154,1.154ZM-4.692-422.78H48.4v-32.455H-4.692Zm0,0" transform="translate(0 -114.833)"/>
    <rect id="Rectangle_1749" data-name="Rectangle 1749" width="5.1" height="28.565" transform="translate(30.556 -565.024)" fill="#603912"/>
    <path id="Path_1628" data-name="Path 1628" d="M287.53-377.581h-5.1a1.154,1.154,0,0,1-1.154-1.154V-407.3a1.154,1.154,0,0,1,1.154-1.154h5.1a1.153,1.153,0,0,1,1.154,1.154v28.565a1.153,1.153,0,0,1-1.154,1.154Zm-3.945-2.308h2.791v-26.257h-2.791Zm0,0" transform="translate(-251.875 -157.724)"/>
    <rect id="Rectangle_1750" data-name="Rectangle 1750" width="5.099" height="28.565" transform="translate(8.052 -565.024)" fill="#603912"/>
    <path id="Path_1629" data-name="Path 1629" d="M109.315-377.581h-5.1a1.154,1.154,0,0,1-1.154-1.154V-407.3a1.154,1.154,0,0,1,1.154-1.154h5.1a1.153,1.153,0,0,1,1.154,1.154v28.565a1.154,1.154,0,0,1-1.154,1.154Zm-3.945-2.308h2.791v-26.257h-2.791Zm0,0" transform="translate(-96.164 -157.724)"/>
    <path id="Path_1630" data-name="Path 1630" d="M57.54-510.52v12.161a8.654,8.654,0,0,1-8.668,8.656H10.8a8.652,8.652,0,0,1-8.656-8.656V-510.52Zm0,0" transform="translate(-7.987 -68.546)" fill="#825a2c"/>
    <path id="Path_1631" data-name="Path 1631" d="M40.887-496.535H2.81A9.821,9.821,0,0,1-7-506.346v-12.16a1.154,1.154,0,0,1,1.154-1.155h55.4a1.154,1.154,0,0,1,1.154,1.155v12.16a9.827,9.827,0,0,1-9.821,9.81ZM-4.692-517.353v11.007a7.51,7.51,0,0,0,7.5,7.5H40.887a7.516,7.516,0,0,0,7.513-7.5v-11.007Zm0,0" transform="translate(0 -60.56)"/>
    <path id="Path_1632" data-name="Path 1632" d="M162-577.916H144.6a1.154,1.154,0,0,1-1.154-1.154v-6.339a3.567,3.567,0,0,1,3.564-3.564h12.585a3.567,3.567,0,0,1,3.564,3.564v6.339A1.154,1.154,0,0,1,162-577.916Zm-16.251-2.308h15.1v-5.185a1.257,1.257,0,0,0-1.256-1.255H147.009a1.257,1.257,0,0,0-1.256,1.255Zm0,0" transform="translate(-131.447)"/>
  </g>
</svg>
