<svg id="ep_employee" xmlns="http://www.w3.org/2000/svg" width="45.313" height="67.226" viewBox="0 0 45.313 67.226">
  <path id="Path_1563" data-name="Path 1563" d="M180.715,8a11.22,11.22,0,0,0-11.22,11.22v4.537a3.576,3.576,0,0,1,2.858-.934v-.559a.765.765,0,0,1,.819-.762,20.088,20.088,0,0,0,12.091-3.247.764.764,0,0,1,.977.119c2.854,3.068,2.836,2.949,2.836,3.349v1.1a3.394,3.394,0,0,1,2.858.836V19.22A11.22,11.22,0,0,0,180.715,8Z" transform="translate(-158.197 -6.95)" fill="#573a32"/>
  <path id="Path_1564" data-name="Path 1564" d="M318.486,117.495v6.17c0,.067,0,.133-.005.2a3.249,3.249,0,1,0,.005-6.37Z" transform="translate(-287.621 -102.03)" fill="#f0a479"/>
  <path id="Path_1565" data-name="Path 1565" d="M321.133,118.145a3.436,3.436,0,0,0-2.646-.65v6.17c0,.067,0,.133-.005.2a3.433,3.433,0,0,0,2.651-.65v-5.07Z" transform="translate(-287.621 -102.03)" fill="#ffc0a1"/>
  <path id="Path_1566" data-name="Path 1566" d="M165.66,123.729v-6.183a3.43,3.43,0,0,0-3.9,3.191,3.281,3.281,0,0,0,3.9,3.193C165.664,123.862,165.66,123.8,165.66,123.729Z" transform="translate(-151.479 -102.087)" fill="#f0a479"/>
  <path id="Path_1567" data-name="Path 1567" d="M165.66,123.3a3.2,3.2,0,0,1-1.272-2.563,3.114,3.114,0,0,1,1.272-2.463v-.728a3.43,3.43,0,0,0-3.9,3.191,3.281,3.281,0,0,0,3.9,3.193c0-.067,0-.133,0-.2Z" transform="translate(-151.479 -102.087)" fill="#ffc0a1"/>
  <path id="Path_1568" data-name="Path 1568" d="M224.705,214.838a8.655,8.655,0,0,1-4.708-1.33v4.6l4.688,5.787,4.688-5.787v-4.721A8.194,8.194,0,0,1,224.705,214.838Z" transform="translate(-202.068 -185.366)" fill="#ffc0a1"/>
  <path id="Path_1569" data-name="Path 1569" d="M129.455,251.142l-12.4-4.8-4.688,5.787-4.688-5.787-12.39,4.8a7.859,7.859,0,0,0-4.587,7.115v20.515a1.529,1.529,0,0,0,1.529,1.529h40.286a1.529,1.529,0,0,0,1.528-1.529V258.257A7.859,7.859,0,0,0,129.455,251.142Z" transform="translate(-89.747 -213.994)" fill="#e4eaf8"/>
  <path id="Path_1570" data-name="Path 1570" d="M205.151,82.393a.764.764,0,0,0-.977-.119,20.088,20.088,0,0,1-12.091,3.247.764.764,0,0,0-.819.762v6.7a8.363,8.363,0,0,0,16.724,0V85.742C207.987,85.342,208,85.46,205.151,82.393Z" transform="translate(-177.107 -71.363)" fill="#ffc0a1"/>
  <g id="Group_997" data-name="Group 997" transform="translate(13.457 32.345)">
    <path id="Path_1571" data-name="Path 1571" d="M261.365,255.1l3.506-7.026-4.478-1.734-4.688,5.787,4.571,3.246A.739.739,0,0,0,261.365,255.1Z" transform="translate(-246.544 -246.339)" fill="#d8dce5"/>
    <path id="Path_1572" data-name="Path 1572" d="M189.446,255.1l-3.506-7.026,4.478-1.734,4.688,5.787-4.571,3.246A.739.739,0,0,1,189.446,255.1Z" transform="translate(-185.94 -246.339)" fill="#d8dce5"/>
  </g>
  <path id="Path_1573" data-name="Path 1573" d="M228.918,343.922l-3.009-17.811H222.4l-3.009,17.811a.775.775,0,0,0,.179.621h0l4.154,4.578a.583.583,0,0,0,.863,0l4.154-4.578h0A.776.776,0,0,0,228.918,343.922Z" transform="translate(-201.532 -283.292)" fill="#ff5050"/>
  <g id="Group_998" data-name="Group 998" transform="translate(19.293 38.132)">
    <path id="Path_1574" data-name="Path 1574" d="M233.717,290.417v0l0,0,0,0v0l-3.324,2.361,1.572,2.365h3.512l1.572-2.365Z" transform="translate(-230.387 -290.414)" fill="#ed3a3a"/>
  </g>
  <path id="Path_1575" data-name="Path 1575" d="M126.79,55.454v9.259a.544.544,0,0,1-.544.544h-5.294V45.864a.985.985,0,0,0-1.97,0V65.256h-10.66l3.091-3.4a1.766,1.766,0,0,0,.426-1.416c0-.01,0-.02,0-.03l-2.944-17.393.793-1.194a2.234,2.234,0,0,0,1.41.611,1.725,1.725,0,0,0,1.543-.955h0l3.105-6.224L122.818,38a6.823,6.823,0,0,1,3.972,6.2V55.454ZM99.939,67.226h26.308a2.516,2.516,0,0,0,2.513-2.513V44.2a8.789,8.789,0,0,0-5.2-8.026l-.019-.007L111.77,31.6V28.843a9.226,9.226,0,0,0,3.492-6.07,4.264,4.264,0,0,0,2.5-1.022,4.181,4.181,0,0,0,.436-5.9V12.2a12.2,12.2,0,1,0-24.409,0v3.743a3.955,3.955,0,0,0-1.015,2.636,4.174,4.174,0,0,0,1.452,3.168,4.261,4.261,0,0,0,2.5,1.021,9.129,9.129,0,0,0,3.692,6.216V31.6L88.663,36.164l-.019.007a8.788,8.788,0,0,0-5.2,8.026V64.712a2.516,2.516,0,0,0,2.513,2.513H99.939Zm-4.6-1.97H93.224V45.864a.985.985,0,0,0-1.97,0V65.256H85.96a.544.544,0,0,1-.544-.544V44.2A6.823,6.823,0,0,1,89.388,38l7.068-2.74,3.106,6.224h0a1.725,1.725,0,0,0,1.544.955,2.231,2.231,0,0,0,1.41-.611l.793,1.194L100.364,60.41c0,.01,0,.02,0,.03a1.766,1.766,0,0,0,.426,1.417l3.091,3.4H95.343Zm21.139-45a2.294,2.294,0,0,1-1.137.524v-4.4a2.217,2.217,0,0,1,1.137,3.872ZM95.762,12.2a10.235,10.235,0,1,1,20.47,0v2.369a4.378,4.378,0,0,0-.888-.172c0-.95.008-.767-3.1-4.109a1.752,1.752,0,0,0-2.237-.273A18.986,18.986,0,0,1,98.53,13.11,1.751,1.751,0,0,0,96.7,14.429a4.869,4.869,0,0,0-.941.212Zm-1.016,6.379a2.339,2.339,0,0,1,1.9-2.148v4.346A2.225,2.225,0,0,1,94.747,18.584Zm3.874,2.973V15.09a21.045,21.045,0,0,0,12.308-3.32c1.426,1.531,2.2,2.334,2.447,2.639v7.148a7.378,7.378,0,0,1-14.755,0Zm7.5,9.227a9.245,9.245,0,0,0,3.683-.768V31.93L106.1,36.5l-3.707-4.575V30.079A9.991,9.991,0,0,0,106.117,30.785ZM98.3,34.541l2.8-1.083,3.577,4.415-3.478,2.47Zm7.8,30.233-3.774-4.152,2.85-16.841h1.848l2.85,16.841Zm1.228-22.963h-2.456l-.751-1.13,1.979-1.405,1.979,1.405ZM111,40.343l-3.482-2.473,3.576-4.414,2.8,1.085Z" transform="translate(-83.447)" fill="#573a32"/>
</svg>
