<svg id="ep-education" xmlns="http://www.w3.org/2000/svg" width="61.634" height="49.568" viewBox="0 0 61.634 49.568">
  <g id="Group_1001" data-name="Group 1001" transform="translate(11.176 18.138)">
    <path id="Path_1585" data-name="Path 1585" d="M918.85,753.676a1.753,1.753,0,0,0-1.753,1.753v14.634l1.753,1.974,1.753-1.974V755.429A1.753,1.753,0,0,0,918.85,753.676Z" transform="translate(-873.931 -753.676)" fill="#fadc60"/>
    <path id="Path_1586" data-name="Path 1586" d="M913.566,910.933a9.9,9.9,0,0,0-1.069-2.752l-1.753-1.974-1.753,1.974a9.887,9.887,0,0,0-1.06,2.715,1.79,1.79,0,0,0,1.736,2.209h2.153A1.782,1.782,0,0,0,913.566,910.933Z" transform="translate(-865.826 -887.846)" fill="#fadc60"/>
    <path id="Path_1587" data-name="Path 1587" d="M597.791,884.478v5.842c0,4.937-8.793,8.939-19.64,8.939s-19.64-4-19.64-8.939v-5.842Z" transform="translate(-558.51 -868.732)" fill="#fadc60"/>
  </g>
  <path id="Path_1588" data-name="Path 1588" d="M597.791,755.384v15.54c0,4.937-8.793,8.939-19.64,8.939s-19.64-4-19.64-8.939v-15.54Z" transform="translate(-547.334 -737.04)" fill="#506366"/>
  <path id="Path_1589" data-name="Path 1589" d="M918.85,753.676a1.753,1.753,0,0,0-1.753,1.753v7.341l3.506-1.787v-5.554A1.753,1.753,0,0,0,918.85,753.676Z" transform="translate(-862.755 -735.538)" fill="#e6cb59"/>
  <path id="Path_1590" data-name="Path 1590" d="M532.994,739.461l-29.164,14.866a1.651,1.651,0,0,1-1.5,0l-29.164-14.866v-3.973h59.828Z" transform="translate(-472.263 -719.539)" fill="#3a484a"/>
  <path id="Path_1591" data-name="Path 1591" d="M532.994,625.543l-29.164-14.866a1.651,1.651,0,0,0-1.5,0l-29.164,14.866,29.164,14.866a1.651,1.651,0,0,0,1.5,0Z" transform="translate(-472.263 -609.594)" fill="#506366"/>
  <rect id="Rectangle_1746" data-name="Rectangle 1746" width="3.505" height="3.948" transform="translate(54.342 34.525)" fill="#e6cb59"/>
  <path id="Path_1592" data-name="Path 1592" d="M477.676,625.624l17.647,9a2.583,2.583,0,0,0,2.319,0l27.852-14.2v1.946l-28.671,14.615a.761.761,0,0,1-.679,0l-28.671-14.615v-1.946l6.982,3.559Zm-2.4-3.251-6.717-3.424,27.586-14.062a.75.75,0,0,1,.679,0l21.043,10.727,6.543,3.335L496.822,633.01a.75.75,0,0,1-.679,0l-17.647-9ZM515.3,612.278l-17.657-9a2.561,2.561,0,0,0-2.319,0l-29.164,14.866a.917.917,0,0,0-.493.8v3.973a.9.9,0,0,0,.493.8l9.781,4.986v14.015c0,5.519,9.024,9.842,20.543,9.842s20.543-4.323,20.543-9.842V628.712l2.08-1.06v13.582a11.309,11.309,0,0,0-1.036,2.747,2.72,2.72,0,0,0,2.615,3.32h2.153a2.71,2.71,0,0,0,2.624-3.279,11.311,11.311,0,0,0-1.045-2.788v-16.29l2.39-1.218a.9.9,0,0,0,.493-.8v-3.973a.908.908,0,0,0-.493-.8Zm-.079,28.711v1.737c0,1.984-1.9,3.988-5.224,5.5a37.259,37.259,0,0,1-27.028,0c-3.32-1.511-5.224-3.515-5.224-5.5v-1.737l.027.027a14.9,14.9,0,0,0,5.271,3.367,35.484,35.484,0,0,0,13.439,2.342c5.183,0,10.794-.769,15.441-3.285a12.918,12.918,0,0,0,3.27-2.424Zm0-11.357v7.252c0,1.984-1.9,3.988-5.224,5.5a37.26,37.26,0,0,1-27.028,0c-3.32-1.511-5.224-3.515-5.224-5.5v-7.252l17.578,8.96.009,0a2.559,2.559,0,0,0,2.31,0Zm7.391,10.939h-1.7v-2.143h1.7Zm.926,4.586a.888.888,0,0,1-.7.338h-2.153a.9.9,0,0,1-.857-1.1,9.763,9.763,0,0,1,.72-2.019h2.427a9.766,9.766,0,0,1,.728,2.054A.846.846,0,0,1,523.537,645.157Zm-.926-8.535h-1.7v-9.891l1.7-.866Z" transform="translate(-465.666 -603)"/>
</svg>
