<svg id="ep-financial" xmlns="http://www.w3.org/2000/svg" xmlns:xlink="http://www.w3.org/1999/xlink" width="59" height="47" viewBox="0 0 59 47">
  <defs>
    <clipPath id="clip-path">
      <rect id="Rectangle_1763" data-name="Rectangle 1763" width="59" height="47" fill="none"/>
    </clipPath>
  </defs>
  <g id="Group_1024" data-name="Group 1024">
    <g id="Group_1023" data-name="Group 1023" transform="translate(0 0)" clip-path="url(#clip-path)">
      <path id="Path_1643" data-name="Path 1643" d="M324.239,385.559a13.953,13.953,0,1,1-20.759,13.2q-.039-.516-.039-1.044a13.955,13.955,0,0,1,20.8-12.159Zm0,0" transform="translate(-273.218 -364.847)" fill="#fedb41"/>
    </g>
  </g>
  <path id="Path_1644" data-name="Path 1644" d="M128.448,354.8v5.576a13.955,13.955,0,0,0-20.8,12.159q0,.526.039,1.044H82.154a3.912,3.912,0,0,1-3.912-3.913V354.8Zm0,0" transform="translate(-77.427 -339.66)" fill="#00bfa2"/>
  <rect id="Rectangle_1764" data-name="Rectangle 1764" width="50.206" height="6.521" transform="translate(0.815 8.615)" fill="#0670b4"/>
  <g id="Group_1026" data-name="Group 1026">
    <g id="Group_1025" data-name="Group 1025" transform="translate(0 0)" clip-path="url(#clip-path)">
      <path id="Path_1645" data-name="Path 1645" d="M128.448,248.861v3.912H78.242v-3.912a3.914,3.914,0,0,1,3.912-3.912h42.382a3.912,3.912,0,0,1,3.912,3.912Zm0,0" transform="translate(-77.427 -244.158)" fill="#00bfa2"/>
      <path id="Path_1646" data-name="Path 1646" d="M123.771,259.644V244.084a4.616,4.616,0,0,0-4.662-4.629H76.727A4.673,4.673,0,0,0,72,244.084v25.3a4.784,4.784,0,0,0,4.727,4.76h24.827a14.731,14.731,0,1,0,22.217-14.5Zm-50.206-10.8h48.641V253.8H73.565Zm3.162-7.824h42.382a3.051,3.051,0,0,1,3.1,3.065v3.195H73.565v-3.195a3.107,3.107,0,0,1,3.162-3.065Zm-3.162,28.363V255.364h48.641v3.457a14.449,14.449,0,0,0-6.048-1.3,14.773,14.773,0,0,0-14.727,14.767c0,.087.012.163.013.294H76.727a3.218,3.218,0,0,1-3.162-3.2Zm42.61,16.04a13.175,13.175,0,0,1-13.138-12.185h0c0-.325-.034-.656-.034-.985a13.171,13.171,0,1,1,13.172,13.171Zm0,0" transform="translate(-72 -239.381)" fill="#083863"/>
    </g>
  </g>
  <path id="Path_1647" data-name="Path 1647" d="M379.336,412.866c.058,0,.116-.006.174-.006a3.06,3.06,0,0,1,3.057,3.056.782.782,0,1,0,1.565,0,4.627,4.627,0,0,0-4.068-4.587V410a.782.782,0,1,0-1.564,0v1.408a4.621,4.621,0,0,0,1.01,9.131,3.057,3.057,0,1,1-3.057,3.056.782.782,0,1,0-1.564,0A4.629,4.629,0,0,0,378.5,428.1v1.717a.782.782,0,1,0,1.564,0v-1.639a4.621,4.621,0,0,0-.554-9.209,3.056,3.056,0,0,1-.174-6.108Zm0,0" transform="translate(-335.336 -386.976)" fill="#083863"/>
</svg>
