<svg id="ep-family" xmlns="http://www.w3.org/2000/svg" width="72.13" height="56.196" viewBox="0 0 72.13 56.196">
  <g id="Group_1007" data-name="Group 1007">
    <path id="Path_1599" data-name="Path 1599" d="M312.685,597l8.65,3.46a8.333,8.333,0,0,1,5.238,7.737v7.867h-35V608.2a8.334,8.334,0,0,1,5.238-7.737l8.65-3.46Zm0,0" transform="translate(-290.507 -560.935)" fill="#60c6ba"/>
    <path id="Path_1600" data-name="Path 1600" d="M365.376,597l-4.064,1.625a8.3,8.3,0,0,0,3.508,3.791l4.166-3.194Zm0,0" transform="translate(-350.42 -560.935)" fill="#60c6ba"/>
    <path id="Path_1601" data-name="Path 1601" d="M419.4,597l4.064,1.625a8.3,8.3,0,0,1-3.508,3.791l-4.166-3.194Zm0,0" transform="translate(-397.223 -560.935)" fill="#60c6ba"/>
    <path id="Path_1602" data-name="Path 1602" d="M397.378,565.662l-3.611,2.222-3.611-2.222v-5.139h7.222Zm0,0" transform="translate(-375.201 -529.597)" fill="#fedca9"/>
    <path id="Path_1603" data-name="Path 1603" d="M390.156,560.523" transform="translate(-375.201 -529.597)" fill="#fdc26b"/>
    <path id="Path_1604" data-name="Path 1604" d="M373.307,447.17a8.333,8.333,0,0,1-16.666,0v-8.889h16.666Zm0,0" transform="translate(-346.407 -424.576)" fill="#fedca9"/>
    <path id="Path_1605" data-name="Path 1605" d="M455.223,438.281" transform="translate(-431.101 -424.576)" fill="#fdc26b"/>
    <path id="Path_1606" data-name="Path 1606" d="M334.619,364.962l1.108-1.645a1.246,1.246,0,0,0,.094-1.228,1.247,1.247,0,0,1,1.128-1.778h12a1.247,1.247,0,0,1,1.128,1.778,1.247,1.247,0,0,0,.094,1.228l1.108,1.645H354.9v-5.006a11.381,11.381,0,0,0-11.381-11.382h-1.125a11.381,11.381,0,0,0-11.381,11.382v5.006Zm0,0" transform="translate(-324.386 -347.507)" fill="#b46e5a"/>
    <path id="Path_1607" data-name="Path 1607" d="M477.715,469.9h-2.777v-5h2.777a1.389,1.389,0,0,1,1.389,1.389v2.222a1.389,1.389,0,0,1-1.389,1.389Zm0,0" transform="translate(-448.039 -447.443)" fill="#fedca9"/>
    <path id="Path_1608" data-name="Path 1608" d="M328.454,469.9h2.778v-5h-2.778a1.389,1.389,0,0,0-1.388,1.389v2.222a1.389,1.389,0,0,0,1.388,1.389Zm0,0" transform="translate(-320.999 -447.443)" fill="#fedca9"/>
    <path id="Path_1626" data-name="Path 1626" d="M0,0H23.888V10.811H0Z" transform="translate(41.621 23.112)" fill="#b46e5a"/>
    <path id="Path_1609" data-name="Path 1609" d="M615.8,571.1v5.138l4.92,1.968c-.111,3.078-3.886,4.793-8.531,4.793s-8.42-1.715-8.531-4.793l4.92-1.968V571.1Zm0,0" transform="translate(-558.627 -538.688)" fill="#fedca9"/>
    <path id="Path_1610" data-name="Path 1610" d="M569.764,623.039l-3.73-1.492c-.111,3.078-3.886,4.793-8.531,4.793s-8.42-1.715-8.531-4.793l-3.73,1.492A8.332,8.332,0,0,0,540,630.776v6.376h35v-6.376a8.332,8.332,0,0,0-5.238-7.737Zm0,0" transform="translate(-503.938 -582.024)" fill="#ef9aa0"/>
    <path id="Path_1611" data-name="Path 1611" d="M621.732,457.751a8.333,8.333,0,1,1-16.666,0v-8.888h16.666Zm0,0" transform="translate(-559.835 -433.667)" fill="#fedca9"/>
    <path id="Path_1612" data-name="Path 1612" d="M583.045,375.54c3.24,0,3.611-3.75,3.611-3.75a8.03,8.03,0,0,0,6.944,3.75h9.722v-5.007a11.381,11.381,0,0,0-11.381-11.382h-1.125a11.381,11.381,0,0,0-11.381,11.382v5.007Zm0,0" transform="translate(-537.813 -356.595)" fill="#b46e5a"/>
    <path id="Path_1613" data-name="Path 1613" d="M668.207,359.152" transform="translate(-614.08 -356.595)" fill="#ffe046"/>
    <path id="Path_1614" data-name="Path 1614" d="M726.14,480.48h-2.777v-5h2.777a1.389,1.389,0,0,1,1.389,1.389v2.222a1.389,1.389,0,0,1-1.389,1.389Zm0,0" transform="translate(-661.466 -456.535)" fill="#fedca9"/>
    <path id="Path_1615" data-name="Path 1615" d="M576.881,480.48h2.778v-5h-2.778a1.389,1.389,0,0,0-1.389,1.389v2.222a1.389,1.389,0,0,0,1.389,1.389Zm0,0" transform="translate(-534.427 -456.535)" fill="#fedca9"/>
    <path id="Path_1616" data-name="Path 1616" d="M465.524,645.977l2.814.417a8.535,8.535,0,0,1,7.287,8.444v2.877H450.586v-2.877a8.536,8.536,0,0,1,7.287-8.444l2.814-.417Zm0,0" transform="translate(-427.117 -603.012)" fill="#fc9842"/>
    <path id="Path_1617" data-name="Path 1617" d="M465.524,645.82l2.814.416a8.536,8.536,0,0,1,7.287,8.445v3.3H450.586v-3.3a8.537,8.537,0,0,1,7.287-8.445l2.814-.416Zm0,0" transform="translate(-427.117 -602.877)" fill="#fc9842"/>
    <path id="Path_1618" data-name="Path 1618" d="M582.535,650.121a8.535,8.535,0,0,1,3.748,7.067V661.7h2.7v-3.3a8.536,8.536,0,0,0-6.45-8.277Zm0,0" transform="translate(-540.478 -606.572)" fill="#fb8723"/>
    <path id="Path_1619" data-name="Path 1619" d="M524.7,631.045a2.419,2.419,0,0,1-2.419-2.419v-2.845h4.837v2.845a2.418,2.418,0,0,1-2.419,2.419Zm0,0" transform="translate(-488.716 -585.661)" fill="#fdc26b"/>
    <path id="Path_1620" data-name="Path 1620" d="M503.915,533.783a6.971,6.971,0,1,1-13.942,0v-6.971h13.942Zm0,0" transform="translate(-460.956 -500.635)" fill="#fedca9"/>
    <path id="Path_1621" data-name="Path 1621" d="M571.523,526.812" transform="translate(-531.017 -500.635)" fill="#fdc26b"/>
    <path id="Path_1622" data-name="Path 1622" d="M496.944,494.869l1.494,1.743h5.477v-2.988a5.691,5.691,0,0,0-5.69-5.691h-2.561a5.691,5.691,0,0,0-5.691,5.691v2.988h5.477Zm0,0" transform="translate(-460.956 -467.234)" fill="#b46e5a"/>
    <g id="Group_1006" data-name="Group 1006" transform="translate(0 0)">
      <path id="Path_1623" data-name="Path 1623" d="M548.543,487.934" transform="translate(-511.274 -467.234)" fill="#a65d4e"/>
      <path id="Path_1624" data-name="Path 1624" d="M331.014,346.539A10.241,10.241,0,0,1,337,344.624h1.125a10.326,10.326,0,0,1,10.314,10.314v3.94h-8.655a7.14,7.14,0,0,1-5.573-2.577c-.2-.242-.339-.518-.529-.762a1.065,1.065,0,0,0-1.9.511c-.2,1.383-.967,2.827-2.556,2.827h-2.544v-3.94a12.079,12.079,0,0,1,1.265-4.954A14.744,14.744,0,0,1,331.014,346.539ZM284,394.36v1.769a1.067,1.067,0,0,0,1.067,1.067h70a1.067,1.067,0,0,0,1.067-1.067v-6.376a9.354,9.354,0,0,0-5.909-8.727h0l-7.978-3.192V375.99h7.266a1.067,1.067,0,0,0,1.067-1.066V365.11a2.446,2.446,0,0,0,.555-1.554v-2.221a2.445,2.445,0,0,0-.555-1.554v-4.842a12.463,12.463,0,0,0-12.449-12.448H337a12.366,12.366,0,0,0-7.228,2.313,16.294,16.294,0,0,0-3.691,4.155,12.717,12.717,0,0,0-1.529,5.981v4.842a2.476,2.476,0,0,0-.552,1.431,6.711,6.711,0,0,0-2.732-.58h-2.561a6.721,6.721,0,0,0-2.575.511v-1.3a2.441,2.441,0,0,0-.556-1.553v-4.842A12.463,12.463,0,0,0,303.128,341H302a12.463,12.463,0,0,0-12.449,12.448v4.842a2.444,2.444,0,0,0-.556,1.553v2.222a2.459,2.459,0,0,0,2.456,2.456h1.757a9.413,9.413,0,0,0,4.676,7.22v4.6l-7.98,3.192A9.355,9.355,0,0,0,284,388.262v6.1Zm2.134-4.976v-1.122a7.231,7.231,0,0,1,4.568-6.746l3.657-1.463a10.017,10.017,0,0,0,3.535,3.368,1.065,1.065,0,0,0,1.155-.092l2.451-1.879v4.92a1.067,1.067,0,0,0,2.134,0v-4.92l2.451,1.879a1.065,1.065,0,0,0,1.155.092,10.017,10.017,0,0,0,3.535-3.368l3.657,1.463a7.206,7.206,0,0,1,2.073,1.269v.259l-1.9.281a9.528,9.528,0,0,0-5.469,2.795,1.067,1.067,0,1,0,1.528,1.49,7.408,7.408,0,0,1,4.253-2.174l1.806-.266a3.486,3.486,0,0,0,6.542,0l1.8.266a7.515,7.515,0,0,1,6.376,7.39v2.236h-3.272v-.714a1.067,1.067,0,1,0-2.134,0v.714H313.942v-.714a1.067,1.067,0,1,0-2.133,0v.714h-3.273v-2.236a7.519,7.519,0,0,1,.124-1.358,1.067,1.067,0,1,0-2.1-.387,9.687,9.687,0,0,0-.158,1.745v2.236H293.356v-1.71a1.067,1.067,0,1,0-2.133,0v1.71h-5.088v-5.679Zm58.767-8.189c-.7,2.093-4.147,3.055-7.336,3.055s-6.632-.961-7.336-3.055l4.121-1.648a1.067,1.067,0,0,0,.671-.991v-4.424a9.362,9.362,0,0,0,5.088,0v4.424a1.068,1.068,0,0,0,.671.991Zm-19.993-.169a9.388,9.388,0,0,0-1.434.722v-.356a8.068,8.068,0,0,0,4.338-5.4h5.076v1.844Zm-17.664-4.683v-4.6a9.413,9.413,0,0,0,4.676-7.22h.671a6.717,6.717,0,0,0-.641,2.869v6.758a7.992,7.992,0,0,0,1.51,4.68Zm6.433-16.821a.322.322,0,0,1,.322.322v2.222a.322.322,0,0,1-.322.322h-1.71v-2.866Zm.408,14.627v-2.7h4.41a1.066,1.066,0,0,0,.81-.372l.683-.8.684.8a1.066,1.066,0,0,0,.81.372h4.41v2.7a5.9,5.9,0,1,1-11.808,0Zm18.8-.293h-4.86v-6.465a6.737,6.737,0,0,0-.142-1.378h.326a9.413,9.413,0,0,0,4.676,7.22Zm-6.626-12.779a.317.317,0,0,1,.193-.064h1.71v2.865H327.04a6.824,6.824,0,0,0-.909-1.173v-1.371a.322.322,0,0,1,.13-.258Zm15.982,12.779v-.625a9.412,9.412,0,0,0,4.675-7.219h1.523v7.844ZM349,361.335v2.221a.322.322,0,0,1-.322.322h-1.71v-2.865h1.71a.322.322,0,0,1,.322.322Zm-9.21-.322h5.044v4.071a7.266,7.266,0,1,1-14.531,0V360.9a4.442,4.442,0,0,0,2.976-2.47,9.113,9.113,0,0,0,6.512,2.588Zm-18.518,1.754a4.629,4.629,0,0,1,4.624,4.624v1.921h-3.92l-1.174-1.37a1.067,1.067,0,0,0-1.62,0L318,369.311h-3.919v-1.921a4.629,4.629,0,0,1,4.624-4.624ZM302,343.134h1.125a10.326,10.326,0,0,1,10.314,10.314v3.939h-1.976l-.791-1.174a.182.182,0,0,1-.014-.177,2.314,2.314,0,0,0-2.093-3.3h-12a2.314,2.314,0,0,0-2.094,3.3.181.181,0,0,1-.013.178l-.791,1.174h-1.976v-3.939A10.326,10.326,0,0,1,302,343.134Zm-10.87,18.932v-2.222a.322.322,0,0,1,.321-.322h1.711v2.866h-1.711a.322.322,0,0,1-.321-.322Zm4.166,1.528v-4.812l.926-1.375a2.324,2.324,0,0,0,.174-2.278.18.18,0,0,1,.163-.256h12a.18.18,0,0,1,.163.256,2.325,2.325,0,0,0,.174,2.278l.926,1.375v4.812a7.266,7.266,0,0,1-14.531,0Zm7.266,9.4a9.359,9.359,0,0,0,2.544-.353v3.828l-2.544,1.566-2.544-1.566v-3.828a9.359,9.359,0,0,0,2.544.353Zm-4.226,8.189a7.676,7.676,0,0,1-1.972-1.933l2.485-.994,1.834,1.129Zm8.452,0-2.346-1.8,1.834-1.129,2.485.994a7.665,7.665,0,0,1-1.972,1.933Zm13.2,4.134a1.353,1.353,0,0,1-1.352-1.351v-1.894a7.93,7.93,0,0,0,2.7,0v1.894a1.353,1.353,0,0,1-1.352,1.351ZM354,395.062h-5.088v-1.71a1.067,1.067,0,0,0-2.134,0v1.71h-13.2v-2.236a9.605,9.605,0,0,0-8.2-9.5l-.283-.042c.2-.1.4-.194.607-.276l2.548-1.019a5.748,5.748,0,0,0,2.853,3.03,15.978,15.978,0,0,0,12.928,0,5.751,5.751,0,0,0,2.853-3.03l2.547,1.019A7.23,7.23,0,0,1,354,389.753v5.309Zm0,0" transform="translate(-284 -341)"/>
    </g>
  </g>
  <path id="Path_1625" data-name="Path 1625" d="M582.667,380.5" transform="translate(-540.591 -374.935)"/>
</svg>
