<svg id="ep-personal" xmlns="http://www.w3.org/2000/svg" width="62.543" height="62.543" viewBox="0 0 62.543 62.543">
  <path id="Path_1562" data-name="Path 1562" d="M31.272,0A31.274,31.274,0,0,1,49.489,56.692a30.9,30.9,0,0,1-18.218,5.851A31.272,31.272,0,0,1,31.272,0Z" fill="#573a32"/>
  <circle id="Ellipse_475" data-name="Ellipse 475" cx="29.5" cy="29.5" r="29.5" transform="translate(1.772 1.772)" fill="#4ebd9e"/>
  <circle id="Ellipse_476" data-name="Ellipse 476" cx="23.307" cy="23.307" r="23.307" transform="translate(7.965 7.965)" fill="#fff"/>
  <g id="Group_995" data-name="Group 995" transform="translate(26.179 17.063)">
    <path id="Path_1560" data-name="Path 1560" d="M228.634,233.839v4.074H218.448v-4.074h2.037V223.653h-2.037v-4.074H226.6v14.26Zm0,0" transform="translate(-218.448 -210.31)" fill="#f05f50"/>
    <path id="Path_1561" data-name="Path 1561" d="M239.581,154.289a3.056,3.056,0,1,1-3.056-3.056,3.055,3.055,0,0,1,3.056,3.056Zm0,0" transform="translate(-231.432 -151.233)" fill="#f05f50"/>
  </g>
</svg>
