<svg id="ep-work" xmlns="http://www.w3.org/2000/svg" width="80.663" height="80.663" viewBox="0 0 80.663 80.663">
  <path id="Path_1576" data-name="Path 1576" d="M876.344,298.457H859.793a6.366,6.366,0,0,0-6.366,6.366v8.351a23.872,23.872,0,0,0,29.284,0v-8.351a6.366,6.366,0,0,0-6.367-6.366Zm0,0" transform="translate(-827.737 -253.987)" fill="#e4eaf8"/>
  <rect id="Rectangle_1745" data-name="Rectangle 1745" width="6.366" height="4.775" transform="translate(37.149 39.695)" fill="#ffc0a1"/>
  <path id="Path_1577" data-name="Path 1577" d="M902.372,194.923v6.366a6.366,6.366,0,1,0,12.732,0v-6.366Zm0,0" transform="translate(-868.406 -167.96)" fill="#ffc0a1"/>
  <path id="Path_1578" data-name="Path 1578" d="M915.1,171.46a4.775,4.775,0,0,0-4.775-4.775h-3.183a4.775,4.775,0,0,0-4.774,4.775v3.183a27.639,27.639,0,0,0,8.522-1.319,7.406,7.406,0,0,0,4.209,1.319c.029.029,0-3.183,0-3.183Zm0,0" transform="translate(-868.406 -144.496)" fill="#573a32"/>
  <path id="Path_1579" data-name="Path 1579" d="M782.037,112.167a4.774,4.774,0,1,1-4.775-4.774,4.775,4.775,0,0,1,4.775,4.774Zm0,0" transform="translate(-760.484 -95.23)" fill="#e27a66"/>
  <path id="Path_1580" data-name="Path 1580" d="M1059.689,389.82a4.774,4.774,0,1,1-4.774-4.775,4.774,4.774,0,0,1,4.774,4.775Zm0,0" transform="translate(-991.188 -325.934)" fill="#90d8f9"/>
  <path id="Path_1581" data-name="Path 1581" d="M782.977,389.82a4.774,4.774,0,1,1-4.775-4.775,4.774,4.774,0,0,1,4.775,4.775Zm0,0" transform="translate(-761.265 -325.934)" fill="#f4dd45"/>
  <path id="Path_1582" data-name="Path 1582" d="M1060.629,112.167a4.774,4.774,0,1,1-4.774-4.774,4.774,4.774,0,0,1,4.774,4.774Zm0,0" transform="translate(-991.969 -95.23)" fill="#aad540"/>
  <path id="Path_1583" data-name="Path 1583" d="M797.311,135.252a24.788,24.788,0,0,0-5.462,15.616A25.054,25.054,0,1,0,816.9,125.814h0a24.806,24.806,0,0,0-15.441,5.323ZM802.919,133a22.462,22.462,0,0,1,13.984-4.82,22.679,22.679,0,0,1,15.823,38.937v-5.742a7.557,7.557,0,0,0-7.548-7.548h-3.911v-3.593a1.235,1.235,0,0,0-.018-.2,7.543,7.543,0,0,0,3.2-6.165V137.5a5.963,5.963,0,0,0-5.956-5.956h-3.183a5.963,5.963,0,0,0-5.957,5.956v6.366a7.543,7.543,0,0,0,3.2,6.165,1.242,1.242,0,0,0-.018.2v3.593h-3.911a7.556,7.556,0,0,0-7.547,7.548v5.742a22.671,22.671,0,0,1-1.923-30.388Zm8.8,4.5a3.6,3.6,0,0,1,3.593-3.593h3.183a3.6,3.6,0,0,1,3.593,3.593v1.887a5.332,5.332,0,0,1-2.3-.955,1.182,1.182,0,0,0-1.091-.192,26.164,26.164,0,0,1-6.976,1.237Zm0,4.341a28.646,28.646,0,0,0,7.142-1.176,8.337,8.337,0,0,0,3.227,1.113v2.087a5.184,5.184,0,0,1-10.369,0Zm3.183,9.3a7.506,7.506,0,0,0,4,0v2.683h-4Zm-5.093,21.28v-7.867a1.182,1.182,0,1,0-2.363,0v6.936a22.709,22.709,0,0,1-4.008-2.371c0-.036.005-.072.005-.109v-7.638a5.191,5.191,0,0,1,5.185-5.184h16.551a5.19,5.19,0,0,1,5.184,5.184v7.638c0,.037,0,.073.005.109a22.73,22.73,0,0,1-4.008,2.371v-6.936a1.182,1.182,0,1,0-2.363,0v7.867a22.691,22.691,0,0,1-14.188,0Zm0,0" transform="translate(-776.571 -110.536)" fill="#573a32"/>
  <path id="Path_1584" data-name="Path 1584" d="M770.892,54.656A5.954,5.954,0,0,0,763.1,46.9a31.379,31.379,0,0,0-9.135-8.12,23.851,23.851,0,0,0-24.269,0,31.38,31.38,0,0,0-9.135,8.12,5.954,5.954,0,0,0-7.794,7.758c-7.275,5.7-11.268,13.172-11.268,21.137a24.121,24.121,0,0,0,3.318,12.134,31.38,31.38,0,0,0,8.12,9.135,5.954,5.954,0,0,0,7.758,7.794c5.7,7.274,13.171,11.268,21.137,11.268s15.437-3.994,21.137-11.268a5.954,5.954,0,0,0,7.758-7.794,31.38,31.38,0,0,0,8.12-9.135,24.121,24.121,0,0,0,3.318-12.134c0-7.965-3.993-15.437-11.268-21.137ZM765.223,93.39a5.949,5.949,0,0,0-5.8,7.3,49.944,49.944,0,0,1-35.189,0A5.954,5.954,0,0,0,717,93.566a49.921,49.921,0,0,1-.071-35.367,5.954,5.954,0,0,0,7.127-7.235,49.9,49.9,0,0,1,35.546,0,5.953,5.953,0,0,0,7.127,7.235,49.92,49.92,0,0,1-.071,35.367,5.949,5.949,0,0,0-1.434-.176ZM768.974,52.4a3.593,3.593,0,1,1-3.592-3.592,3.6,3.6,0,0,1,3.592,3.592ZM741.828,37.824c7.243,0,14.062,3.686,19.308,10.4a5.9,5.9,0,0,0-.517.6,52.208,52.208,0,0,0-37.581,0,5.9,5.9,0,0,0-.517-.6c5.246-6.717,12.065-10.4,19.308-10.4ZM718.274,48.805a3.593,3.593,0,1,1-3.592,3.592,3.6,3.6,0,0,1,3.592-3.592ZM703.859,75.793c0-7.17,3.623-13.939,10.225-19.166a6.083,6.083,0,0,0,.693.589,52.233,52.233,0,0,0,.085,37.368,6.013,6.013,0,0,0-.6.517c-6.717-5.246-10.4-12.065-10.4-19.308ZM714.84,99.347a3.593,3.593,0,1,1,3.592,3.593,3.6,3.6,0,0,1-3.592-3.593Zm26.987,14.415c-7.17,0-13.939-3.623-19.166-10.225a6.032,6.032,0,0,0,.588-.693,52.261,52.261,0,0,0,37.156,0,6.087,6.087,0,0,0,.588.693c-5.228,6.6-12,10.224-19.166,10.224Zm23.395-10.822a3.593,3.593,0,1,1,3.592-3.593,3.6,3.6,0,0,1-3.592,3.593Zm4.171-7.839a5.911,5.911,0,0,0-.6-.517,52.236,52.236,0,0,0,.085-37.369,6.063,6.063,0,0,0,.693-.588c6.6,5.228,10.224,12,10.224,19.166,0,7.242-3.686,14.062-10.4,19.308Zm0,0" transform="translate(-701.496 -35.461)" fill="#573a32"/>
</svg>
