<svg id="ep-work" xmlns="http://www.w3.org/2000/svg" width="61.666" height="61.666" viewBox="0 0 61.666 61.666">
  <rect id="Rectangle_1751" data-name="Rectangle 1751" width="35.651" height="53.476" transform="translate(5.956 1.204)" fill="#fec451"/>
  <rect id="Rectangle_1752" data-name="Rectangle 1752" width="4.818" height="5.781" transform="translate(11.869 7.708)" fill="#fff"/>
  <rect id="Rectangle_1753" data-name="Rectangle 1753" width="4.818" height="5.781" transform="translate(21.505 7.708)" fill="#fff"/>
  <rect id="Rectangle_1754" data-name="Rectangle 1754" width="4.818" height="5.781" transform="translate(31.14 7.708)" fill="#fff"/>
  <rect id="Rectangle_1755" data-name="Rectangle 1755" width="4.818" height="5.781" transform="translate(11.869 18.307)" fill="#fff"/>
  <rect id="Rectangle_1756" data-name="Rectangle 1756" width="4.818" height="5.781" transform="translate(21.505 18.307)" fill="#fff"/>
  <rect id="Rectangle_1757" data-name="Rectangle 1757" width="4.818" height="5.781" transform="translate(31.14 18.307)" fill="#fff"/>
  <rect id="Rectangle_1758" data-name="Rectangle 1758" width="4.818" height="5.781" transform="translate(11.869 28.906)" fill="#fff"/>
  <rect id="Rectangle_1759" data-name="Rectangle 1759" width="4.818" height="5.781" transform="translate(21.505 28.906)" fill="#fff"/>
  <rect id="Rectangle_1760" data-name="Rectangle 1760" width="4.818" height="5.781" transform="translate(31.14 28.906)" fill="#fff"/>
  <rect id="Rectangle_1761" data-name="Rectangle 1761" width="45" height="5" transform="translate(1 55)" fill="#98a1b3"/>
  <rect id="Rectangle_1762" data-name="Rectangle 1762" width="19" height="14" transform="translate(14 41)" fill="#dff6fc"/>
  <path id="Path_1633" data-name="Path 1633" d="M908.456-427.2a10.272,10.272,0,0,0,.211-2.076,10.215,10.215,0,0,0-10.215-10.215,10.215,10.215,0,0,0-10.215,10.215,10.272,10.272,0,0,0,.212,2.076,7.773,7.773,0,0,0-4.45,7.028,7.773,7.773,0,0,0,7.773,7.773,7.768,7.768,0,0,0,6.68-3.8,7.768,7.768,0,0,0,6.68,3.8,7.773,7.773,0,0,0,7.772-7.773,7.772,7.772,0,0,0-4.449-7.028Zm0,0" transform="translate(-852.444 460.123)" fill="#00bfa2"/>
  <path id="Path_1634" data-name="Path 1634" d="M965.313-160.259a4.818,4.818,0,0,0-4.818-4.818,4.8,4.8,0,0,0-2.312.59,7.033,7.033,0,0,0-5.637-2.819,7.046,7.046,0,0,0-7.046,7.046Zm0,0" transform="translate(-906.537 220.721)" fill="#00bfa2"/>
  <path id="Path_1635" data-name="Path 1635" d="M711.751-548.615h4.818a1.2,1.2,0,0,0,1.2-1.2V-555.6a1.2,1.2,0,0,0-1.2-1.2h-4.818a1.2,1.2,0,0,0-1.2,1.2v5.781a1.2,1.2,0,0,0,1.2,1.2Zm1.2-5.781h2.409v3.372h-2.409Zm0,0" transform="translate(-699.882 563.309)"/>
  <path id="Path_1636" data-name="Path 1636" d="M791.751-548.615h4.818a1.2,1.2,0,0,0,1.2-1.2V-555.6a1.2,1.2,0,0,0-1.2-1.2h-4.818a1.2,1.2,0,0,0-1.2,1.2v5.781a1.2,1.2,0,0,0,1.2,1.2Zm1.2-5.781h2.409v3.372h-2.409Zm0,0" transform="translate(-770.247 563.309)"/>
  <path id="Path_1637" data-name="Path 1637" d="M871.751-548.615h4.818a1.2,1.2,0,0,0,1.2-1.2V-555.6a1.2,1.2,0,0,0-1.2-1.2h-4.818a1.2,1.2,0,0,0-1.2,1.2v5.781a1.2,1.2,0,0,0,1.2,1.2Zm1.2-5.781h2.409v3.372h-2.409Zm0,0" transform="translate(-840.611 563.309)"/>
  <path id="Path_1638" data-name="Path 1638" d="M710.547-461.819a1.2,1.2,0,0,0,1.2,1.2h4.818a1.2,1.2,0,0,0,1.2-1.2V-467.6a1.2,1.2,0,0,0-1.2-1.2h-4.818a1.2,1.2,0,0,0-1.2,1.2Zm2.409-4.577h2.409v3.372h-2.409Zm0,0" transform="translate(-699.882 485.908)"/>
  <path id="Path_1639" data-name="Path 1639" d="M790.547-461.819a1.2,1.2,0,0,0,1.2,1.2h4.818a1.2,1.2,0,0,0,1.2-1.2V-467.6a1.2,1.2,0,0,0-1.2-1.2h-4.818a1.2,1.2,0,0,0-1.2,1.2Zm2.409-4.577h2.409v3.372h-2.409Zm0,0" transform="translate(-770.247 485.908)"/>
  <path id="Path_1640" data-name="Path 1640" d="M710.547-373.819a1.2,1.2,0,0,0,1.2,1.2h4.818a1.2,1.2,0,0,0,1.2-1.2V-379.6a1.2,1.2,0,0,0-1.2-1.2h-4.818a1.2,1.2,0,0,0-1.2,1.2Zm2.409-4.577h2.409v3.372h-2.409Zm0,0" transform="translate(-699.882 408.507)"/>
  <path id="Path_1641" data-name="Path 1641" d="M790.547-373.819a1.2,1.2,0,0,0,1.2,1.2h4.818a1.2,1.2,0,0,0,1.2-1.2V-379.6a1.2,1.2,0,0,0-1.2-1.2h-4.818a1.2,1.2,0,0,0-1.2,1.2Zm2.409-4.577h2.409v3.372h-2.409Zm0,0" transform="translate(-770.247 408.507)"/>
  <path id="Path_1642" data-name="Path 1642" d="M626.752-578.045v20.716H623.2a1.2,1.2,0,0,0-1.2,1.2v5.781a1.2,1.2,0,0,0,1.2,1.2h57.571a1.2,1.2,0,0,0,1.2-1.2,6.029,6.029,0,0,0-6.022-6.022h0a6.043,6.043,0,0,0-1.974.332,8.146,8.146,0,0,0-4.771-2.473v-5.246a9.006,9.006,0,0,0,5.476,1.876,8.987,8.987,0,0,0,8.977-8.977,9.028,9.028,0,0,0-4.327-7.679,11.543,11.543,0,0,0,.089-1.425,11.432,11.432,0,0,0-11.419-11.419,11.38,11.38,0,0,0-3.2.456V-609.6a1.2,1.2,0,0,0-1.2-1.2H627.956a1.2,1.2,0,0,0-1.2,1.2v31.556Zm2.408-9.635V-608.4H662.4V-589.9a11.505,11.505,0,0,0-3.241,2.734v-5.33a1.2,1.2,0,0,0-1.2-1.2h-4.818a1.2,1.2,0,0,0-1.2,1.2v5.781a1.2,1.2,0,0,0,1.2,1.2h4.818c.027,0,.054,0,.081,0a11.363,11.363,0,0,0-1.007,2.413h-3.891a1.2,1.2,0,0,0-1.2,1.2v5.781a1.2,1.2,0,0,0,1.2,1.2h.192a8.953,8.953,0,0,0-.976,3.854H635.971a1.2,1.2,0,0,0-1.2,1.2v12.526h-5.606V-587.68Zm27.593-.241h-2.409v-3.372h2.409Zm-2.716,22.3v8.3h-7.227V-568.65h5.815a8.941,8.941,0,0,0,1.412,3.025Zm2.409,2.3a8.923,8.923,0,0,0,4.882,1.45,8.789,8.789,0,0,0,1.074-.068v4.615h-5.956Zm8.365.736a9.09,9.09,0,0,0,1.993-1.162v5.247a8.188,8.188,0,0,0-1.993.557Zm3.2-26.378a9.02,9.02,0,0,1,9.01,9.01,9.1,9.1,0,0,1-.186,1.833,1.2,1.2,0,0,0,.664,1.332,6.6,6.6,0,0,1,3.761,5.939,6.576,6.576,0,0,1-6.568,6.568,6.607,6.607,0,0,1-5.476-2.944v-3.218l4.438-4.438a1.2,1.2,0,0,0,0-1.7,1.2,1.2,0,0,0-1.7,0l-2.734,2.734v-5.54a1.2,1.2,0,0,0-1.2-1.2,1.2,1.2,0,0,0-1.2,1.2v2.929l-2.055-2.055a1.2,1.2,0,0,0-1.7,0,1.2,1.2,0,0,0,0,1.7l3.758,3.758v5.83a6.607,6.607,0,0,1-5.476,2.944,6.576,6.576,0,0,1-6.568-6.568,6.6,6.6,0,0,1,3.761-5.939,1.205,1.205,0,0,0,.664-1.332,9.092,9.092,0,0,1-.187-1.833,9.02,9.02,0,0,1,9.01-9.01Zm-13.664,8.272h2.27c-.016.244-.025.49-.025.738a11.537,11.537,0,0,0,.089,1.425,8.925,8.925,0,0,0-1.566,1.21h-.768ZM637.176-568.65H644.4v11.322h-7.227Zm-12.767,13.73h36.74a8.2,8.2,0,0,0-1.3,3.372H624.409Zm43.6,3.372h-5.717a5.852,5.852,0,0,1,5.717-4.637,5.8,5.8,0,0,1,4.674,2.337,1.2,1.2,0,0,0,1.542.333,3.616,3.616,0,0,1,1.733-.442,3.619,3.619,0,0,1,3.407,2.409Zm0,0" transform="translate(-622 610.805)"/>
</svg>
