<svg id="expenseReport" xmlns="http://www.w3.org/2000/svg" width="53.733" height="53.733" viewBox="0 0 53.733 53.733">
  <path id="Path_1680" data-name="Path 1680" d="M40.222,10H12.1A2.1,2.1,0,0,0,10,12.1V59.535a2.1,2.1,0,0,0,2.1,2.1H48.2a2.1,2.1,0,0,0,2.1-2.1V20.075Z" transform="translate(-8.951 -8.951)" fill="#fff"/>
  <path id="Path_1681" data-name="Path 1681" d="M300.074,20.077h7.976L297.975,10v7.976A2.1,2.1,0,0,0,300.074,20.077Z" transform="translate(-266.703 -8.952)" fill="#feda9b"/>
  <rect id="Rectangle_1785" data-name="Rectangle 1785" width="6.717" height="9.405" transform="translate(13.223 43.277)" fill="#00bfa2"/>
  <rect id="Rectangle_1786" data-name="Rectangle 1786" width="7" height="23" transform="translate(35 30)" fill="#0870b4"/>
  <rect id="Rectangle_1787" data-name="Rectangle 1787" width="7" height="16" transform="translate(24 37)" fill="#ffc66c"/>
  <rect id="Rectangle_1788" data-name="Rectangle 1788" width="6.717" height="29.726" transform="translate(45.967 22.957)" fill="#0870b4"/>
  <path id="Path_1682" data-name="Path 1682" d="M72.2,100.78h8.6a8.6,8.6,0,1,1-8.6-8.6v8.6Z" transform="translate(-56.926 -82.503)" fill="#00bfa2"/>
  <path id="Path_1683" data-name="Path 1683" d="M145.576,64.729V76.213H157.06A11.484,11.484,0,0,0,145.576,64.729Z" transform="translate(-130.298 -57.936)" fill="#ffc66c"/>
  <path id="Path_1684" data-name="Path 1684" d="M52.683,21.908H45.967a1.05,1.05,0,0,0-1.049,1.049v5.3a1.049,1.049,0,1,0,2.1,0v-4.25h4.618V51.634H47.016V36.128a1.049,1.049,0,1,0-2.1,0V51.634h-2.1V29.91a1.05,1.05,0,0,0-1.049-1.049H35.052A1.05,1.05,0,0,0,34,29.91V51.634H31.9V37.256a1.05,1.05,0,0,0-1.049-1.049H24.138a1.05,1.05,0,0,0-1.049,1.049V51.634h-2.1V43.278a1.05,1.05,0,0,0-1.049-1.049H13.223a1.05,1.05,0,0,0-1.049,1.049v8.356H3.148A1.051,1.051,0,0,1,2.1,50.584V3.148A1.051,1.051,0,0,1,3.148,2.1H30.222V9.026a3.152,3.152,0,0,0,3.148,3.148H40.3V25.082a1.049,1.049,0,0,0,2.1,0V11.125a1.05,1.05,0,0,0-.307-.742L32.014.307A1.05,1.05,0,0,0,31.272,0H3.148A3.152,3.152,0,0,0,0,3.148V50.584a3.152,3.152,0,0,0,3.148,3.148H52.683a1.05,1.05,0,0,0,1.049-1.049V22.957A1.05,1.05,0,0,0,52.683,21.908ZM32.321,9.026V3.583l6.492,6.492H33.371A1.051,1.051,0,0,1,32.321,9.026ZM14.273,51.634V44.327H18.89v7.307Zm10.914,0V38.306H29.8V51.634Zm10.914,0V30.959h4.618V51.634Z"/>
  <path id="Path_1685" data-name="Path 1685" d="M429.049,296.989a1.05,1.05,0,1,0-.742-.307A1.057,1.057,0,0,0,429.049,296.989Z" transform="translate(-383.083 -263.942)"/>
  <path id="Path_1686" data-name="Path 1686" d="M63.255,54.729a1.05,1.05,0,0,0-1.049,1.049v1.888A9.653,9.653,0,1,0,72.85,68.312h1.888a1.05,1.05,0,0,0,1.049-1.049A12.547,12.547,0,0,0,63.255,54.729Zm0,20.087a7.554,7.554,0,0,1-1.049-15.034v7.481a1.05,1.05,0,0,0,1.049,1.049h7.481A7.565,7.565,0,0,1,63.255,74.816Zm1.049-8.6V56.88a10.454,10.454,0,0,1,9.332,9.332H64.3Z" transform="translate(-47.977 -48.985)"/>
  <path id="Path_1687" data-name="Path 1687" d="M76.144,295.3a1.05,1.05,0,0,0-1.049-1.049H55.049a1.049,1.049,0,0,0,0,2.1H75.094A1.05,1.05,0,0,0,76.144,295.3Z" transform="translate(-48.333 -263.369)"/>
  <path id="Path_1688" data-name="Path 1688" d="M55.049,342.5a1.049,1.049,0,0,0,0,2.1h6.717a1.049,1.049,0,1,0,0-2.1Z" transform="translate(-48.333 -306.556)"/>
  <path id="Path_1689" data-name="Path 1689" d="M168.387,342.808a1.049,1.049,0,1,0,.742-.308A1.053,1.053,0,0,0,168.387,342.808Z" transform="translate(-150.441 -306.556)"/>
</svg>
