<svg id="female" xmlns="http://www.w3.org/2000/svg" width="24.377" height="52" viewBox="0 0 24.377 52">
  <path id="female-2" data-name="female" d="M20.178,0a6.5,6.5,0,1,1-6.5,6.5,6.5,6.5,0,0,1,6.5-6.5M32.293,35.971l-4.875-19.5a2.437,2.437,0,0,0-2.365-1.846H23.9a8.926,8.926,0,0,1-7.443,0H15.3a2.437,2.437,0,0,0-2.365,1.846l-4.875,19.5A2.438,2.438,0,0,0,10.428,39h5.688V49.563A2.437,2.437,0,0,0,18.553,52H21.8a2.437,2.437,0,0,0,2.438-2.437V39h5.688a2.438,2.438,0,0,0,2.365-3.029Z" transform="translate(-7.99)" fill="#b40606"/>
</svg>
