<svg id="file-invoice-dollar" xmlns="http://www.w3.org/2000/svg" width="15.75" height="21" viewBox="0 0 15.75 21">
  <path id="file-invoice-dollar-2" data-name="file-invoice-dollar" d="M15.463,4.307,11.447.287A.984.984,0,0,0,10.75,0H10.5V5.25h5.25V5A.981.981,0,0,0,15.463,4.307ZM9.188,5.578V0H.984A.982.982,0,0,0,0,.984V20.016A.982.982,0,0,0,.984,21H14.766a.982.982,0,0,0,.984-.984V6.563H10.172A.987.987,0,0,1,9.188,5.578ZM2.625,2.953a.328.328,0,0,1,.328-.328H6.234a.328.328,0,0,1,.328.328v.656a.328.328,0,0,1-.328.328H2.953a.328.328,0,0,1-.328-.328Zm0,3.281V5.578a.328.328,0,0,1,.328-.328H6.234a.328.328,0,0,1,.328.328v.656a.328.328,0,0,1-.328.328H2.953A.328.328,0,0,1,2.625,6.234ZM8.531,17.058v.989a.328.328,0,0,1-.328.328H7.547a.328.328,0,0,1-.328-.328v-1a2.349,2.349,0,0,1-1.287-.466.329.329,0,0,1-.023-.5l.482-.46a.337.337,0,0,1,.415-.03.987.987,0,0,0,.526.153H8.485a.516.516,0,0,0,.484-.541.535.535,0,0,0-.36-.522l-1.846-.554a1.856,1.856,0,0,1-1.3-1.78A1.826,1.826,0,0,1,7.218,10.5V9.516a.328.328,0,0,1,.328-.328H8.2a.328.328,0,0,1,.328.328v1a2.345,2.345,0,0,1,1.287.466.329.329,0,0,1,.023.5l-.482.46a.337.337,0,0,1-.415.03.984.984,0,0,0-.526-.153H7.265a.516.516,0,0,0-.484.541.535.535,0,0,0,.36.522l1.846.554a1.856,1.856,0,0,1,1.3,1.78,1.826,1.826,0,0,1-1.75,1.849Z" fill="#fff"/>
</svg>
