<svg id="file-csv" xmlns="http://www.w3.org/2000/svg" width="12" height="16" viewBox="0 0 12 16">
  <path id="file-csv-2" data-name="file-csv" d="M7,4.25V0H.75A.748.748,0,0,0,0,.75v14.5A.748.748,0,0,0,.75,16h10.5a.748.748,0,0,0,.75-.75V5H7.75A.752.752,0,0,1,7,4.25ZM4,8.75A.25.25,0,0,1,3.75,9H3.5a.5.5,0,0,0-.5.5v1a.5.5,0,0,0,.5.5h.25a.25.25,0,0,1,.25.25v.5a.25.25,0,0,1-.25.25H3.5A1.5,1.5,0,0,1,2,10.5v-1A1.5,1.5,0,0,1,3.5,8h.25A.25.25,0,0,1,4,8.25ZM5.383,12H5a.25.25,0,0,1-.25-.25v-.5A.25.25,0,0,1,5,11h.383c.186,0,.325-.109.325-.207a.165.165,0,0,0-.066-.12l-.684-.587a1.16,1.16,0,0,1-.417-.879A1.272,1.272,0,0,1,5.867,8H6.25a.25.25,0,0,1,.25.25v.5A.25.25,0,0,1,6.25,9H5.867c-.186,0-.325.109-.325.207a.165.165,0,0,0,.066.12l.684.587a1.16,1.16,0,0,1,.417.879A1.271,1.271,0,0,1,5.383,12ZM8,8.25V8.9a3.406,3.406,0,0,0,.5,1.778A3.406,3.406,0,0,0,9,8.9V8.25A.25.25,0,0,1,9.25,8h.5a.25.25,0,0,1,.25.25V8.9a4.3,4.3,0,0,1-1.134,2.94.5.5,0,0,1-.733,0A4.3,4.3,0,0,1,7,8.9V8.25A.25.25,0,0,1,7.25,8h.5A.25.25,0,0,1,8,8.25Zm3.781-4.969L8.722.219A.749.749,0,0,0,8.191,0H8V4h4V3.809A.748.748,0,0,0,11.781,3.281Z" fill="#fff"/>
</svg>
