<svg id="gross-salary" xmlns="http://www.w3.org/2000/svg" width="51.873" height="51.873" viewBox="0 0 51.873 51.873">
  <path id="Path_1701" data-name="Path 1701" d="M32.094,12.733,8.017,31V62.188H58.266V31L34.189,12.733A1.733,1.733,0,0,0,32.094,12.733Z" transform="translate(-7.205 -11.127)" fill="#f6f6f7"/>
  <path id="Path_1702" data-name="Path 1702" d="M42.277,76.426H24L8.017,88.555v1.733H58.266V88.555Z" transform="translate(-7.204 -68.683)" fill="#d9dcdf"/>
  <rect id="Rectangle_1794" data-name="Rectangle 1794" width="43.318" height="27.724" transform="translate(4.278 10.342)" fill="#c4df64"/>
  <path id="Path_1703" data-name="Path 1703" d="M112.813,152.745a4.332,4.332,0,0,0-4.332,4.332H80.758a4.332,4.332,0,0,0-4.332-4.332V140.616a4.332,4.332,0,0,0,4.332-4.332h27.724a4.332,4.332,0,0,0,4.332,4.332Z" transform="translate(-68.683 -122.476)" fill="#a6c451"/>
  <path id="Path_1704" data-name="Path 1704" d="M58.266,196.142,8.017,227.331H58.266Z" transform="translate(-7.204 -176.27)" fill="#f6f6f7"/>
  <path id="Path_1705" data-name="Path 1705" d="M36.142,331.677,8.017,349.134H58.266v-3.886Z" transform="translate(-7.204 -298.073)" fill="#d9dcdf"/>
  <path id="Path_1706" data-name="Path 1706" d="M8.017,196.142l50.249,31.189H8.017Z" transform="translate(-7.204 -176.27)" fill="#f6f6f7"/>
  <path id="Path_1707" data-name="Path 1707" d="M188.242,162.53a8.609,8.609,0,1,0-8.609,8.609A8.619,8.619,0,0,0,188.242,162.53Zm-15.595,0a6.985,6.985,0,1,1,6.985,6.985A6.993,6.993,0,0,1,172.647,162.53Z" transform="translate(-153.696 -138.326)"/>
  <path id="Path_1708" data-name="Path 1708" d="M234.238,190.783v-1.054a2.545,2.545,0,0,0-.812-4.956.92.92,0,1,1,0-1.841h1.733a.812.812,0,1,0,0-1.624h-.92v-.92a.812.812,0,0,0-1.625,0v1.054a2.545,2.545,0,0,0,.812,4.956.921.921,0,1,1,0,1.841h-1.733a.812.812,0,1,0,0,1.624h.92v.921a.812.812,0,0,0,1.625,0Z" transform="translate(-207.489 -161.38)"/>
  <path id="Path_1709" data-name="Path 1709" d="M51.8,55.341A.817.817,0,0,0,51.873,55V23.812a.821.821,0,0,0-.321-.647L48.408,20.78v-6.5a.812.812,0,0,0-.812-.812H38.772L27.475,4.9a2.553,2.553,0,0,0-3.076,0L13.1,13.47H4.278a.812.812,0,0,0-.812.812v6.5L.321,23.165A.821.821,0,0,0,0,23.812V55a.812.812,0,0,0,.812.812H35.467a.812.812,0,0,0,0-1.624H1.624V25.272L48.213,54.189H39.8a.812.812,0,0,0,0,1.624h11.26A.821.821,0,0,0,51.8,55.341ZM27.477,39.407,50.249,25.272V53.541ZM8.555,27.662V22.828a5.157,5.157,0,0,0,4.268-4.268H39.05a5.157,5.157,0,0,0,4.268,4.268v4.835L25.937,38.451Zm39.853-4.843,1.221.926-1.221.758ZM5.09,15.094H21.6a.812.812,0,1,0,0-1.624H15.789L25.38,6.194a.923.923,0,0,1,1.113,0l9.591,7.276H25.937a.812.812,0,1,0,0,1.624H46.784V25.511l-1.841,1.143V22.08a.812.812,0,0,0-.812-.812,3.524,3.524,0,0,1-3.52-3.52.812.812,0,0,0-.812-.812H12.075a.812.812,0,0,0-.812.812,3.524,3.524,0,0,1-3.52,3.52.812.812,0,0,0-.812.812v4.575L5.09,25.511ZM3.465,24.5l-1.221-.758,1.221-.926Z" transform="translate(0 -3.94)"/>
  <path id="Path_1710" data-name="Path 1710" d="M334.307,3.357h.921v.92a.812.812,0,1,0,1.624,0v-.92h.921a.812.812,0,1,0,0-1.624h-.921V.812a.812.812,0,1,0-1.624,0v.92h-.921a.812.812,0,0,0,0,1.624Z" transform="translate(-299.707)"/>
  <path id="Path_1711" data-name="Path 1711" d="M60.67,29.01h.92v.921a.812.812,0,0,0,1.624,0V29.01h.92a.812.812,0,1,0,0-1.624h-.92v-.921a.812.812,0,0,0-1.624,0v.921h-.92a.812.812,0,1,0,0,1.624Z" transform="translate(-53.793 -23.054)"/>
  <path id="Path_1712" data-name="Path 1712" d="M402.716,29.01h.92v.921a.812.812,0,0,0,1.624,0V29.01h.92a.812.812,0,1,0,0-1.624h-.92v-.921a.812.812,0,1,0-1.624,0v.921h-.92a.812.812,0,1,0,0,1.624Z" transform="translate(-361.185 -23.054)"/>
  <path id="Path_1713" data-name="Path 1713" d="M129.079,3.357H130v.92a.812.812,0,1,0,1.624,0v-.92h.921a.812.812,0,0,0,0-1.624h-.921V.812a.812.812,0,1,0-1.624,0v.92h-.921a.812.812,0,0,0,0,1.624Z" transform="translate(-115.272)"/>
</svg>
