<svg id="hr-expenses" xmlns="http://www.w3.org/2000/svg" width="68.72" height="68.72" viewBox="0 0 68.72 68.72">
  <path id="Path_1594" data-name="Path 1594" d="M-846.1,223.925h11.453v2.291a2.29,2.29,0,0,1-2.29,2.291h-6.873a2.291,2.291,0,0,1-2.291-2.291Zm0,0" transform="translate(852.977 -160.932)" fill="#825a2c"/>
  <path id="Path_1595" data-name="Path 1595" d="M-591.448,223.925v2.291a2.3,2.3,0,0,1-2.291,2.291h-6.872a2.3,2.3,0,0,1-2.29-2.291v-2.291Zm0,0" transform="translate(653.296 -160.932)" fill="#825a2c"/>
  <path id="Path_1596" data-name="Path 1596" d="M-746.4-110.224v-5.727a1.145,1.145,0,0,0-1.145-1.145h-16.035a1.145,1.145,0,0,0-1.145,1.145v5.727H-769.3V-117.1a4.582,4.582,0,0,1,4.582-4.582H-746.4a4.582,4.582,0,0,1,4.582,4.582v6.872Zm0,0" transform="translate(789.92 122.822)" fill="#91562d"/>
  <path id="Path_1597" data-name="Path 1597" d="M-873.523-57.677h57.266a4.572,4.572,0,0,1,4.582,4.582v41.232a4.572,4.572,0,0,1-4.582,4.582h-57.266a4.572,4.572,0,0,1-4.582-4.582V-53.1a4.572,4.572,0,0,1,4.582-4.582Zm0,0" transform="translate(879.25 70.275)" fill="#825a2c"/>
  <path id="Path_1598" data-name="Path 1598" d="M-813.631,12.726v37.8H-820.5v-37.8l1.6,2.139a2.3,2.3,0,0,0,1.832.91,2.3,2.3,0,0,0,1.833-.91Zm0,0" transform="translate(831.956 12.471)" fill="#ffdc00"/>
  <path id="Path_1599" data-name="Path 1599" d="M-609.3-52.5v-5.177h6.872v4.856Zm0,0" transform="translate(658.553 70.275)" fill="#ffeb3a"/>
  <path id="Path_1600" data-name="Path 1600" d="M-609.3,103.692v15.874h6.872V96.82Zm0,0" transform="translate(658.553 -56.573)" fill="#ffdc00"/>
  <path id="Path_1601" data-name="Path 1601" d="M-709-31.75a1.157,1.157,0,0,0-.87-.332c-16.819.923-15.761.75-16.058,1.065l-19.127,19.127a6.872,6.872,0,0,0,0,9.713l6.482,6.482a6.872,6.872,0,0,0,9.713,0l19.127-19.127c.439-.414.149.539,1.042-15.691A1.415,1.415,0,0,0-709-31.75Zm-4.467,7.709a2.291,2.291,0,0,1-3.239,0,2.291,2.291,0,0,1,0-3.239,2.29,2.29,0,0,1,3.239,0,2.293,2.293,0,0,1,.672,1.62,2.293,2.293,0,0,1-.672,1.621Zm0,0" transform="translate(771.657 49.262)" fill="#00bfa2"/>
  <path id="Path_1602" data-name="Path 1602" d="M-813.631-45.078l-1.6,2.139a2.291,2.291,0,0,1-1.833.916,2.291,2.291,0,0,1-1.832-.916l-1.6-2.139v-12.6h6.872Zm0,0" transform="translate(831.956 70.275)" fill="#ffeb3a"/>
  <path id="Path_1603" data-name="Path 1603" d="M-820.627-116.532a7.915,7.915,0,0,0-8.132-5.084,10.293,10.293,0,0,0-6.5,4.106v-4.838a5.733,5.733,0,0,0-5.727-5.727h-18.325a5.733,5.733,0,0,0-5.727,5.727v5.727h-13.744A5.733,5.733,0,0,0-884.5-110.9v41.232a5.733,5.733,0,0,0,5.727,5.727v1.146a3.436,3.436,0,0,0,3.436,3.436h6.873a3.436,3.436,0,0,0,3.436-3.436v-1.146h29.778v1.146a3.436,3.436,0,0,0,3.436,3.436h6.872a3.436,3.436,0,0,0,3.436-3.436v-1.146a5.733,5.733,0,0,0,5.727-5.727V-110.9a5.72,5.72,0,0,0-4.844-5.637Zm-58.15,50.305a3.436,3.436,0,0,1-3.436-3.437V-110.9a3.435,3.435,0,0,1,3.436-3.436h4.582v48.1Zm11.453,3.436a1.145,1.145,0,0,1-1.145,1.145h-6.873a1.145,1.145,0,0,1-1.145-1.145v-1.146h9.162Zm0-3.436H-871.9V-99.569a3.389,3.389,0,0,0,4.582,0Zm0-37.032-1.374,1.833a1.18,1.18,0,0,1-.917.436,1.18,1.18,0,0,1-.916-.436l-1.374-1.833v-11.072h4.582Zm44.523-8.781-4.437.215v-2.506h4.747a4.836,4.836,0,0,1-.31,2.291Zm-.429-4.582h-9.8c3.4-3.857,7.6-3.5,9.8,0Zm-10.88,2.291h4.581v2.614l-4.581.219Zm-28.633-8.017a3.435,3.435,0,0,1,3.436-3.436h18.325a3.435,3.435,0,0,1,3.436,3.436v5.727h-2.29V-121.2a2.29,2.29,0,0,0-2.291-2.29h-16.035a2.29,2.29,0,0,0-2.291,2.29v4.582h-2.29Zm20.616,1.145v4.582h-16.035V-121.2Zm5.727,54.977h-28.633v-48.1H-836.4v2.942c-1.6.077-2.406-.032-3.182.748l-19.127,19.127a8.03,8.03,0,0,0,0,11.339l6.48,6.48a8.016,8.016,0,0,0,5.669,2.348,8.017,8.017,0,0,0,5.669-2.348l4.49-4.493Zm-6.109-9.092a5.727,5.727,0,0,1-8.1,0l-6.48-6.479a5.736,5.736,0,0,1,0-8.1l19.127-19.127,13.952-.666a12.343,12.343,0,0,1-2.11,2.309,3.534,3.534,0,0,0-4.238.472,3.436,3.436,0,0,0,0,4.86,3.436,3.436,0,0,0,4.86,0,3.435,3.435,0,0,0,.809-3.538,15.488,15.488,0,0,0,1.932-1.968l-.626,13.107Zm15.386-28.346a1.174,1.174,0,0,1-1.62,0,1.145,1.145,0,0,1,0-1.619,1.145,1.145,0,0,1,1.62,0,1.145,1.145,0,0,1,0,1.619Zm-6.986,23.185,4.581-4.581v18.834h-4.581ZM-823.8-62.791a1.145,1.145,0,0,1-1.145,1.145h-6.872a1.145,1.145,0,0,1-1.145-1.145v-1.146h9.162Zm5.727-6.873a3.436,3.436,0,0,1-3.436,3.437h-5.727V-87.352l5.469-5.47a2.27,2.27,0,0,0,.671-1.513l.732-15.3a2.3,2.3,0,0,0-.368-1.358,8.1,8.1,0,0,0,.572-3.058,3.435,3.435,0,0,1,2.087,3.156Zm0,0" transform="translate(884.503 128.075)"/>
  <path id="Path_1604" data-name="Path 1604" d="M-674.626,39.437l.586-.587a.777.777,0,0,0,.212-.756.777.777,0,0,0-.555-.555.777.777,0,0,0-.756.211l-.587.588c-2.089-1.632-4.9-1.7-6.556-.038s-1.593,4.466.038,6.556l-4.39,4.389a3.4,3.4,0,0,1-.044-4.352.776.776,0,0,0,.212-.756.776.776,0,0,0-.555-.555.777.777,0,0,0-.756.211c-1.722,1.722-1.554,4.527.036,6.557l-.586.587a.779.779,0,0,0-.168.847.777.777,0,0,0,.718.479c.388,0,.5-.179,1.136-.815,2.049,1.6,4.86,1.734,6.556.038,1.658-1.658,1.593-4.466-.038-6.556l4.389-4.389a3.4,3.4,0,0,1,.044,4.352.778.778,0,0,0-.2.751.779.779,0,0,0,.55.55.777.777,0,0,0,.751-.2c1.722-1.72,1.552-4.525-.037-6.558Zm-6.556,10.956a3.381,3.381,0,0,1-4.351-.044l4.306-4.308a3.381,3.381,0,0,1,.045,4.352Zm.044-6.638a3.38,3.38,0,0,1-.045-4.351,3.38,3.38,0,0,1,4.351.045Zm0,0" transform="translate(723.987 -7.529)"/>
</svg>
