<svg id="hr-leave" xmlns="http://www.w3.org/2000/svg" width="76.549" height="67.538" viewBox="0 0 76.549 67.538">
  <path id="Path_1560" data-name="Path 1560" d="M-10.646,996.6,2.6,963.373a2.71,2.71,0,0,1,5.035,2.007L-5.015,997.114Z" transform="translate(48.806 -939.223)" fill="#90a4ae"/>
  <path id="Path_1561" data-name="Path 1561" d="M10.893,986.469l0-.009h0Z" transform="translate(32.487 -958.008)" fill="#fff9c5"/>
  <path id="Path_1562" data-name="Path 1562" d="M36.679,961.859a2.71,2.71,0,0,0-3.521,1.514l-3.468,8.7a12.559,12.559,0,0,1,5.036,2l3.467-8.7A2.71,2.71,0,0,0,36.679,961.859Z" transform="translate(18.245 -939.223)" opacity="0.1" style="isolation: isolate"/>
  <path id="Path_1563" data-name="Path 1563" d="M27.233,912.818l-9.993,1.074-6.347,7.392v9.381l0,0v0a16.064,16.064,0,0,1,8.845.946,16.078,16.078,0,0,1,7.039,5.354l.029.053,5.221-5.169.582-12.9Z" transform="translate(32.487 -902.214)" fill="#fff9c5"/>
  <path id="Path_1564" data-name="Path 1564" d="M-74.657,1098.382c-3.637-5.813-15.953-10.091-30.588-10.091s-26.95,4.278-30.588,10.09h2.043l4.434,2.844,4.662.507,3.286-1.9,5.216-1.9,2.8.76,5.954,3.041,3.927-.634,5.068-1.891,3.674-1.15,4.687,1.15,3.8,2.524,6.081-.76Z" transform="translate(143.652 -1035.159)" fill="#ffca28"/>
  <path id="Path_1565" data-name="Path 1565" d="M-14.317,1100.773l5.116-2.391c-3.637-5.813-15.953-10.091-30.588-10.091a71,71,0,0,0-9.649.645C-34.34,1090.668-21.714,1095.01-14.317,1100.773Z" transform="translate(78.195 -1035.159)" opacity="0.1" style="isolation: isolate"/>
  <path id="Path_1566" data-name="Path 1566" d="M-91.16,1126.788a10.487,10.487,0,0,0-11.832,0,8.248,8.248,0,0,1-9.306,0,10.487,10.487,0,0,0-11.832,0,8.249,8.249,0,0,1-9.306,0,10.487,10.487,0,0,0-11.832,0,8.249,8.249,0,0,1-9.306,0,10.487,10.487,0,0,0-11.832,0,1.125,1.125,0,0,0-.3,1.563,1.125,1.125,0,0,0,1.563.3,8.248,8.248,0,0,1,9.306,0,10.488,10.488,0,0,0,11.832,0,8.248,8.248,0,0,1,9.306,0,10.488,10.488,0,0,0,11.832,0,8.248,8.248,0,0,1,9.306,0,10.523,10.523,0,0,0,5.916,1.828,10.522,10.522,0,0,0,5.916-1.828,8.249,8.249,0,0,1,9.306,0,1.125,1.125,0,0,0,1.562-.3A1.125,1.125,0,0,0-91.16,1126.788Z" transform="translate(167.189 -1062.941)" fill="#4fc3f7"/>
  <g id="Group_1027" data-name="Group 1027" transform="translate(27.461 8.854)">
    <path id="Path_1567" data-name="Path 1567" d="M-38.871,925.192a16.072,16.072,0,0,0-7.071-5.4,16.066,16.066,0,0,0-8.849-.945s13.454-19,32.26-11.5c0,0-9.862,2.638-16.34,17.858Z" transform="translate(54.791 -905.595)" fill="#ef495b"/>
    <path id="Path_1568" data-name="Path 1568" d="M76.576,937.011a16.515,16.515,0,0,1,15.919,6.347s3.3-23.045-15.5-30.54c0,0,5.344,8.7-.423,24.2Z" transform="translate(-44.733 -911.067)" fill="#ef495b"/>
  </g>
  <circle id="Ellipse_475" data-name="Ellipse 475" cx="6.13" cy="6.13" r="6.13" transform="translate(6.7 6.675)" fill="#ffca28"/>
  <path id="Path_1569" data-name="Path 1569" d="M-145.2,899.214a7.262,7.262,0,0,0,7.254,7.254,7.263,7.263,0,0,0,7.255-7.254,7.263,7.263,0,0,0-7.255-7.255A7.263,7.263,0,0,0-145.2,899.214Zm7.255-5a5.01,5.01,0,0,1,5,5,5.01,5.01,0,0,1-5,5,5.01,5.01,0,0,1-5-5A5.01,5.01,0,0,1-137.945,894.209Z" transform="translate(150.749 -886.41)"/>
  <path id="Path_1570" data-name="Path 1570" d="M-117.659,872.451v-2.263a1.125,1.125,0,0,0-1.125-1.125,1.125,1.125,0,0,0-1.125,1.125v2.263a1.125,1.125,0,0,0,1.125,1.125A1.125,1.125,0,0,0-117.659,872.451Z" transform="translate(131.588 -869.063)"/>
  <path id="Path_1571" data-name="Path 1571" d="M-90.51,883.506l-1.6,1.6a1.125,1.125,0,0,0,0,1.591,1.122,1.122,0,0,0,.8.33,1.122,1.122,0,0,0,.8-.33l1.6-1.6a1.125,1.125,0,0,0,0-1.591A1.126,1.126,0,0,0-90.51,883.506Z" transform="translate(110.776 -879.756)"/>
  <path id="Path_1572" data-name="Path 1572" d="M-77.673,919.5a1.125,1.125,0,0,0,1.125-1.125,1.125,1.125,0,0,0-1.125-1.125h-2.263a1.125,1.125,0,0,0-1.125,1.125,1.125,1.125,0,0,0,1.125,1.125Z" transform="translate(102.155 -905.571)"/>
  <path id="Path_1573" data-name="Path 1573" d="M-92.11,945.05a1.125,1.125,0,0,0,0,1.591l1.6,1.6a1.122,1.122,0,0,0,.8.329,1.122,1.122,0,0,0,.8-.329,1.125,1.125,0,0,0,0-1.591l-1.6-1.6A1.125,1.125,0,0,0-92.11,945.05Z" transform="translate(110.776 -926.384)"/>
  <path id="Path_1574" data-name="Path 1574" d="M-119.909,957.223v2.263a1.125,1.125,0,0,0,1.125,1.125,1.125,1.125,0,0,0,1.125-1.125v-2.263a1.125,1.125,0,0,0-1.125-1.125A1.125,1.125,0,0,0-119.909,957.223Z" transform="translate(131.588 -935.004)"/>
  <path id="Path_1575" data-name="Path 1575" d="M-153.653,948.241a1.122,1.122,0,0,0,.8.329,1.122,1.122,0,0,0,.8-.329l1.6-1.6a1.125,1.125,0,0,0,0-1.591,1.125,1.125,0,0,0-1.591,0l-1.6,1.6A1.125,1.125,0,0,0-153.653,948.241Z" transform="translate(157.403 -926.384)"/>
  <path id="Path_1576" data-name="Path 1576" d="M-166.971,919.5h2.263a1.125,1.125,0,0,0,1.125-1.125,1.125,1.125,0,0,0-1.125-1.125h-2.263a1.125,1.125,0,0,0-1.125,1.125A1.125,1.125,0,0,0-166.971,919.5Z" transform="translate(168.096 -905.571)"/>
  <path id="Path_1577" data-name="Path 1577" d="M-152.062,883.506a1.125,1.125,0,0,0-1.591,0,1.125,1.125,0,0,0,0,1.591l1.6,1.6a1.122,1.122,0,0,0,.8.33,1.121,1.121,0,0,0,.8-.33,1.125,1.125,0,0,0,0-1.591Z" transform="translate(157.403 -879.756)"/>
  <path id="Path_1578" data-name="Path 1578" d="M-94.417,920.123A36.959,36.959,0,0,1-93,931.638a17.573,17.573,0,0,0-5.731-3.673,17.427,17.427,0,0,0-7.6-1.241c.019-.058.036-.115.055-.173a42.032,42.032,0,0,0,1.857-8.263,32.386,32.386,0,0,0,0-7.738,24.394,24.394,0,0,0-.964-4.389l-.01-.032a21.79,21.79,0,0,1,9.247,9.611C-95.788,916.43-94.417,920.123-94.417,920.123Zm-52.839,28.789,4.127.093a66.84,66.84,0,0,1,14.242-1.482c2.347,0,4.695.112,7.03.343h.025a55.253,55.253,0,0,1,12.006,2.463c4.289,1.436,7.6,3.329,9.543,5.427a10.623,10.623,0,0,0-2.813,1.356,8.249,8.249,0,0,1-9.306,0,10.487,10.487,0,0,0-11.832,0,8.248,8.248,0,0,1-9.306,0,10.488,10.488,0,0,0-11.832,0,8.248,8.248,0,0,1-9.306,0,10.615,10.615,0,0,0-2.813-1.356c1.941-2.095,5.246-3.986,9.526-5.421Zm-1.342-.855-4.209.052c-5.377,1.8-9.28,4.248-11.35,7.1a10.512,10.512,0,0,0-6.48,1.811,1.125,1.125,0,0,0-.3,1.563,1.125,1.125,0,0,0,1.563.3,8.259,8.259,0,0,1,5.535-1.39,1.114,1.114,0,0,0,.207.026,8.3,8.3,0,0,1,3.564,1.364,10.488,10.488,0,0,0,11.832,0,8.248,8.248,0,0,1,9.306,0,10.487,10.487,0,0,0,11.832,0,8.248,8.248,0,0,1,9.306,0,10.524,10.524,0,0,0,5.916,1.828,10.524,10.524,0,0,0,5.916-1.828,8.3,8.3,0,0,1,3.556-1.363,1.123,1.123,0,0,0,.22-.027,8.258,8.258,0,0,1,5.53,1.39,1.125,1.125,0,0,0,1.563-.3,1.125,1.125,0,0,0-.3-1.563,10.511,10.511,0,0,0-6.48-1.811c-2.072-2.854-5.982-5.3-11.367-7.105a56.262,56.262,0,0,0-11.041-2.407l8.061-20.224a14.23,14.23,0,0,1,3.145,3.1,1.153,1.153,0,0,0,1.217.492,14.894,14.894,0,0,1,8.167.9,14.882,14.882,0,0,1,6.58,5.017,1.125,1.125,0,0,0,.91.464,1.129,1.129,0,0,0,.271-.033,1.126,1.126,0,0,0,.843-.933,38.723,38.723,0,0,0-1.3-15.1c-.15-.513-1.873-4.743-1.873-4.743a24.147,24.147,0,0,0-13.024-11.907c-8.048-3.207-16.424-2.152-24.221,3.051a38.871,38.871,0,0,0-9.371,8.848,1.125,1.125,0,0,0-.03,1.256,1.124,1.124,0,0,0,1.153.5,14.882,14.882,0,0,1,8.227.884,14.9,14.9,0,0,1,6.51,4.921,1.167,1.167,0,0,0,1.3.52,14.241,14.241,0,0,1,4.377-.081l-8.989,22.554c-.227,0-.453-.006-.681-.006a68.133,68.133,0,0,0-14.73,1.536Zm33.134-37.56a25.623,25.623,0,0,1,4.848-4.015,17.824,17.824,0,0,1,2.568-1.357,17.393,17.393,0,0,1,.826,2.352,30.107,30.107,0,0,1-.2,15.042q-.384,1.574-.887,3.117l-.011.032a17.339,17.339,0,0,0-5.54-3.894l-.087-.039a17.605,17.605,0,0,0-8.039-1.513l.036-.076a40.446,40.446,0,0,1,3.7-6.285Zm-4.61,2.044a41.891,41.891,0,0,0-3.076,4.983c-.33.624-.665,1.255-.948,1.9l-.015.031a17.423,17.423,0,0,0-6.372-4.329A17.586,17.586,0,0,0-137.257,914a37.9,37.9,0,0,1,7.182-6.289,26.35,26.35,0,0,1,9.77-4.1,21.592,21.592,0,0,1,9.606.408l-.04.022a24.86,24.86,0,0,0-4.786,3.448c-.567.518-1.121,1.051-1.652,1.607C-117.176,909.091-119.623,911.928-120.158,912.687Zm6.119,11.684-8.44,21.177q-.782-.068-1.575-.118c-.584-.04-1.169-.07-1.753-.093l8.824-22.139a15.764,15.764,0,0,1,1.575.543C-115.325,923.774-114.036,924.365-114.039,924.371Z" transform="translate(167.269 -893.266)"/>
</svg>
