<svg id="hr-overtime" xmlns="http://www.w3.org/2000/svg" width="43.194" height="72.091" viewBox="0 0 43.194 72.091">
  <path id="Path_1579" data-name="Path 1579" d="M-389.432,215.781v15.652a9.632,9.632,0,0,0,9.632,9.632h1.2v4.816h-1.2a9.632,9.632,0,0,0-9.632,9.632v15.652h28.9V255.514a9.632,9.632,0,0,0-9.632-9.632h-1.2v-4.816h1.2a9.632,9.632,0,0,0,9.632-9.632V215.781Z" transform="translate(396.581 -207.428)" fill="#ecedee"/>
  <path id="Path_1580" data-name="Path 1580" d="M-389.432,326.641a9.632,9.632,0,0,0,9.632,9.632h1.2v3.612h7.224v-3.612h1.2a9.632,9.632,0,0,0,9.632-9.632v-.05h-28.9v.05Z" transform="translate(396.581 -302.636)" fill="#00bfa2"/>
  <path id="Path_1581" data-name="Path 1581" d="M-393.659,174.106H-429.78a2.408,2.408,0,0,1-2.408-2.408v-4.816a2.408,2.408,0,0,1,2.408-2.408h36.121a2.408,2.408,0,0,1,2.408,2.408V171.7a2.408,2.408,0,0,1-2.408,2.408Z" transform="translate(433.317 -163.345)" fill="#fec451"/>
  <path id="Path_1582" data-name="Path 1582" d="M-393.659,592.032H-429.78a2.408,2.408,0,0,0-2.408,2.408v4.816a2.408,2.408,0,0,0,2.408,2.408h36.121a2.408,2.408,0,0,0,2.408-2.408V594.44a2.408,2.408,0,0,0-2.408-2.408Z" transform="translate(433.317 -530.702)" fill="#fec451"/>
  <path id="Path_1583" data-name="Path 1583" d="M-363.364,540.369a14.443,14.443,0,0,0-12.544,7.274h25.088a14.443,14.443,0,0,0-12.544-7.274Z" transform="translate(384.961 -486.313)" fill="#00bfa2"/>
  <path id="Path_1584" data-name="Path 1584" d="M-405.288,179.284h-26.639V168.348h26.639v10.937Zm6.02,40.912v4.816a1.281,1.281,0,0,1-1.279,1.279h-36.121a1.281,1.281,0,0,1-1.279-1.279V220.2a1.281,1.281,0,0,1,1.279-1.279h36.121a1.281,1.281,0,0,1,1.279,1.279Zm-19.34-8.553a13.365,13.365,0,0,1,10.415,5.017h-20.829a13.365,13.365,0,0,1,10.415-5.017Zm9.632-52.927h8.428a1.281,1.281,0,0,1,1.279,1.279v4.816a1.281,1.281,0,0,1-1.279,1.279h-36.121a1.281,1.281,0,0,1-1.279-1.279v-4.816a1.281,1.281,0,0,1,1.279-1.279h27.692Zm-6.02-2.257h-21.672a3.541,3.541,0,0,0-3.537,3.537v4.816a3.541,3.541,0,0,0,3.537,3.537h2.483v12.116a10.773,10.773,0,0,0,10.761,10.761h.075v2.559h-.075a10.773,10.773,0,0,0-10.761,10.761v12.116h-2.483A3.541,3.541,0,0,0-440.2,220.2v4.816a3.541,3.541,0,0,0,3.537,3.537h36.121a3.541,3.541,0,0,0,3.537-3.537V220.2a3.541,3.541,0,0,0-3.537-3.537h-2.483V204.544a10.773,10.773,0,0,0-10.761-10.761h-.075v-2.559h.075a10.773,10.773,0,0,0,10.761-10.761V168.348h2.483a3.541,3.541,0,0,0,3.537-3.537v-4.816a3.541,3.541,0,0,0-3.537-3.537h-14.448Zm-16.932,51.7v-3.612a8.513,8.513,0,0,1,8.5-8.5h1.2a1.129,1.129,0,0,0,1.129-1.129V190.1a1.129,1.129,0,0,0-1.129-1.129h-1.2a8.516,8.516,0,0,1-8.435-7.425h26.5a8.516,8.516,0,0,1-8.435,7.425h-1.2a1.129,1.129,0,0,0-1.129,1.129v4.816a1.129,1.129,0,0,0,1.129,1.129h1.2a8.513,8.513,0,0,1,8.5,8.5v12.116h-.139a15.628,15.628,0,0,0-13.18-7.274,15.627,15.627,0,0,0-13.18,7.274h-.14v-8.5Z" transform="translate(440.204 -156.458)"/>
  <path id="Path_1585" data-name="Path 1585" d="M-293.706,433.556a1.129,1.129,0,0,0,1.129-1.129v-1.2a1.129,1.129,0,0,0-1.129-1.129,1.129,1.129,0,0,0-1.129,1.129v1.2a1.129,1.129,0,0,0,1.129,1.129Z" transform="translate(315.303 -391.566)"/>
  <path id="Path_1586" data-name="Path 1586" d="M-294.835,466.632a1.129,1.129,0,0,0,1.129,1.129,1.129,1.129,0,0,0,1.129-1.129v-1.2a1.129,1.129,0,0,0-1.129-1.129,1.129,1.129,0,0,0-1.129,1.129v1.2Z" transform="translate(315.303 -420.954)"/>
  <path id="Path_1587" data-name="Path 1587" d="M-294.835,500.837a1.129,1.129,0,0,0,1.129,1.129,1.129,1.129,0,0,0,1.129-1.129v-1.2a1.129,1.129,0,0,0-1.129-1.129,1.129,1.129,0,0,0-1.129,1.129v1.2Z" transform="translate(315.303 -450.343)"/>
</svg>
