<svg id="income-tax" xmlns="http://www.w3.org/2000/svg" width="54.328" height="54.324" viewBox="0 0 54.328 54.324">
  <path id="Path_1714" data-name="Path 1714" d="M853.86,476.688c.364.376.71.772,1.1,1.122a1.018,1.018,0,0,1,.344.851c-.013,1.34,0,2.681.008,4.022-.006.631-.015,1.261-.015,1.892,0,.142-.073.359.216.312a7.777,7.777,0,0,1,3.895,1.705c.329.285.631.6.945.906.336.453.564,1.044,1.284,1.006,2.092,1,2.743,2.409,2.271,4.918-.027.141-.042.285-.063.427a11.191,11.191,0,0,1-.346,1.243,1.013,1.013,0,0,0,.224,1.173c.693,2.03.109,3.757-1.563,4.63a3.053,3.053,0,0,1-1.406.385.494.494,0,0,0-.565.416,6.718,6.718,0,0,1-2.6,3.539.489.489,0,0,0-.243.663c.184.528.139,1.257.488,1.572.373.337,1.09.293,1.657.413.071.015.143.022.215.033l1.939.383a11.226,11.226,0,0,1,4.328,2,10.555,10.555,0,0,1,4.206,8.4c.035,1.331-.019,2.664.019,4,.014.469-.165.511-.553.51q-7.362-.016-14.724-.006-19.213,0-38.425.01c-.477,0-.625-.091-.625-.605q.024-26.547,0-53.095c0-.477.091-.626.6-.625q14.505.027,29.01,0a1.16,1.16,0,0,1,.945.4c.406.441.854.843,1.284,1.261a10.724,10.724,0,0,0,1.216,1.217l3.71,3.709A10.732,10.732,0,0,0,853.86,476.688Zm-2.3,31.843c.585.6,1.178,1.188,1.752,1.8.188.2.3.173.478-.011.426-.449.872-.879,1.31-1.317,1.03-1.03,1.03-1.03.616-2.411a.538.538,0,0,1-.013-.053c-.043-.225-.155-.277-.383-.21a7.675,7.675,0,0,1-2.107.244c-.269-.04-.537-.1-.808-.115-.317-.021-.692-.312-.91-.113s-.17.611-.285.914C851.01,507.778,850.975,508.234,851.558,508.532Zm-3.247-8.983a3.718,3.718,0,0,0,.325,1.741,5.145,5.145,0,0,0,4.582,3.469,5.2,5.2,0,0,0,5.557-5.539c0-1.307.052-2.615,0-3.919a2.621,2.621,0,0,0-1.626-2.434A2.009,2.009,0,0,0,855,492.82a.9.9,0,0,0-.248.1,12.578,12.578,0,0,1-6.172,2.931c-.214.035-.294.136-.291.365C848.307,497.329,848.305,498.439,848.311,499.549Zm-3.531-20.154.012.012c0-.419-.035-.842,0-1.258s-.089-.51-.5-.51q-10.452.022-20.9,0c-.41,0-.509.1-.507.509q.025,5.636,0,11.272c0,.423.119.5.514.5q9.877-.019,19.754,0a.638.638,0,0,0,.65-.354,4.962,4.962,0,0,1,2.6-2.159c.509-.2,1.02-.39,1.541-.552a.437.437,0,0,0,.36-.5q-.017-3.283,0-6.566c0-.314-.092-.4-.4-.391C846.859,479.41,845.819,479.4,844.78,479.395ZM817.639,496q0,12.452-.008,24.9c0,.4.068.559.52.545,1.166-.036,2.335-.01,3.5-.01q7.389,0,14.778.008c.38,0,.495-.089.48-.476-.031-.8-.037-1.607,0-2.408a10.556,10.556,0,0,1,5.454-9.087,13.567,13.567,0,0,1,5.309-1.56c1.3-.168,1.992-.654,2.072-1.991.019-.325.033-.507-.26-.712a6.731,6.731,0,0,1-2.566-3.446.586.586,0,0,0-.627-.491,3.468,3.468,0,0,1-2.76-5.236,1.078,1.078,0,0,0,.1-.911,9.63,9.63,0,0,1-.583-2.877c.034-.536-.151-.6-.615-.6q-10.4.021-20.8.009c-.262,0-.512.086-.51-.382q.03-7.5.006-15c0-.308.081-.4.391-.393,1.021.018,2.043,0,3.065,0q9.825,0,19.65.012c.462,0,.566-.115.556-.564-.032-1.386-.034-2.774,0-4.159.013-.474-.133-.551-.571-.551q-13.054.021-26.108,0c-.433,0-.49.131-.49.517Q817.646,483.574,817.639,496Zm30.9,19.829a3.854,3.854,0,0,1-.117-.414c-.225-1.458-.443-2.918-.67-4.375-.066-.428.045-1.011-.259-1.239s-.828.08-1.252.16a8.868,8.868,0,0,0-7.083,5.886c-.66,1.74-.473,3.558-.5,5.357,0,.259.157.237.324.237,1.532,0,3.065-.006,4.6.005.261,0,.347-.075.34-.339-.017-.62-.005-1.24-.005-1.86,0-1.335,0-1.323,1.329-1.317.326,0,.442.068.431.419-.027.893.009,1.788-.018,2.681-.01.348.1.43.43.419.747-.025,1.5-.01,2.243-.01,4.2,0,8.391-.007,12.587.014.456,0,.544-.147.52-.551-.031-.545-.008-1.094-.008-1.641,0-1.366,0-1.355,1.366-1.331.312.005.4.1.392.4-.019.893.006,1.788-.013,2.681-.007.315.049.445.41.439,1.5-.023,2.992-.018,4.487-.005.285,0,.376-.072.369-.364-.02-.82.016-1.642-.012-2.462a8.836,8.836,0,0,0-3.556-6.958,10.508,10.508,0,0,0-4.838-1.873c-.406-.071-.53-.016-.587.408-.234,1.733-.517,3.459-.766,5.19-.055.385-.164.441-.5.23-1.051-.655-2.174-1.208-3.167-1.94a2.153,2.153,0,0,0-2.954.009A40.1,40.1,0,0,1,848.537,515.828ZM862.3,492.214c.023-1.156-.575-2.02-1.477-2.049a1.405,1.405,0,0,1-1.256-.762c-.127-.2-.28-.382-.423-.571a5.547,5.547,0,0,0-6.2-1.927c-1.994.688-3.976,1.411-5.95,2.155a3.308,3.308,0,0,0-2.119,2.459,5.969,5.969,0,0,0,.377,2.832.145.145,0,0,0,.2.121,8.986,8.986,0,0,1,2.217-.233,11.476,11.476,0,0,0,5.826-2.552,3.7,3.7,0,0,1,2.3-.9,4.638,4.638,0,0,1,4.5,3.1c.062.159.051.367.3.4.409.046.815.119,1.225.161.03,0,.092-.147.113-.232A13.053,13.053,0,0,0,862.3,492.214Zm-12.252-6.161a32.044,32.044,0,0,1,3.327-1.067c.227-.039.168-.2.169-.335,0-1.639,0-3.279.01-4.918,0-.259-.066-.343-.333-.338q-1.42.024-2.841,0c-.26,0-.339.069-.337.334C850.048,481.826,850.043,483.92,850.043,486.052Zm2.025-8.388-5.547-5.551c0,1.686,0,3.469,0,5.251,0,.194.045.3.271.3C848.586,477.662,850.382,477.664,852.068,477.664Zm5.192,35.364c.187-1.188.365-2.313.541-3.438.017-.109.031-.236-.1-.279a.445.445,0,0,0-.507.059c-.741.746-1.484,1.489-2.26,2.267Zm-7.434.01,2.048-1.227c.157-.094.271-.187.088-.368q-1.048-1.038-2.089-2.082a.427.427,0,0,0-.461-.057c-.169.046-.143.19-.124.315C849.462,510.732,849.638,511.843,849.826,513.039Zm-3.3-13.519c0-1.075-.007-2.147,0-3.219,0-.372-.22-.243-.4-.2a1.732,1.732,0,0,0,.392,3.421Zm14.018-1.736h0c0,.492.014.985-.005,1.476-.01.264.092.3.321.264a1.812,1.812,0,0,0,1.43-1.85,1.833,1.833,0,0,0-1.414-1.611c-.273-.052-.349.032-.339.3C860.562,496.836,860.549,497.31,860.549,497.784Z" transform="translate(-815.87 -468.878)" fill="#010101"/>
  <path id="Path_1715" data-name="Path 1715" d="M831.944,510.271q0-12.425-.009-24.849c0-.386.056-.518.49-.517q13.054.023,26.108,0c.439,0,.584.077.571.551-.038,1.386-.036,2.773,0,4.159.01.449-.094.565-.556.564q-9.825-.026-19.65-.012c-1.022,0-2.044.014-3.065,0-.311-.006-.392.085-.391.393q.014,7.5-.006,15c0,.468.248.381.51.381q10.4,0,20.8-.009c.465,0,.649.062.615.6a9.633,9.633,0,0,0,.583,2.877,1.078,1.078,0,0,1-.1.911,3.468,3.468,0,0,0,2.76,5.236.586.586,0,0,1,.628.491,6.731,6.731,0,0,0,2.566,3.446c.293.2.279.386.26.712-.079,1.337-.771,1.823-2.072,1.991a13.566,13.566,0,0,0-5.309,1.56,10.556,10.556,0,0,0-5.454,9.087c-.038.8-.031,1.606,0,2.408.015.387-.1.477-.48.476q-7.389-.02-14.778-.008c-1.168,0-2.336-.027-3.5.01-.452.014-.52-.141-.52-.545Q831.954,522.723,831.944,510.271Zm13.571,4.418v0h-7.059c-1.266,0-1.246,0-1.271,1.261-.008.418.108.5.51.5,4.962-.015,9.923-.009,14.885-.01,1.262,0,1.241,0,1.269-1.263.009-.417-.1-.5-.508-.5C850.733,514.7,848.124,514.689,845.516,514.689Zm.058-7h-7.168c-1.211,0-1.187,0-1.221,1.2-.013.454.1.566.56.564,4.943-.019,9.885-.013,14.828-.014,1.27,0,1.251,0,1.275-1.256.008-.408-.094-.509-.5-.506C850.754,507.7,848.164,507.686,845.574,507.686Zm-9.462,25.9c.182-.049.24-.214.332-.333q3.855-5,7.7-10c.785-1.02.773-1-.243-1.814-.325-.259-.463-.169-.675.111-1.044,1.38-2.1,2.749-3.159,4.121q-2.516,3.271-5.031,6.543c-.089.116-.326.262-.18.4C835.249,532.962,835.687,533.261,836.112,533.587Zm7.606-13.637v0q2.682,0,5.364,0c1.258,0,1.235,0,1.265-1.268.01-.428-.121-.5-.513-.5-3.776.016-7.553.01-11.329.013-.416,0-.973-.14-1.213.071-.284.25-.042.823-.1,1.25-.051.378.11.442.451.439C839.668,519.943,841.693,519.95,843.718,519.95Zm3.606-8.761h-5.363c-1.268,0-1.248,0-1.273,1.259-.008.413.1.5.507.5,3.776-.017,7.551-.01,11.327-.01,1.331,0,1.316,0,1.324-1.312,0-.357-.091-.452-.449-.449C851.373,511.2,849.349,511.189,847.324,511.189Zm-4,21.018a2.626,2.626,0,1,0-2.618-2.662A2.631,2.631,0,0,0,843.319,532.207Zm-7.012-4.379a2.628,2.628,0,1,0-2.616-2.669A2.64,2.64,0,0,0,836.307,527.828Zm17.53-8.793c0-.84,0-.84-.857-.84-.894,0-.894,0-.894.912,0,.84,0,.84.857.84C853.837,519.947,853.837,519.947,853.837,519.035Zm-14.889-6.948c0-.894,0-.894-.91-.9-.847,0-.847,0-.843.852,0,.9,0,.9.908.9C838.948,512.941,838.948,512.941,838.948,512.087Z" transform="translate(-830.176 -483.15)" fill="#e4e7eb"/>
  <path id="Path_1716" data-name="Path 1716" d="M1033.854,848a40.087,40.087,0,0,0,3.518-2.146,2.154,2.154,0,0,1,2.954-.009c.992.732,2.115,1.285,3.167,1.94.338.21.446.155.5-.23.249-1.731.532-3.457.766-5.19.057-.424.181-.479.587-.408a10.508,10.508,0,0,1,4.838,1.873,8.836,8.836,0,0,1,3.556,6.958c.028.82-.008,1.642.012,2.462.007.293-.083.367-.369.364-1.5-.013-2.992-.018-4.487.005-.361.006-.416-.124-.41-.439.019-.893-.005-1.788.013-2.681.006-.305-.08-.395-.392-.4-1.366-.024-1.366-.035-1.366,1.331,0,.547-.023,1.1.008,1.641.023.4-.065.554-.52.551-4.2-.021-8.391-.014-12.587-.014-.748,0-1.5-.015-2.243.01-.331.011-.44-.072-.43-.419.026-.893-.009-1.788.018-2.681.01-.35-.105-.417-.431-.419-1.329-.006-1.329-.017-1.329,1.317,0,.62-.011,1.241.005,1.861.007.264-.079.341-.34.339-1.532-.011-3.065-.006-4.6-.005-.166,0-.328.022-.324-.237.03-1.8-.157-3.617.5-5.357a8.868,8.868,0,0,1,7.083-5.885c.423-.08.939-.4,1.252-.16s.192.811.259,1.239c.226,1.458.445,2.917.67,4.376A3.856,3.856,0,0,0,1033.854,848Z" transform="translate(-1001.187 -801.053)" fill="#fd816d"/>
  <path id="Path_1717" data-name="Path 1717" d="M901.8,550.662c1.04,0,2.079.015,3.119,0,.305,0,.4.077.4.391q-.02,3.283,0,6.567a.437.437,0,0,1-.36.5c-.52.162-1.032.356-1.541.552a4.962,4.962,0,0,0-2.6,2.159.638.638,0,0,1-.65.354q-9.877-.011-19.754,0c-.4,0-.516-.076-.514-.5q.029-5.636,0-11.272c0-.407.1-.51.507-.509q10.452.021,20.9,0c.414,0,.539.1.5.51s0,.838,0,1.258c-.419,0-.841.024-1.257-.014s-.583.083-.5.5a2.726,2.726,0,0,1-.858,2.24c-.639-.734-.871-1.156-.9-1.536s.185-.928-.1-1.137c-.263-.193-.77-.054-1.17-.061a1.213,1.213,0,0,1-.164,0c-.282-.043-.307.108-.327.347a3.55,3.55,0,0,0,.807,2.885c.219.239.354.552.558.808a.474.474,0,0,1,.012.673c-.336.453-.608.954-.954,1.4a2.076,2.076,0,0,0-.422,1.415c.031,1.25.01,1.234,1.3,1.25.386,0,.54-.1.468-.48a2.666,2.666,0,0,1,.881-2.276c.766,1.016.844,1.165.867,1.525.025.394-.176.949.09,1.141s.8.066,1.217.078a.987.987,0,0,1,.109,0c.255.037.326-.062.347-.326a3.515,3.515,0,0,0-.794-2.889c-.123-.131-.187-.32-.313-.446a.907.907,0,0,1,0-1.442A4.225,4.225,0,0,0,901.8,550.662Zm-12.255,5.426h0v2.022c0,1.335,0,1.321,1.315,1.326.36,0,.469-.1.448-.452-.025-.414-.146-.968.064-1.212.25-.289.822-.045,1.248-.1.38-.05.454.118.438.457-.019.413-.14.973.072,1.208.252.279.823.048,1.251.1.326.036.434-.059.431-.41-.018-1.894,0-3.789-.009-5.683a2.627,2.627,0,1,0-5.253.018C889.538,554.266,889.544,555.177,889.544,556.088Zm-5.258-.2h0v2.244c0,1.306,0,1.289,1.284,1.306.387,0,.481-.1.477-.481-.02-2.025,0-4.05-.015-6.075,0-.326.042-.488.433-.473.428.016,1.034.208,1.245-.083s.069-.872.081-1.325a.528.528,0,0,1,0-.055c.026-.209-.059-.285-.275-.284q-2.353.012-4.707,0c-.214,0-.264.074-.282.281-.128,1.464-.133,1.485,1.276,1.461.441-.008.5.144.488.525C884.269,553.917,884.287,554.9,884.287,555.888Z" transform="translate(-872.89 -540.146)" fill="#fbd66f"/>
  <path id="Path_1718" data-name="Path 1718" d="M1097.542,636.452a13.059,13.059,0,0,1-.364,2c-.021.085-.083.235-.113.232-.409-.042-.815-.116-1.224-.161-.254-.029-.243-.236-.3-.4a4.638,4.638,0,0,0-4.5-3.1,3.7,3.7,0,0,0-2.3.9,11.475,11.475,0,0,1-5.826,2.552,8.983,8.983,0,0,0-2.217.233.145.145,0,0,1-.2-.122,5.968,5.968,0,0,1-.377-2.832,3.308,3.308,0,0,1,2.119-2.459c1.974-.744,3.956-1.467,5.95-2.155a5.547,5.547,0,0,1,6.2,1.927c.143.189.3.372.423.571a1.4,1.4,0,0,0,1.256.762C1096.968,634.431,1097.565,635.3,1097.542,636.452Z" transform="translate(-1051.117 -613.116)" fill="#646c77"/>
  <path id="Path_1719" data-name="Path 1719" d="M1127.983,571.6c0-2.132,0-4.226-.006-6.32,0-.265.077-.338.337-.334q1.42.02,2.841,0c.267,0,.334.08.333.338-.011,1.639-.005,3.278-.01,4.918,0,.13.058.3-.169.335A32.042,32.042,0,0,0,1127.983,571.6Z" transform="translate(-1093.809 -554.429)" fill="#e4e7eb"/>
  <path id="Path_1720" data-name="Path 1720" d="M1101.384,503.982c-1.686,0-3.482,0-5.278,0-.226,0-.271-.109-.271-.3,0-1.782,0-3.564,0-5.251Z" transform="translate(-1065.186 -495.196)" fill="#646c77"/>
  <path id="Path_1721" data-name="Path 1721" d="M1175.047,841.528l-2.324-1.391c.776-.778,1.519-1.521,2.26-2.267a.445.445,0,0,1,.507-.059c.129.043.115.17.1.279C1175.411,839.215,1175.234,840.341,1175.047,841.528Z" transform="translate(-1133.656 -797.377)" fill="#646c77"/>
  <path id="Path_1722" data-name="Path 1722" d="M1121.564,841.565c-.188-1.2-.364-2.307-.537-3.419-.019-.125-.045-.27.124-.315a.427.427,0,0,1,.461.057q1.043,1.042,2.089,2.082c.183.181.069.274-.088.368C1122.958,840.729,1122.3,841.121,1121.564,841.565Z" transform="translate(-1087.607 -797.405)" fill="#646c77"/>
  <g id="Group_1049" data-name="Group 1049" transform="translate(28.922 23.65)">
    <path id="Path_1723" data-name="Path 1723" d="M1142.1,810.723c-.043-.225-.156-.277-.383-.21a7.668,7.668,0,0,1-2.107.244c-.269-.04-.537-.1-.808-.115-.317-.021-.692-.312-.91-.113s-.17.611-.285.914c-.2.522-.232.978.351,1.276.585.6,1.178,1.188,1.752,1.8.188.2.3.173.478-.011.426-.449.872-.879,1.31-1.317,1.03-1.03,1.03-1.03.616-2.411C1142.1,810.758,1142.1,810.741,1142.1,810.723Z" transform="translate(-1131.188 -796.716)" fill="#fcda9f"/>
    <path id="Path_1724" data-name="Path 1724" d="M1122.492,687.686a2.622,2.622,0,0,0-1.626-2.434l-.077.094.077-.094a2.009,2.009,0,0,0-2.147-.048.9.9,0,0,0-.249.1,12.578,12.578,0,0,1-6.172,2.931c-.214.035-.294.136-.291.365.017,1.11.016,2.22.021,3.33a.375.375,0,0,0,.176-.059.375.375,0,0,1-.176.059,3.719,3.719,0,0,0,.325,1.742.433.433,0,0,0,.328-.165.433.433,0,0,1-.328.165,5.145,5.145,0,0,0,4.582,3.469,5.2,5.2,0,0,0,5.557-5.539C1122.5,690.3,1122.545,688.991,1122.492,687.686Zm-10.065,3.984q2.987-2.986,5.974-5.972c.054-.053.107-.107.154-.164-.047.057-.1.11-.154.164Q1115.413,688.683,1112.427,691.67Zm8.126-6.046q-1.929,1.932-3.861,3.861,1.93-1.93,3.861-3.861a2.3,2.3,0,0,0,.16-.182A2.3,2.3,0,0,1,1120.554,685.624Z" transform="translate(-1108.51 -684.913)" fill="#fcda9f"/>
    <path id="Path_1725" data-name="Path 1725" d="M1081.4,717.081a1.732,1.732,0,0,0,.392,3.42c0-1.075-.007-2.147,0-3.219C1081.8,716.91,1081.579,717.039,1081.4,717.081Z" transform="translate(-1080.056 -713.51)" fill="#fcda9f"/>
    <path id="Path_1726" data-name="Path 1726" d="M1224.274,717.078c-.273-.052-.349.032-.339.3.018.473.005.948.005,1.421h0c0,.492.014.985-.005,1.476-.01.264.092.3.321.264a1.812,1.812,0,0,0,1.43-1.85A1.833,1.833,0,0,0,1224.274,717.078Z" transform="translate(-1208.184 -713.543)" fill="#fcda9f"/>
  </g>
  <path id="Path_1727" data-name="Path 1727" d="M888.219,756.888c2.609,0,5.217.01,7.826-.01.4,0,.517.084.508.5-.028,1.26-.007,1.263-1.269,1.263-4.962,0-9.923,0-14.885.01-.4,0-.518-.083-.51-.5.026-1.261.005-1.261,1.271-1.261h7.059Z" transform="translate(-872.88 -725.35)" fill="#010101"/>
  <path id="Path_1728" data-name="Path 1728" d="M888.27,692.911c2.59,0,5.18.011,7.77-.011.411,0,.512.1.5.506-.024,1.256,0,1.256-1.275,1.256-4.943,0-9.886,0-14.828.014-.456,0-.573-.11-.56-.564.034-1.2.01-1.2,1.221-1.2Z" transform="translate(-872.872 -668.376)" fill="#010101"/>
  <path id="Path_1729" data-name="Path 1729" d="M859.529,829.516c-.425-.326-.863-.626-1.252-.98-.146-.133.091-.279.18-.4q2.51-3.275,5.031-6.543c1.055-1.372,2.115-2.74,3.159-4.121.211-.28.35-.37.675-.111,1.017.811,1.029.794.243,1.814q-3.852,5-7.7,10C859.769,829.3,859.711,829.466,859.529,829.516Z" transform="translate(-853.594 -779.078)" fill="#010101"/>
  <path id="Path_1730" data-name="Path 1730" d="M886.137,790.395c-2.025,0-4.05-.008-6.075.007-.341,0-.5-.061-.451-.439.057-.427-.185-1,.1-1.25.24-.211.8-.071,1.213-.071,3.776,0,7.553,0,11.329-.013.392,0,.524.068.513.5-.03,1.266-.008,1.267-1.265,1.268q-2.682,0-5.363,0Z" transform="translate(-872.596 -753.595)" fill="#010101"/>
  <path id="Path_1731" data-name="Path 1731" d="M918.527,724.928c2.025,0,4.049.009,6.074-.009.358,0,.451.092.449.448-.007,1.312.007,1.312-1.324,1.312-3.776,0-7.551-.007-11.327.01-.406,0-.516-.09-.507-.5.025-1.259,0-1.259,1.273-1.259Z" transform="translate(-901.379 -696.89)" fill="#010101"/>
  <path id="Path_1732" data-name="Path 1732" d="M914.627,874.263a2.626,2.626,0,1,1,2.634-2.59A2.639,2.639,0,0,1,914.627,874.263Zm.022-1.754a.873.873,0,1,0-.886-.845A.882.882,0,0,0,914.649,872.509Z" transform="translate(-901.484 -825.206)" fill="#010101"/>
  <path id="Path_1733" data-name="Path 1733" d="M850.594,834.235a2.628,2.628,0,1,1,2.64-2.588A2.645,2.645,0,0,1,850.594,834.235Zm.886-2.622a.872.872,0,1,0-.863.869A.881.881,0,0,0,851.48,831.612Z" transform="translate(-844.463 -789.557)" fill="#010101"/>
  <path id="Path_1734" data-name="Path 1734" d="M1017.751,789.839c0,.912,0,.912-.894.912-.857,0-.857,0-.857-.84,0-.912,0-.912.894-.912C1017.751,789,1017.751,789,1017.751,789.839Z" transform="translate(-994.09 -753.954)" fill="#010101"/>
  <path id="Path_1735" data-name="Path 1735" d="M881.741,725.888c0,.854,0,.854-.845.854-.9,0-.9,0-.908-.9,0-.856,0-.856.843-.852C881.741,724.994,881.741,724.994,881.741,725.888Z" transform="translate(-872.969 -696.951)" fill="#010101"/>
  <path id="Path_1736" data-name="Path 1736" d="M967.974,570.426c0-.911-.007-1.822,0-2.732a2.627,2.627,0,1,1,5.253-.018c.01,1.894-.009,3.789.009,5.683,0,.351-.105.446-.431.41-.429-.048-1,.184-1.251-.1-.212-.235-.091-.794-.072-1.208.016-.339-.058-.507-.438-.457-.427.057-1-.187-1.248.1-.21.243-.089.8-.064,1.212.021.356-.088.454-.448.452-1.315-.005-1.315.009-1.315-1.326v-2.022Zm3.5-1.632q0-.273,0-.546c0-.2.011-.4,0-.6a.876.876,0,0,0-.854-.886.866.866,0,0,0-.888.9c-.017.764,0,1.529,0,2.293,0,.187.023.281.256.307,1.474.16,1.491.151,1.491-1.308C971.474,568.9,971.474,568.849,971.475,568.794Z" transform="translate(-951.32 -554.484)" fill="#010101"/>
  <path id="Path_1737" data-name="Path 1737" d="M1036.962,564.628a4.224,4.224,0,0,1-1.091,3.662.907.907,0,0,0,0,1.442c.126.126.19.315.313.446a3.514,3.514,0,0,1,.794,2.889c-.02.265-.092.363-.347.326a.974.974,0,0,0-.109,0c-.416-.012-.938.124-1.217-.078s-.065-.746-.09-1.141c-.022-.359-.1-.509-.866-1.525a2.666,2.666,0,0,0-.881,2.276c.073.381-.081.485-.468.48-1.287-.016-1.266,0-1.3-1.25a2.078,2.078,0,0,1,.422-1.415c.346-.445.618-.945.954-1.4a.474.474,0,0,0-.012-.673c-.2-.255-.339-.569-.558-.808a3.55,3.55,0,0,1-.807-2.885c.02-.239.045-.39.327-.347a1.2,1.2,0,0,0,.164,0c.4.007.907-.132,1.17.061.284.209.073.745.1,1.137s.257.8.9,1.536a2.726,2.726,0,0,0,.858-2.24c-.083-.417.1-.537.5-.5s.838.012,1.257.014Z" transform="translate(-1008.052 -554.112)" fill="#010101"/>
  <path id="Path_1738" data-name="Path 1738" d="M905.265,570.165c0-.985-.017-1.971.009-2.955.01-.381-.047-.533-.488-.525-1.409.024-1.4,0-1.276-1.461.018-.208.069-.282.282-.281q2.353.009,4.707,0c.216,0,.3.075.275.284,0,.018,0,.036,0,.055-.011.453.139,1.023-.081,1.325s-.818.1-1.245.083c-.39-.015-.435.146-.433.473.012,2.025-.005,4.05.015,6.075,0,.382-.091.485-.477.48-1.284-.016-1.284,0-1.284-1.306v-2.244Z" transform="translate(-893.868 -554.424)" fill="#010101"/>
  <path id="Path_1739" data-name="Path 1739" d="M928.914,886.773a.873.873,0,1,1,.858-.873A.882.882,0,0,1,928.914,886.773Z" transform="translate(-915.749 -839.47)" fill="#e4e7eb"/>
  <path id="Path_1740" data-name="Path 1740" d="M865.771,845.9a.872.872,0,1,1-.855-.876A.882.882,0,0,1,865.771,845.9Z" transform="translate(-858.755 -803.849)" fill="#e4e7eb"/>
  <path id="Path_1741" data-name="Path 1741" d="M985.734,583.062c0,.054,0,.109,0,.164,0,1.46-.018,1.468-1.491,1.308-.233-.025-.258-.119-.256-.307.005-.764-.012-1.529,0-2.293a.866.866,0,0,1,.888-.9.876.876,0,0,1,.854.886c.012.2,0,.4,0,.6Q985.734,582.789,985.734,583.062Z" transform="translate(-965.58 -568.751)" fill="#fbd66f"/>
</svg>
