<svg id="pendingApproval" xmlns="http://www.w3.org/2000/svg" xmlns:xlink="http://www.w3.org/1999/xlink" width="57.183" height="54.8" viewBox="0 0 57.183 54.8">
  <defs>
    <clipPath id="clip-path">
      <rect id="Rectangle_1782" data-name="Rectangle 1782" width="57.183" height="54.8" fill="none"/>
    </clipPath>
  </defs>
  <path id="Path_1656" data-name="Path 1656" d="M292.008,100.416a4.544,4.544,0,0,1-4,0L263.8,88.432v22.4a5.369,5.369,0,0,0,5.361,5.361h45.269V88.432Zm0,0" transform="translate(-263.798 -84.62)" fill="#eceff1"/>
  <path id="Path_1657" data-name="Path 1657" d="M314.428,85.957v1.43l-22.42,11.984a4.544,4.544,0,0,1-4,0L263.8,87.387v-1.43a5.369,5.369,0,0,1,5.361-5.361h39.909a5.369,5.369,0,0,1,5.361,5.361Zm0,0" transform="translate(-263.798 -80)" fill="#00bfa2"/>
  <path id="Path_1658" data-name="Path 1658" d="M358.619,152.675a15.487,15.487,0,1,1-15.487-15.487,15.487,15.487,0,0,1,15.487,15.487Zm0,0" transform="translate(-301.436 -113.362)" fill="#36bfd8"/>
  <path id="Path_1659" data-name="Path 1659" d="M369.359,164.727h-6.552a1.787,1.787,0,0,1-1.787-1.787v-6.552a1.787,1.787,0,0,1,3.574,0v4.765h4.765a1.787,1.787,0,1,1,0,3.574Zm0,0" transform="translate(-321.111 -123.627)"/>
  <g id="Group_1034" data-name="Group 1034">
    <g id="Group_1033" data-name="Group 1033" clip-path="url(#clip-path)">
      <path id="Path_1660" data-name="Path 1660" d="M343.132,168.162a15.487,15.487,0,1,1,15.487-15.487,15.505,15.505,0,0,1-15.487,15.487Zm0-27.4a11.913,11.913,0,1,0,11.913,11.913,11.926,11.926,0,0,0-11.913-11.913Zm0,0" transform="translate(-301.436 -113.362)"/>
      <path id="Path_1661" data-name="Path 1661" d="M285.837,112.5H269.159a5.367,5.367,0,0,1-5.361-5.361V84.506a5.367,5.367,0,0,1,5.361-5.361h41.7a5.368,5.368,0,0,1,5.361,5.361V98.8a1.787,1.787,0,0,1-3.574,0v-14.3a1.789,1.789,0,0,0-1.787-1.787h-41.7a1.789,1.789,0,0,0-1.787,1.787V107.14a1.789,1.789,0,0,0,1.787,1.787h16.678a1.787,1.787,0,1,1,0,3.574Zm0,0" transform="translate(-263.798 -79.145)"/>
      <path id="Path_1662" data-name="Path 1662" d="M290.009,108.626a6.249,6.249,0,0,1-2.8-.66l-22.413-11.1a1.787,1.787,0,1,1,1.587-3.2l22.42,11.1a2.764,2.764,0,0,0,2.409,0l22.428-11.1a1.787,1.787,0,1,1,1.587,3.2l-22.42,11.1a6.247,6.247,0,0,1-2.793.655Zm0,0" transform="translate(-263.798 -87.595)"/>
    </g>
  </g>
</svg>
