<svg id="plus-oval" xmlns="http://www.w3.org/2000/svg" width="30" height="30" viewBox="0 0 30 30">
  <rect id="Rectangle_1772" data-name="Rectangle 1772" width="30" height="30" rx="15" fill="#0670b4"/>
  <path id="plus" d="M11.539,36.882H7.545V32.888A.888.888,0,0,0,6.657,32H5.769a.888.888,0,0,0-.888.888v3.994H.888A.888.888,0,0,0,0,37.769v.888a.888.888,0,0,0,.888.888H4.882v3.994a.888.888,0,0,0,.888.888h.888a.888.888,0,0,0,.888-.888V39.545h3.994a.888.888,0,0,0,.888-.888v-.888A.888.888,0,0,0,11.539,36.882Z" transform="translate(9.262 -22.931)" fill="#fff"/>
</svg>
