<svg id="Reimbursed" xmlns="http://www.w3.org/2000/svg" width="49.662" height="61.182" viewBox="0 0 49.662 61.182">
  <path id="Path_1672" data-name="Path 1672" d="M1030.82,719.7q0-1.212,0-2.423a1.2,1.2,0,0,1,.909-.909l2.423,0c.868.006,1.736.009,2.6.021a1.062,1.062,0,0,1,1.2,1.211c.01.741,0,1.482,0,2.223,0,.867,0,.867.9.9a11.722,11.722,0,0,0,2.039.361,6.257,6.257,0,0,0,3.477.027c2.564-.777,5.164-1.436,7.749-2.143,1.113-.21,2.192-.551,3.281-.854a16.625,16.625,0,0,1,1.85-.446c1.687-.216,2.92.727,3.582,2.708l2.373-1.021c1.372-.516,2.734-1.056,4.062-1.681,2.056-.832,4.138-1.607,6.161-2.513a4.289,4.289,0,0,1,4.651.468,7.32,7.32,0,0,1,.975,1.282c.9,2.482.274,4.2-1.993,5.584-3.151,1.927-6.289,3.875-9.432,5.814l-6.239,3.809c-1.88,1.142-3.765,2.274-5.637,3.428a5.108,5.108,0,0,1-4.732.485c-.61-.232-1.23-.436-1.845-.652a9.448,9.448,0,0,0-1.773-.672,8.655,8.655,0,0,0-4.3-1.011c-1.239.1-2.491.034-3.738.041-1.486-.084-1.486-.084-1.388,1.38-.009.126-.022.252-.025.378-.026,1-.318,1.228-1.645,1.3l-2.424,0c-.632-.007-1.264-.008-1.9-.021a1.04,1.04,0,0,1-1.159-1.178c-.013-1.475-.015-2.951-.021-4.427q0-1.212,0-2.424Q1030.819,724.22,1030.82,719.7Zm7.149,7.464h0c0,1.295.02,2.59-.011,3.884-.011.475.085.645.609.636,2.037-.035,4.076-.009,6.114-.018a3.031,3.031,0,0,1,1.114.2c2,.759,4,1.5,6,2.262a2.973,2.973,0,0,0,2.743-.23q10.925-6.69,21.846-13.385a2.012,2.012,0,0,0,.818-2.7,1.976,1.976,0,0,0-2.659-.89c-3.8,1.563-7.6,3.108-11.383,4.7-1.332.562-2.789.9-3.877,1.958a1.583,1.583,0,0,1-.563.286c-1.925.708-3.853,1.407-5.778,2.114-1.462.537-1.441.532-1.982-.906-.156-.414-.041-.533.325-.665,2.189-.793,4.369-1.609,6.553-2.413a1.2,1.2,0,0,0,.9-1.511c-.189-.65-.8-.92-1.6-.707q-6.781,1.809-13.561,3.624a2.352,2.352,0,0,1-1.063.043c-1.335-.241-2.676-.449-4.012-.683-.381-.067-.558-.023-.546.446C1037.992,724.529,1037.969,725.846,1037.969,727.162Zm-5.089-.654c0,2.545.013,5.09-.011,7.634,0,.481.131.629.606.6a12.514,12.514,0,0,1,1.843,0c.538.044.622-.181.618-.653-.02-2.693-.01-5.386-.01-8.08,0-2.333-.013-4.666.012-7,.005-.484-.137-.63-.609-.6a11.741,11.741,0,0,1-1.716,0c-.559-.043-.758.1-.749.715C1032.9,721.588,1032.88,724.048,1032.88,726.508Z" transform="translate(-1029.802 -675.611)" fill="#030302"/>
  <path id="Path_1673" data-name="Path 1673" d="M1060.96,412.348l1.354,1.04a28.54,28.54,0,0,1,4.292,4.687l.915,1.422a26.519,26.519,0,0,1,2.639,6.479l.392,2.041a26.825,26.825,0,0,1,.114,5.818c-.132,1.263-.412,2.5-.649,3.737-.411,1.294-.881,2.566-1.4,3.823-.627,1.127-1.231,2.265-1.947,3.343-.313.471-.569.6-.989.165a2,2,0,0,0-.368-.243,1.2,1.2,0,0,0-.232-.2c-.452-.225-.435-.476-.14-.855a5.659,5.659,0,0,0,.881-1.437,20.454,20.454,0,0,0,2.867-11.885,13.9,13.9,0,0,0-.253-2.282,19.4,19.4,0,0,0-2.33-6.753,8.519,8.519,0,0,0-1.037-1.7,18.633,18.633,0,0,0-4.337-4.728,6.016,6.016,0,0,0-1.287-.954,18.063,18.063,0,0,0-6.243-2.942,6.918,6.918,0,0,0-1.919-.469,12.027,12.027,0,0,0-2.453-.339,19.221,19.221,0,0,0-6.975.7,15.716,15.716,0,0,0-3.967,1.469,21.017,21.017,0,0,0-9.737,9.731,15.693,15.693,0,0,0-1.464,3.968,19.753,19.753,0,0,0-.364,9.429,7.738,7.738,0,0,0,.462,1.922,12.241,12.241,0,0,0,.519,1.688c.1.341.245.359.548.242.551-.211,1.117-.381,1.681-.555.981-.3,1.635.291,1.439,1.3q-.26,1.336-.517,2.673c-.151.717-.29,1.436-.455,2.15a1.019,1.019,0,0,1-1.584.735l-.444-.225c-1.456-.887-2.908-1.782-4.372-2.658a1.31,1.31,0,0,1-.75-1.023,1.144,1.144,0,0,1,.942-1.04c.465-.123.908-.326,1.372-.454.28-.077.321-.2.234-.452-.261-.752-.512-1.508-.766-2.262a25.362,25.362,0,0,1-.645-8.3l.454-2.894a24.1,24.1,0,0,1,4.222-8.951,23.54,23.54,0,0,1,13.317-8.681l3-.5a24.293,24.293,0,0,1,7.174.4c.39.083.781.161,1.172.242l1.886.6A27.362,27.362,0,0,1,1060.96,412.348Zm-34.584,29.573c.6.362,1.082.661,1.572.95.13.077.307.243.368-.07.1-.512.19-1.026.3-1.618Z" transform="translate(-1022.854 -408.013)" fill="#030302"/>
  <path id="Path_1674" data-name="Path 1674" d="M1086.861,741.145c0-1.316.022-2.633-.012-3.948-.012-.47.165-.513.546-.446,1.336.234,2.677.442,4.012.683a2.353,2.353,0,0,0,1.063-.043q6.778-1.821,13.561-3.624c.8-.214,1.406.057,1.6.707a1.2,1.2,0,0,1-.9,1.511c-2.185.8-4.365,1.62-6.554,2.413-.366.133-.481.251-.325.665.541,1.439.52,1.443,1.982.906,1.925-.707,3.853-1.406,5.778-2.114a1.582,1.582,0,0,0,.563-.286c1.088-1.062,2.545-1.4,3.877-1.958,3.782-1.6,7.587-3.142,11.383-4.7a1.975,1.975,0,0,1,2.659.89,2.012,2.012,0,0,1-.818,2.7q-10.918,6.7-21.846,13.385a2.973,2.973,0,0,1-2.743.23c-2-.758-4-1.5-6-2.262a3.034,3.034,0,0,0-1.114-.2c-2.038.009-4.076-.016-6.114.018-.524.009-.62-.161-.609-.636.031-1.294.01-2.59.01-3.885Z" transform="translate(-1078.694 -689.594)" fill="#fdd9ab"/>
  <path id="Path_1675" data-name="Path 1675" d="M1046.9,751.979c0-2.46.023-4.92-.016-7.38-.01-.611.19-.758.749-.715a11.741,11.741,0,0,0,1.716,0c.473-.033.615.113.609.6-.025,2.333-.012,4.666-.012,7,0,2.693-.009,5.387.01,8.08,0,.472-.08.7-.618.653a12.514,12.514,0,0,0-1.843,0c-.475.031-.611-.116-.606-.6C1046.911,757.069,1046.9,754.524,1046.9,751.979Z" transform="translate(-1043.82 -701.082)" fill="#526272"/>
  <path id="Path_1676" data-name="Path 1676" d="M1050.495,669.071l2.238-.737c-.108.591-.2,1.105-.3,1.618-.06.313-.237.147-.368.07C1051.576,669.732,1051.092,669.433,1050.495,669.071Z" transform="translate(-1046.973 -635.164)" fill="#acc3e5"/>
  <path id="Path_1677" data-name="Path 1677" d="M1131.4,499.662l0,2.423,0,9.044,0,2.423c-.008.524-.007,1.048-.025,1.572a1.025,1.025,0,0,1-1.1,1.1c-.524.017-1.048.017-1.572.025l-2.423,0-9.044,0-2.423,0-9.044,0a14.1,14.1,0,0,1-2.423-.135,1.322,1.322,0,0,1-.516-1.163c.009-2.293-.006-4.586-.013-6.879l0-2.423q.011-4.523.022-9.045a1.455,1.455,0,0,1,.766-.766l9.046-.022,2.423,0,9.044,0,2.423,0c1.2.007,2.4.01,3.6.02.865.007,1.226.368,1.236,1.229S1131.4,498.8,1131.4,499.662Zm-14.293-1.782c-3.884,0-7.768,0-11.652-.007-.393,0-.593.02-.591.521q.032,7.641,0,15.281c0,.416.108.524.523.523q11.684-.02,23.368,0c.475,0,.592-.112.59-.589q-.027-7.577,0-15.154c0-.484-.125-.587-.594-.585C1124.878,497.889,1120.994,497.88,1117.109,497.88Z" transform="translate(-1092.628 -484.629)" fill="#030302"/>
  <path id="Path_1678" data-name="Path 1678" d="M1131.146,511.926c3.884,0,7.768.009,11.652-.012.469,0,.6.1.594.585q-.031,7.577,0,15.154c0,.477-.115.59-.59.589q-11.684-.023-23.368,0c-.415,0-.525-.107-.523-.523q.022-7.641,0-15.281c0-.5.2-.522.591-.52C1123.378,511.931,1127.262,511.926,1131.146,511.926Zm1.846,6.116a4.367,4.367,0,0,1,.594,0c.661.115.673-.189.53-.712a3.082,3.082,0,0,0-1.556-1.988c-.173-.094-.4-.111-.4-.412-.006-.32.181-.761-.126-.932-.26-.145-.662-.036-1-.038a2.888,2.888,0,0,1-.381,0c-.4-.058-.59.075-.525.508a.832.832,0,0,1-.523.986,2.928,2.928,0,0,0-1.49,3,3.029,3.029,0,0,0,2.278,2.536c.305.076.632.067.94.135a.968.968,0,0,1,.825.923.949.949,0,0,1-.686,1.027.827.827,0,0,1-1.136-.411c-.191-.605-.569-.556-1.009-.544a5.8,5.8,0,0,1-.826,0c-.425-.049-.445.166-.376.486a3.057,3.057,0,0,0,1.642,2.214c.215.109.368.2.377.5.027.886.047.885.957.885a3.777,3.777,0,0,1,.572,0c.442.069.563-.14.5-.531a.836.836,0,0,1,.546-.974,2.9,2.9,0,0,0,1.46-3.009,2.966,2.966,0,0,0-2.293-2.521c-.284-.075-.588-.068-.877-.126a.975.975,0,0,1-.856-.9.944.944,0,0,1,.655-1.045.8.8,0,0,1,1.106.334C1132.144,518.142,1132.624,518.061,1132.991,518.042Z" transform="translate(-1106.664 -498.676)" fill="#00bfa2"/>
  <path id="Path_1679" data-name="Path 1679" d="M1195.845,531.821c-.367.019-.847.1-1.083-.608a.8.8,0,0,0-1.106-.334.944.944,0,0,0-.655,1.045.975.975,0,0,0,.856.9c.289.057.594.051.877.126a2.966,2.966,0,0,1,2.293,2.521,2.9,2.9,0,0,1-1.461,3.009.836.836,0,0,0-.546.974c.063.392-.057.6-.5.531a3.769,3.769,0,0,0-.572,0c-.91,0-.93,0-.957-.885-.009-.3-.162-.39-.377-.5a3.057,3.057,0,0,1-1.642-2.214c-.069-.32-.049-.536.376-.486a5.814,5.814,0,0,0,.826,0c.44-.012.818-.061,1.009.544a.827.827,0,0,0,1.136.411.949.949,0,0,0,.686-1.027.968.968,0,0,0-.825-.923c-.308-.068-.634-.059-.94-.135a3.029,3.029,0,0,1-2.279-2.536,2.928,2.928,0,0,1,1.49-3,.832.832,0,0,0,.523-.986c-.064-.433.125-.565.525-.508a2.888,2.888,0,0,0,.381,0c.339,0,.741-.107,1,.038.307.171.12.612.126.932.006.3.229.318.4.412a3.081,3.081,0,0,1,1.556,1.988c.144.523.132.826-.53.712A4.375,4.375,0,0,0,1195.845,531.821Z" transform="translate(-1169.518 -512.454)" fill="#030302"/>
</svg>
