<svg id="remove" xmlns="http://www.w3.org/2000/svg" width="34" height="34" viewBox="0 0 34 34">
  <rect id="Rectangle_1772" data-name="Rectangle 1772" width="34" height="34" rx="17" fill="#dc3545"/>
  <path id="Path_1273" data-name="Path 1273" d="M139.432,126.913a.8.8,0,0,0-1.138,0l-5.121,5.121-5.121-5.121a.8.8,0,0,0-1.158,1.118l.02.02,5.121,5.121-5.121,5.121a.8.8,0,1,0,1.118,1.158l.02-.02,5.121-5.121,5.121,5.121a.8.8,0,0,0,1.138-1.138l-5.121-5.121,5.121-5.121A.8.8,0,0,0,139.432,126.913Zm0,0" transform="translate(-116.446 -115.448)" fill="#fff"/>
</svg>
