<svg id="save" xmlns="http://www.w3.org/2000/svg" width="110.899" height="114" viewBox="0 0 110.899 114">
  <path id="Path_1516" data-name="Path 1516" d="M432.522,309.446l40.132-.025c2.745,0,5.567-2.633,5.567-5.379l-.021-31.571-51.017.034.026,31.571A5.625,5.625,0,0,0,432.522,309.446ZM458.9,277.323l10.463,0a3.119,3.119,0,0,1,3.127,3.114l.016,21.024a3.128,3.128,0,0,1-3.12,3.127l-10.474,0a3.117,3.117,0,0,1-3.122-3.116l-.015-21.029A3.124,3.124,0,0,1,458.9,277.323Z" transform="translate(-395.517 -266.752)" fill="none"/>
  <path id="Path_1517" data-name="Path 1517" d="M343.4,243.038a11.179,11.179,0,0,0-7.081-2.746c-2.318,0-78.07.054-78.07.054a9.239,9.239,0,0,0-9.23,9.24l.069,95.478a9.229,9.229,0,0,0,9.24,9.228l92.36-.06a9.233,9.233,0,0,0,9.23-9.241s-.055-81.083-.055-82.33a6.606,6.606,0,0,0-1.783-4.961C357.241,256.869,348.1,247.738,343.4,243.038Zm-11.7,2.973.021,31.571c0,2.746-2.822,5.374-5.567,5.379l-40.132.025a5.625,5.625,0,0,1-5.313-5.369l-.026-31.571Zm12.682,104.273H264.552V339.579h.01V297.842a5.9,5.9,0,0,1,5.768-6.016h68.277a5.9,5.9,0,0,1,5.768,6.016v41.737h.006Z" transform="translate(-249.016 -240.292)" fill="#0670b4"/>
  <path id="Path_1518" data-name="Path 1518" d="M591.185,327.02l10.474,0a3.128,3.128,0,0,0,3.12-3.127l-.016-21.024a3.119,3.119,0,0,0-3.127-3.114l-10.463,0a3.124,3.124,0,0,0-3.126,3.12l.015,21.029A3.117,3.117,0,0,0,591.185,327.02Z" transform="translate(-527.79 -289.183)" fill="#0670b4"/>
  <path id="Path_1519" data-name="Path 1519" d="M410.526,530.246H342.249a5.9,5.9,0,0,0-5.768,6.016V578h79.813V536.262A5.9,5.9,0,0,0,410.526,530.246Zm-1.5,35.3h-65.29v-2.964h65.29Zm0-8.9h-65.29v-2.964h65.29Zm0-8.892h-65.29V544.8h65.29Z" transform="translate(-320.936 -478.712)" fill="#fff"/>
  <path id="Path_1520" data-name="Path 1520" d="M416.249,798.925H336.426V809.63h79.829V798.925Z" transform="translate(-320.891 -699.638)" fill="#2fac00"/>
  <rect id="Rectangle_1741" data-name="Rectangle 1741" width="65.29" height="2.967" transform="translate(22.805 66.084)" fill="#2fac00"/>
  <rect id="Rectangle_1742" data-name="Rectangle 1742" width="65.29" height="2.964" transform="translate(22.805 74.979)" fill="#2fac00"/>
  <rect id="Rectangle_1743" data-name="Rectangle 1743" width="65.29" height="2.964" transform="translate(22.805 83.874)" fill="#2fac00"/>
</svg>
