<svg id="save" xmlns="http://www.w3.org/2000/svg" width="19.748" height="19.748" viewBox="0 0 19.748 19.748">
  <path id="Path_1488" data-name="Path 1488" d="M40.949,25.055l-3.591-3.591a.448.448,0,0,0-.317-.131H23.128a1.8,1.8,0,0,0-1.8,1.8V39.286a1.8,1.8,0,0,0,1.8,1.8H39.286a1.8,1.8,0,0,0,1.8-1.8V25.372A.448.448,0,0,0,40.949,25.055ZM25.821,22.231H35.7v5.386a.9.9,0,0,1-.9.9H26.719a.9.9,0,0,1-.9-.9ZM37.49,40.183H24.924V32.1H37.49Zm2.693-.9a.9.9,0,0,1-.9.9h-.9V31.656a.449.449,0,0,0-.449-.449H24.475a.449.449,0,0,0-.449.449v8.527h-.9a.9.9,0,0,1-.9-.9V23.128a.9.9,0,0,1,.9-.9h1.8v5.386a1.8,1.8,0,0,0,1.8,1.8H34.8a1.8,1.8,0,0,0,1.8-1.8V22.231h.263l3.328,3.328Z" transform="translate(-21.333 -21.333)" fill="#fff"/>
</svg>
