<svg id="Component_49_1" data-name="Component 49 – 1" xmlns="http://www.w3.org/2000/svg" width="54.206" height="54.208" viewBox="0 0 54.206 54.208">
  <rect id="Rectangle_1795" data-name="Rectangle 1795" width="45" height="23" transform="translate(1.051 1)" fill="#5eac24"/>
  <rect id="Rectangle_1796" data-name="Rectangle 1796" width="3" height="23" transform="translate(43.051 1)" fill="#4e901e"/>
  <path id="Path_1742" data-name="Path 1742" d="M235.262,279.021a8.131,8.131,0,1,1-8.131-8.131,8.131,8.131,0,0,1,8.131,8.131Zm0,0" transform="translate(-203.642 -266.373)" fill="#ffcd00"/>
  <rect id="Rectangle_1797" data-name="Rectangle 1797" width="18" height="5" transform="translate(35.051 40)" fill="#2488ff"/>
  <path id="Path_1743" data-name="Path 1743" d="M356.7,309.3v22.306H345.862a5.42,5.42,0,0,1-5.421-5.421v-9.938h2.71l-3.786-3.786a2.712,2.712,0,0,1,3.831-3.84l8.086,7.625V300.89l3.307,3.307a7.214,7.214,0,0,1,2.114,5.1Zm0,0" transform="translate(-305.208 -291.856)" fill="#ffc477"/>
  <path id="Path_1744" data-name="Path 1744" d="M369.3,352.249" transform="translate(-331.312 -335.482)" fill="#ffa733"/>
  <path id="Path_1745" data-name="Path 1745" d="M163.91,360.311v10.841a12.3,12.3,0,0,1-3.7,8.817l-10.75,11.058L138.7,379.969a12.3,12.3,0,0,1-3.7-8.817V360.311l14.455-5.421Zm0,0" transform="translate(-132.29 -337.725)" fill="#ff7956"/>
  <path id="Path_1746" data-name="Path 1746" d="M180.682,383.407v8a9.024,9.024,0,0,1-2.647,6.387l-8.194,8.194-8.194-8.194A9.024,9.024,0,0,1,159,391.412v-8l10.841-4.517Zm0,0" transform="translate(-152.676 -358.111)" fill="#ffde55"/>
  <path id="Path_1747" data-name="Path 1747" d="M170.3,279.737h-.9v-21.4a8.066,8.066,0,0,0-2.379-5.743l-3.042-3.042v-7.757a.9.9,0,0,0-.9-.9H117.9a.9.9,0,0,0-.9.9v23.489a.9.9,0,0,0,.9.9h.9v8.131a13.138,13.138,0,0,0,3.964,9.45l10.746,11.058a.9.9,0,0,0,1.3,0l10.742-11.05a13.137,13.137,0,0,0,3.969-9.457v-8.131h1.807v9.034a6.3,6.3,0,0,0,1.907,4.517h-1a.9.9,0,0,0-.9.9v5.421a.9.9,0,0,0,.9.9H170.3a.9.9,0,0,0,.9-.9v-5.421a.9.9,0,0,0-.9-.9Zm-22.586-5.421a11.374,11.374,0,0,1-3.448,8.186l-10.1,10.393-10.1-10.393-.009-.009a11.361,11.361,0,0,1-3.44-8.177V264.1l13.551-5.082,13.551,5.082Zm-13.234-17.108a.9.9,0,0,0-.213-.038,7.114,7.114,0,0,1-1.007-3.633,7.227,7.227,0,1,1,9.594,6.811Zm14.455,5.421-3.714-1.392a9.047,9.047,0,1,0-12.738-3.518l-13.091,4.91a.9.9,0,0,0-.586.846V242.7h43.365v20.492l-6.55-6.177a3.689,3.689,0,0,0-5.1.008,3.633,3.633,0,0,0,0,5.115l2.246,2.243h-3.24v-.9a.9.9,0,0,0-.586-.846Zm4.2,12.591v-9.034h1.433l4.252,4.252,1.277-1.277-8.3-8.3a1.809,1.809,0,1,1,2.572-2.544l8.086,7.626a.9.9,0,0,0,1.523-.658V252.105l1.765,1.765a6.274,6.274,0,0,1,1.849,4.465v21.4h-9.938a4.523,4.523,0,0,1-4.517-4.517Zm16.262,9.938H153.137v-3.614H169.4m0,3.614" transform="translate(-117 -240.89)"/>
  <path id="Path_1748" data-name="Path 1748" d="M164.4,372.958l-10.841,4.517a.9.9,0,0,0-.556.834v8a9.87,9.87,0,0,0,2.911,7.028l8.195,8.2a.9.9,0,0,0,1.277,0l8.2-8.2a9.87,9.87,0,0,0,2.911-7.028v-8a.9.9,0,0,0-.556-.834l-10.841-4.517a.9.9,0,0,0-.7,0Zm10.285,5.954v7.4a8.079,8.079,0,0,1-2.381,5.75l-7.556,7.556-7.556-7.556a8.08,8.08,0,0,1-2.381-5.75v-7.4l9.938-4.142Zm0,0" transform="translate(-147.579 -353.013)"/>
  <path id="Path_1749" data-name="Path 1749" d="M141,265.793v3.614h1.807V266.7h2.71V264.89H141.9a.9.9,0,0,0-.9.9Zm0,0" transform="translate(-137.386 -261.276)"/>
  <path id="Path_1750" data-name="Path 1750" d="M377.71,269.407h1.807v-3.614a.9.9,0,0,0-.9-.9H375V266.7h2.71Zm0,0" transform="translate(-336.153 -261.276)"/>
  <path id="Path_1751" data-name="Path 1751" d="M193.668,432.21l-1.277,1.277,3.194,3.194a.9.9,0,0,0,1.277,0l7.666-7.666-1.277-1.277-7.027,7.027Zm0,0" transform="translate(-181.039 -399.604)"/>
</svg>
