<svg id="submit" xmlns="http://www.w3.org/2000/svg" width="19.995" height="19.995" viewBox="0 0 19.995 19.995">
  <path id="Path_1486" data-name="Path 1486" d="M126.115,75.4H126.1a.753.753,0,0,1-.538-.243l-3.793-4.119a.754.754,0,0,1,1.109-1.021l3.262,3.543,9.04-9.016a.753.753,0,1,1,1.064,1.067l-9.6,9.57A.754.754,0,0,1,126.115,75.4Z" transform="translate(-116.821 -61.815)" fill="#fff"/>
  <path id="Path_1487" data-name="Path 1487" d="M10,19.995A10,10,0,0,1,10,0a.754.754,0,0,1,0,1.507A8.49,8.49,0,1,0,18.488,10a.754.754,0,0,1,1.507,0A10.009,10.009,0,0,1,10,19.995Z" fill="#fff"/>
</svg>
