<svg id="work" xmlns="http://www.w3.org/2000/svg" width="20.132" height="17.616" viewBox="0 0 20.132 17.616">
  <path id="Path_1504" data-name="Path 1504" d="M12.583,79.454a.629.629,0,0,1-.629.629H8.179a.629.629,0,0,1-.629-.629V77.566H0v5.662a1.935,1.935,0,0,0,1.887,1.887H18.245a1.935,1.935,0,0,0,1.887-1.887V77.566h-7.55Zm5.662-8.179H15.1V69.387A1.935,1.935,0,0,0,13.212,67.5H6.921a1.935,1.935,0,0,0-1.887,1.887v1.887H1.887A1.935,1.935,0,0,0,0,73.162v3.146H20.132V73.162A1.935,1.935,0,0,0,18.245,71.275Zm-5.662,0H7.55V70.017h5.033Z" transform="translate(0 -67.5)" fill="#fff"/>
</svg>
